<ttFont>
    <TTGlyph name=".notdef" xMin="65" yMin="0" xMax="449" yMax="768">
      <contour>
        <pt x="65" y="0" on="1"/>
        <pt x="65" y="768" on="1"/>
        <pt x="449" y="768" on="1"/>
        <pt x="449" y="0" on="1"/>
      </contour>
      <contour>
        <pt x="128" y="65" on="1"/>
        <pt x="384" y="65" on="1"/>
        <pt x="384" y="705" on="1"/>
        <pt x="128" y="705" on="1"/>
      </contour>
    </TTGlyph>
    <TTGlyph name="A" xMin="-11" yMin="-12" xMax="522" yMax="670">
      <contour>
        <pt x="371" y="152" on="1"/>
        <pt x="159" y="152" on="1"/>
        <pt x="94" y="-12" on="1"/>
        <pt x="-11" y="2" on="1"/>
        <pt x="272" y="670" on="1"/>
        <pt x="377" y="670" on="1"/>
        <pt x="522" y="7" on="1"/>
        <pt x="401" y="-12" on="1"/>
      </contour>
      <contour>
        <pt x="197" y="247" on="1"/>
        <pt x="353" y="247" on="1"/>
        <pt x="304" y="513" on="1"/>
      </contour>
    </TTGlyph>
    <TTGlyph name="AE" xMin="-11" yMin="-12" xMax="877" yMax="670">
      <contour>
        <pt x="227" y="278" on="1"/>
        <pt x="354" y="278" on="1"/>
        <pt x="313" y="505" on="1"/>
      </contour>
      <contour>
        <pt x="586" y="400" on="1"/>
        <pt x="831" y="400" on="1"/>
        <pt x="821" y="299" on="1"/>
        <pt x="575" y="299" on="1"/>
        <pt x="555" y="101" on="1"/>
        <pt x="815" y="101" on="1"/>
        <pt x="804" y="-1" on="1"/>
        <pt x="410" y="-1" on="1"/>
        <pt x="374" y="172" on="1"/>
        <pt x="183" y="172" on="1"/>
        <pt x="108" y="-12" on="1"/>
        <pt x="-11" y="2" on="1"/>
        <pt x="279" y="670" on="1"/>
        <pt x="385" y="670" on="1"/>
        <pt x="452" y="317" on="1"/>
        <pt x="487" y="656" on="1"/>
        <pt x="877" y="656" on="1"/>
        <pt x="866" y="558" on="1"/>
        <pt x="603" y="558" on="1"/>
      </contour>
    </TTGlyph>
    <TTGlyph name="Aacute" xMin="-14" yMin="-12" xMax="518" yMax="855">
      <contour>
        <pt x="359" y="172" on="1"/>
        <pt x="174" y="172" on="1"/>
        <pt x="99" y="-12" on="1"/>
        <pt x="-14" y="2" on="1"/>
        <pt x="267" y="670" on="1"/>
        <pt x="372" y="670" on="1"/>
        <pt x="518" y="7" on="1"/>
        <pt x="397" y="-12" on="1"/>
      </contour>
      <contour>
        <pt x="212" y="267" on="1"/>
        <pt x="342" y="267" on="1"/>
        <pt x="302" y="495" on="1"/>
      </contour>
      <contour>
        <pt x="185" y="764" on="1"/>
        <pt x="416" y="855" on="1"/>
        <pt x="470" y="775" on="1"/>
        <pt x="243" y="690" on="1"/>
      </contour>
    </TTGlyph>
    <TTGlyph name="Acircumflex" xMin="-16" yMin="-12" xMax="517" yMax="886">
      <contour>
        <pt x="358" y="172" on="1"/>
        <pt x="173" y="172" on="1"/>
        <pt x="98" y="-12" on="1"/>
        <pt x="-16" y="2" on="1"/>
        <pt x="266" y="670" on="1"/>
        <pt x="371" y="670" on="1"/>
        <pt x="517" y="7" on="1"/>
        <pt x="396" y="-12" on="1"/>
      </contour>
      <contour>
        <pt x="211" y="267" on="1"/>
        <pt x="341" y="267" on="1"/>
        <pt x="300" y="495" on="1"/>
      </contour>
      <contour>
        <pt x="175" y="677" on="1"/>
        <pt x="185" y="777" on="1"/>
        <pt x="337" y="886" on="1"/>
        <pt x="471" y="777" on="1"/>
        <pt x="461" y="678" on="1"/>
        <pt x="326" y="767" on="1"/>
      </contour>
    </TTGlyph>
    <TTGlyph name="Adieresis" xMin="-14" yMin="-12" xMax="519" yMax="850">
      <contour>
        <pt x="360" y="172" on="1"/>
        <pt x="175" y="172" on="1"/>
        <pt x="100" y="-12" on="1"/>
        <pt x="-14" y="2" on="1"/>
        <pt x="268" y="670" on="1"/>
        <pt x="373" y="670" on="1"/>
        <pt x="519" y="7" on="1"/>
        <pt x="398" y="-12" on="1"/>
      </contour>
      <contour>
        <pt x="212" y="267" on="1"/>
        <pt x="342" y="267" on="1"/>
        <pt x="302" y="495" on="1"/>
      </contour>
      <contour>
        <pt x="372" y="776" on="1"/>
        <pt x="374" y="804" on="0"/>
        <pt x="393" y="824" on="1"/>
        <pt x="416" y="850" on="0"/>
        <pt x="451" y="850" on="1"/>
        <pt x="485" y="850" on="0"/>
        <pt x="502" y="824" on="1"/>
        <pt x="517" y="802" on="0"/>
        <pt x="515" y="776" on="1"/>
        <pt x="512" y="748" on="0"/>
        <pt x="492" y="727" on="1"/>
        <pt x="469" y="702" on="0"/>
        <pt x="435" y="702" on="1"/>
        <pt x="400" y="702" on="0"/>
        <pt x="383" y="727" on="1"/>
        <pt x="369" y="747" on="0"/>
      </contour>
      <contour>
        <pt x="157" y="776" on="1"/>
        <pt x="159" y="804" on="0"/>
        <pt x="178" y="824" on="1"/>
        <pt x="201" y="850" on="0"/>
        <pt x="236" y="850" on="1"/>
        <pt x="270" y="850" on="0"/>
        <pt x="288" y="824" on="1"/>
        <pt x="302" y="802" on="0"/>
        <pt x="300" y="776" on="1"/>
        <pt x="297" y="748" on="0"/>
        <pt x="276" y="727" on="1"/>
        <pt x="253" y="702" on="0"/>
        <pt x="220" y="702" on="1"/>
        <pt x="185" y="702" on="0"/>
        <pt x="168" y="727" on="1"/>
        <pt x="154" y="747" on="0"/>
      </contour>
    </TTGlyph>
    <TTGlyph name="Agrave" xMin="-14" yMin="-12" xMax="518" yMax="861">
      <contour>
        <pt x="359" y="172" on="1"/>
        <pt x="174" y="172" on="1"/>
        <pt x="99" y="-12" on="1"/>
        <pt x="-14" y="2" on="1"/>
        <pt x="267" y="670" on="1"/>
        <pt x="372" y="670" on="1"/>
        <pt x="518" y="7" on="1"/>
        <pt x="397" y="-12" on="1"/>
      </contour>
      <contour>
        <pt x="212" y="267" on="1"/>
        <pt x="342" y="267" on="1"/>
        <pt x="301" y="495" on="1"/>
      </contour>
      <contour>
        <pt x="403" y="702" on="1"/>
        <pt x="199" y="795" on="1"/>
        <pt x="254" y="861" on="1"/>
        <pt x="459" y="763" on="1"/>
      </contour>
    </TTGlyph>
    <TTGlyph name="Aring" xMin="-15" yMin="-12" xMax="517" yMax="880">
      <contour>
        <pt x="358" y="172" on="1"/>
        <pt x="173" y="172" on="1"/>
        <pt x="98" y="-12" on="1"/>
        <pt x="-15" y="2" on="1"/>
        <pt x="266" y="670" on="1"/>
        <pt x="371" y="670" on="1"/>
        <pt x="517" y="7" on="1"/>
        <pt x="396" y="-12" on="1"/>
      </contour>
      <contour>
        <pt x="211" y="267" on="1"/>
        <pt x="341" y="267" on="1"/>
        <pt x="300" y="495" on="1"/>
      </contour>
      <contour>
        <pt x="329" y="702" on="1"/>
        <pt x="287" y="702" on="0"/>
        <pt x="241" y="753" on="0"/>
        <pt x="245" y="792" on="1"/>
        <pt x="249" y="830" on="0"/>
        <pt x="306" y="880" on="0"/>
        <pt x="347" y="880" on="1"/>
        <pt x="388" y="880" on="0"/>
        <pt x="435" y="829" on="0"/>
        <pt x="431" y="792" on="1"/>
        <pt x="427" y="753" on="0"/>
        <pt x="370" y="702" on="0"/>
      </contour>
      <contour>
        <pt x="342" y="836" on="1"/>
        <pt x="308" y="836" on="0"/>
        <pt x="304" y="792" on="1"/>
        <pt x="299" y="747" on="0"/>
        <pt x="333" y="746" on="1"/>
        <pt x="367" y="746" on="0"/>
        <pt x="372" y="792" on="1"/>
        <pt x="376" y="836" on="0"/>
      </contour>
    </TTGlyph>
    <TTGlyph name="Atilde" xMin="-14" yMin="-12" xMax="519" yMax="845">
      <contour>
        <pt x="360" y="172" on="1"/>
        <pt x="175" y="172" on="1"/>
        <pt x="100" y="-12" on="1"/>
        <pt x="-14" y="2" on="1"/>
        <pt x="268" y="670" on="1"/>
        <pt x="373" y="670" on="1"/>
        <pt x="519" y="7" on="1"/>
        <pt x="398" y="-12" on="1"/>
      </contour>
      <contour>
        <pt x="213" y="267" on="1"/>
        <pt x="343" y="267" on="1"/>
        <pt x="302" y="495" on="1"/>
      </contour>
      <contour>
        <pt x="319" y="736" on="1"/>
        <pt x="284" y="760" on="0"/>
        <pt x="276" y="760" on="1"/>
        <pt x="250" y="760" on="0"/>
        <pt x="204" y="712" on="1"/>
        <pt x="173" y="792" on="1"/>
        <pt x="218" y="843" on="0"/>
        <pt x="286" y="845" on="1"/>
        <pt x="318" y="846" on="0"/>
        <pt x="390" y="791" on="0"/>
        <pt x="400" y="791" on="1"/>
        <pt x="414" y="791" on="0"/>
        <pt x="457" y="822" on="1"/>
        <pt x="486" y="744" on="1"/>
        <pt x="468" y="728" on="0"/>
        <pt x="410" y="706" on="0"/>
        <pt x="394" y="706" on="1"/>
        <pt x="363" y="705" on="0"/>
      </contour>
    </TTGlyph>
    <TTGlyph name="B" xMin="30" yMin="-2" xMax="468" yMax="660">
      <contour>
        <pt x="30" y="2" on="1"/>
        <pt x="99" y="656" on="1"/>
        <pt x="107" y="656" on="0"/>
        <pt x="196" y="658" on="1"/>
        <pt x="261" y="660" on="0"/>
        <pt x="298" y="660" on="1"/>
        <pt x="374" y="660" on="0"/>
        <pt x="459" y="586" on="0"/>
        <pt x="459" y="517" on="1"/>
        <pt x="459" y="506" on="0"/>
        <pt x="458" y="494" on="1"/>
        <pt x="449" y="409" on="0"/>
        <pt x="351" y="359" on="1"/>
        <pt x="404" y="355" on="0"/>
        <pt x="475" y="259" on="0"/>
        <pt x="468" y="197" on="1"/>
        <pt x="456" y="79" on="0"/>
        <pt x="367" y="32" on="1"/>
        <pt x="302" y="-2" on="0"/>
        <pt x="180" y="-2" on="1"/>
        <pt x="152" y="-2" on="0"/>
        <pt x="49" y="2" on="0"/>
      </contour>
      <contour>
        <pt x="212" y="583" on="1"/>
        <pt x="191" y="389" on="1"/>
        <pt x="237" y="389" on="1"/>
        <pt x="283" y="389" on="0"/>
        <pt x="313" y="418" on="1"/>
        <pt x="341" y="445" on="0"/>
        <pt x="345" y="484" on="1"/>
        <pt x="354" y="584" on="0"/>
        <pt x="270" y="585" on="1"/>
        <pt x="249" y="585" on="0"/>
      </contour>
      <contour>
        <pt x="183" y="311" on="1"/>
        <pt x="160" y="83" on="1"/>
        <pt x="228" y="83" on="1"/>
        <pt x="282" y="83" on="0"/>
        <pt x="315" y="116" on="1"/>
        <pt x="346" y="146" on="0"/>
        <pt x="351" y="198" on="1"/>
        <pt x="356" y="241" on="0"/>
        <pt x="331" y="274" on="1"/>
        <pt x="302" y="311" on="0"/>
        <pt x="250" y="311" on="1"/>
      </contour>
    </TTGlyph>
    <TTGlyph name="C" xMin="30" yMin="-8" xMax="551" yMax="676">
      <contour>
        <pt x="356" y="676" on="1"/>
        <pt x="443" y="676" on="0"/>
        <pt x="551" y="605" on="1"/>
        <pt x="500" y="525" on="1"/>
        <pt x="440" y="563" on="0"/>
        <pt x="437" y="565" on="1"/>
        <pt x="402" y="582" on="0"/>
        <pt x="364" y="583" on="1"/>
        <pt x="281" y="583" on="0"/>
        <pt x="224" y="490" on="1"/>
        <pt x="178" y="416" on="0"/>
        <pt x="169" y="326" on="1"/>
        <pt x="167" y="309" on="0"/>
        <pt x="167" y="291" on="1"/>
        <pt x="167" y="207" on="0"/>
        <pt x="249" y="98" on="0"/>
        <pt x="309" y="98" on="1"/>
        <pt x="345" y="98" on="0"/>
        <pt x="379" y="111" on="1"/>
        <pt x="405" y="120" on="0"/>
        <pt x="462" y="151" on="1"/>
        <pt x="502" y="71" on="1"/>
        <pt x="429" y="27" on="0"/>
        <pt x="389" y="11" on="1"/>
        <pt x="338" y="-8" on="0"/>
        <pt x="280" y="-8" on="1"/>
        <pt x="154" y="-8" on="0"/>
        <pt x="88" y="81" on="1"/>
        <pt x="30" y="160" on="0"/>
        <pt x="30" y="285" on="1"/>
        <pt x="30" y="438" on="0"/>
        <pt x="115" y="551" on="1"/>
        <pt x="208" y="676" on="0"/>
      </contour>
    </TTGlyph>
    <TTGlyph name="Ccedilla" xMin="47" yMin="-224" xMax="567" yMax="676">
      <contour>
        <pt x="309" y="-224" on="1"/>
        <pt x="242" y="-224" on="0"/>
        <pt x="225" y="-175" on="1"/>
        <pt x="266" y="-140" on="1"/>
        <pt x="292" y="-173" on="0"/>
        <pt x="315" y="-173" on="1"/>
        <pt x="351" y="-173" on="0"/>
        <pt x="355" y="-138" on="1"/>
        <pt x="359" y="-98" on="0"/>
        <pt x="326" y="-98" on="1"/>
        <pt x="312" y="-98" on="0"/>
        <pt x="288" y="-114" on="1"/>
        <pt x="243" y="-92" on="1"/>
        <pt x="257" y="-6" on="1"/>
        <pt x="152" y="7" on="0"/>
        <pt x="96" y="94" on="1"/>
        <pt x="47" y="171" on="0"/>
        <pt x="47" y="285" on="1"/>
        <pt x="47" y="438" on="0"/>
        <pt x="130" y="550" on="1"/>
        <pt x="221" y="675" on="0"/>
        <pt x="370" y="676" on="1"/>
        <pt x="463" y="677" on="0"/>
        <pt x="567" y="611" on="1"/>
        <pt x="503" y="500" on="1"/>
        <pt x="470" y="524" on="0"/>
        <pt x="438" y="546" on="1"/>
        <pt x="397" y="573" on="0"/>
        <pt x="365" y="572" on="1"/>
        <pt x="281" y="572" on="0"/>
        <pt x="225" y="485" on="1"/>
        <pt x="179" y="414" on="0"/>
        <pt x="170" y="326" on="1"/>
        <pt x="168" y="308" on="0"/>
        <pt x="168" y="290" on="1"/>
        <pt x="168" y="205" on="0"/>
        <pt x="247" y="97" on="0"/>
        <pt x="306" y="97" on="1"/>
        <pt x="360" y="97" on="0"/>
        <pt x="471" y="156" on="1"/>
        <pt x="517" y="59" on="1"/>
        <pt x="443" y="21" on="0"/>
        <pt x="410" y="10" on="1"/>
        <pt x="366" y="-6" on="0"/>
        <pt x="315" y="-8" on="1"/>
        <pt x="308" y="-48" on="1"/>
        <pt x="318" y="-44" on="0"/>
        <pt x="334" y="-44" on="1"/>
        <pt x="377" y="-44" on="0"/>
        <pt x="400" y="-74" on="1"/>
        <pt x="420" y="-100" on="0"/>
        <pt x="417" y="-135" on="1"/>
        <pt x="413" y="-171" on="0"/>
        <pt x="386" y="-197" on="1"/>
        <pt x="356" y="-224" on="0"/>
      </contour>
    </TTGlyph>
    <TTGlyph name="D" xMin="30" yMin="-2" xMax="549" yMax="663">
      <contour>
        <pt x="30" y="2" on="1"/>
        <pt x="99" y="658" on="1"/>
        <pt x="181" y="662" on="0"/>
        <pt x="266" y="663" on="1"/>
        <pt x="549" y="663" on="0"/>
        <pt x="549" y="392" on="1"/>
        <pt x="549" y="362" on="0"/>
        <pt x="546" y="331" on="1"/>
        <pt x="531" y="174" on="0"/>
        <pt x="441" y="88" on="1"/>
        <pt x="349" y="-2" on="0"/>
        <pt x="193" y="-2" on="1"/>
        <pt x="168" y="-2" on="0"/>
        <pt x="72" y="2" on="0"/>
      </contour>
      <contour>
        <pt x="266" y="583" on="1"/>
        <pt x="259" y="583" on="0"/>
        <pt x="243" y="583" on="1"/>
        <pt x="227" y="582" on="0"/>
        <pt x="216" y="582" on="1"/>
        <pt x="164" y="89" on="1"/>
        <pt x="220" y="89" on="1"/>
        <pt x="299" y="89" on="0"/>
        <pt x="356" y="164" on="1"/>
        <pt x="407" y="231" on="0"/>
        <pt x="417" y="321" on="1"/>
        <pt x="420" y="354" on="0"/>
        <pt x="420" y="383" on="1"/>
        <pt x="420" y="583" on="0"/>
      </contour>
    </TTGlyph>
    <TTGlyph name="Delta" xMin="43" yMin="0" xMax="629" yMax="673">
      <contour>
        <pt x="364" y="673" on="1"/>
        <pt x="472" y="673" on="1"/>
        <pt x="629" y="0" on="1"/>
        <pt x="43" y="0" on="1"/>
      </contour>
      <contour>
        <pt x="215" y="92" on="1"/>
        <pt x="478" y="92" on="1"/>
        <pt x="398" y="502" on="1"/>
      </contour>
    </TTGlyph>
    <TTGlyph name="E" xMin="30" yMin="0" xMax="467" yMax="655">
      <contour>
        <pt x="190" y="400" on="1"/>
        <pt x="423" y="400" on="1"/>
        <pt x="414" y="309" on="1"/>
        <pt x="181" y="310" on="1"/>
        <pt x="159" y="91" on="1"/>
        <pt x="404" y="91" on="1"/>
        <pt x="394" y="0" on="1"/>
        <pt x="30" y="0" on="1"/>
        <pt x="99" y="655" on="1"/>
        <pt x="467" y="655" on="1"/>
        <pt x="458" y="568" on="1"/>
        <pt x="209" y="568" on="1"/>
      </contour>
    </TTGlyph>
    <TTGlyph name="Eacute" xMin="25" yMin="0" xMax="461" yMax="865">
      <contour>
        <pt x="186" y="400" on="1"/>
        <pt x="418" y="400" on="1"/>
        <pt x="407" y="299" on="1"/>
        <pt x="175" y="300" on="1"/>
        <pt x="156" y="112" on="1"/>
        <pt x="401" y="113" on="1"/>
        <pt x="390" y="0" on="1"/>
        <pt x="25" y="0" on="1"/>
        <pt x="93" y="655" on="1"/>
        <pt x="461" y="655" on="1"/>
        <pt x="450" y="548" on="1"/>
        <pt x="202" y="548" on="1"/>
      </contour>
      <contour>
        <pt x="155" y="774" on="1"/>
        <pt x="383" y="865" on="1"/>
        <pt x="438" y="785" on="1"/>
        <pt x="210" y="700" on="1"/>
      </contour>
    </TTGlyph>
    <TTGlyph name="Ecircumflex" xMin="23" yMin="0" xMax="459" yMax="896">
      <contour>
        <pt x="184" y="400" on="1"/>
        <pt x="416" y="400" on="1"/>
        <pt x="406" y="299" on="1"/>
        <pt x="174" y="300" on="1"/>
        <pt x="154" y="112" on="1"/>
        <pt x="400" y="113" on="1"/>
        <pt x="388" y="0" on="1"/>
        <pt x="23" y="0" on="1"/>
        <pt x="91" y="655" on="1"/>
        <pt x="459" y="655" on="1"/>
        <pt x="447" y="548" on="1"/>
        <pt x="200" y="548" on="1"/>
      </contour>
      <contour>
        <pt x="155" y="697" on="1"/>
        <pt x="164" y="787" on="1"/>
        <pt x="316" y="896" on="1"/>
        <pt x="451" y="787" on="1"/>
        <pt x="441" y="698" on="1"/>
        <pt x="304" y="777" on="1"/>
      </contour>
    </TTGlyph>
    <TTGlyph name="Edieresis" xMin="25" yMin="0" xMax="482" yMax="850">
      <contour>
        <pt x="186" y="400" on="1"/>
        <pt x="418" y="400" on="1"/>
        <pt x="408" y="299" on="1"/>
        <pt x="176" y="300" on="1"/>
        <pt x="157" y="112" on="1"/>
        <pt x="402" y="113" on="1"/>
        <pt x="390" y="0" on="1"/>
        <pt x="25" y="0" on="1"/>
        <pt x="94" y="655" on="1"/>
        <pt x="462" y="655" on="1"/>
        <pt x="451" y="548" on="1"/>
        <pt x="203" y="548" on="1"/>
      </contour>
      <contour>
        <pt x="339" y="776" on="1"/>
        <pt x="342" y="803" on="0"/>
        <pt x="361" y="824" on="1"/>
        <pt x="384" y="850" on="0"/>
        <pt x="419" y="850" on="1"/>
        <pt x="453" y="850" on="0"/>
        <pt x="470" y="824" on="1"/>
        <pt x="485" y="802" on="0"/>
        <pt x="482" y="776" on="1"/>
        <pt x="479" y="748" on="0"/>
        <pt x="460" y="727" on="1"/>
        <pt x="437" y="702" on="0"/>
        <pt x="402" y="702" on="1"/>
        <pt x="368" y="702" on="0"/>
        <pt x="351" y="727" on="1"/>
        <pt x="336" y="747" on="0"/>
      </contour>
      <contour>
        <pt x="125" y="776" on="1"/>
        <pt x="128" y="804" on="0"/>
        <pt x="146" y="824" on="1"/>
        <pt x="169" y="850" on="0"/>
        <pt x="205" y="850" on="1"/>
        <pt x="238" y="850" on="0"/>
        <pt x="255" y="824" on="1"/>
        <pt x="270" y="802" on="0"/>
        <pt x="267" y="776" on="1"/>
        <pt x="264" y="748" on="0"/>
        <pt x="245" y="727" on="1"/>
        <pt x="222" y="702" on="0"/>
        <pt x="188" y="702" on="1"/>
        <pt x="153" y="702" on="0"/>
        <pt x="136" y="727" on="1"/>
        <pt x="122" y="747" on="0"/>
      </contour>
    </TTGlyph>
    <TTGlyph name="Egrave" xMin="25" yMin="0" xMax="461" yMax="861">
      <contour>
        <pt x="186" y="400" on="1"/>
        <pt x="418" y="400" on="1"/>
        <pt x="407" y="299" on="1"/>
        <pt x="176" y="300" on="1"/>
        <pt x="156" y="112" on="1"/>
        <pt x="401" y="113" on="1"/>
        <pt x="390" y="0" on="1"/>
        <pt x="25" y="0" on="1"/>
        <pt x="93" y="655" on="1"/>
        <pt x="461" y="655" on="1"/>
        <pt x="450" y="548" on="1"/>
        <pt x="202" y="548" on="1"/>
      </contour>
      <contour>
        <pt x="371" y="702" on="1"/>
        <pt x="167" y="795" on="1"/>
        <pt x="221" y="861" on="1"/>
        <pt x="427" y="763" on="1"/>
      </contour>
    </TTGlyph>
    <TTGlyph name="Eth" xMin="-2" yMin="-2" xMax="549" yMax="663">
      <contour>
        <pt x="251" y="361" on="1"/>
        <pt x="240" y="257" on="1"/>
        <pt x="175" y="257" on="1"/>
        <pt x="160" y="110" on="1"/>
        <pt x="225" y="110" on="1"/>
        <pt x="306" y="110" on="0"/>
        <pt x="359" y="174" on="1"/>
        <pt x="406" y="232" on="0"/>
        <pt x="416" y="321" on="1"/>
        <pt x="420" y="356" on="0"/>
        <pt x="420" y="384" on="1"/>
        <pt x="420" y="562" on="0"/>
        <pt x="268" y="562" on="1"/>
        <pt x="260" y="562" on="0"/>
        <pt x="240" y="562" on="1"/>
        <pt x="220" y="561" on="0"/>
        <pt x="208" y="561" on="1"/>
        <pt x="186" y="361" on="1"/>
      </contour>
      <contour>
        <pt x="63" y="361" on="1"/>
        <pt x="95" y="658" on="1"/>
        <pt x="178" y="662" on="0"/>
        <pt x="253" y="663" on="1"/>
        <pt x="403" y="663" on="0"/>
        <pt x="549" y="536" on="0"/>
        <pt x="549" y="395" on="1"/>
        <pt x="549" y="364" on="0"/>
        <pt x="546" y="331" on="1"/>
        <pt x="531" y="174" on="0"/>
        <pt x="441" y="88" on="1"/>
        <pt x="348" y="-2" on="0"/>
        <pt x="189" y="-2" on="1"/>
        <pt x="163" y="-2" on="0"/>
        <pt x="69" y="2" on="0"/>
        <pt x="26" y="2" on="1"/>
        <pt x="52" y="257" on="1"/>
        <pt x="-2" y="257" on="1"/>
        <pt x="9" y="361" on="1"/>
      </contour>
    </TTGlyph>
    <TTGlyph name="F" xMin="30" yMin="0" xMax="468" yMax="655">
      <contour>
        <pt x="190" y="400" on="1"/>
        <pt x="425" y="400" on="1"/>
        <pt x="416" y="309" on="1"/>
        <pt x="181" y="309" on="1"/>
        <pt x="148" y="0" on="1"/>
        <pt x="30" y="0" on="1"/>
        <pt x="99" y="655" on="1"/>
        <pt x="468" y="655" on="1"/>
        <pt x="459" y="568" on="1"/>
        <pt x="209" y="568" on="1"/>
      </contour>
    </TTGlyph>
    <TTGlyph name="G" xMin="29" yMin="-6" xMax="550" yMax="676">
      <contour>
        <pt x="273" y="-6" on="1"/>
        <pt x="152" y="-6" on="0"/>
        <pt x="87" y="84" on="1"/>
        <pt x="29" y="164" on="0"/>
        <pt x="29" y="286" on="1"/>
        <pt x="29" y="309" on="0"/>
        <pt x="32" y="331" on="1"/>
        <pt x="43" y="455" on="0"/>
        <pt x="119" y="556" on="1"/>
        <pt x="210" y="676" on="0"/>
        <pt x="342" y="676" on="1"/>
        <pt x="389" y="676" on="0"/>
        <pt x="446" y="658" on="1"/>
        <pt x="513" y="636" on="0"/>
        <pt x="550" y="604" on="1"/>
        <pt x="500" y="526" on="1"/>
        <pt x="424" y="582" on="0"/>
        <pt x="354" y="583" on="1"/>
        <pt x="278" y="583" on="0"/>
        <pt x="222" y="489" on="1"/>
        <pt x="176" y="412" on="0"/>
        <pt x="167" y="326" on="1"/>
        <pt x="165" y="306" on="0"/>
        <pt x="165" y="286" on="1"/>
        <pt x="165" y="203" on="0"/>
        <pt x="233" y="94" on="0"/>
        <pt x="288" y="94" on="1"/>
        <pt x="350" y="94" on="0"/>
        <pt x="386" y="111" on="1"/>
        <pt x="408" y="311" on="1"/>
        <pt x="273" y="311" on="1"/>
        <pt x="283" y="400" on="1"/>
        <pt x="539" y="400" on="1"/>
        <pt x="503" y="67" on="1"/>
        <pt x="432" y="26" on="0"/>
        <pt x="391" y="12" on="1"/>
        <pt x="339" y="-6" on="0"/>
      </contour>
    </TTGlyph>
    <TTGlyph name="H" xMin="30" yMin="0" xMax="566" yMax="655">
      <contour>
        <pt x="409" y="309" on="1"/>
        <pt x="184" y="309" on="1"/>
        <pt x="152" y="0" on="1"/>
        <pt x="30" y="0" on="1"/>
        <pt x="99" y="655" on="1"/>
        <pt x="221" y="655" on="1"/>
        <pt x="194" y="400" on="1"/>
        <pt x="418" y="400" on="1"/>
        <pt x="445" y="655" on="1"/>
        <pt x="566" y="655" on="1"/>
        <pt x="497" y="0" on="1"/>
        <pt x="376" y="0" on="1"/>
      </contour>
    </TTGlyph>
    <TTGlyph name="I" xMin="30" yMin="0" xMax="221" yMax="656">
      <contour>
        <pt x="99" y="656" on="1"/>
        <pt x="221" y="656" on="1"/>
        <pt x="152" y="0" on="1"/>
        <pt x="30" y="0" on="1"/>
      </contour>
    </TTGlyph>
    <TTGlyph name="Iacute" xMin="4" yMin="0" xMax="299" yMax="855">
      <contour>
        <pt x="74" y="657" on="1"/>
        <pt x="206" y="657" on="1"/>
        <pt x="136" y="0" on="1"/>
        <pt x="4" y="0" on="1"/>
      </contour>
      <contour>
        <pt x="14" y="764" on="1"/>
        <pt x="244" y="855" on="1"/>
        <pt x="299" y="775" on="1"/>
        <pt x="71" y="690" on="1"/>
      </contour>
    </TTGlyph>
    <TTGlyph name="Icircumflex" xMin="-5" yMin="0" xMax="291" yMax="896">
      <contour>
        <pt x="65" y="657" on="1"/>
        <pt x="197" y="657" on="1"/>
        <pt x="128" y="0" on="1"/>
        <pt x="-4" y="0" on="1"/>
      </contour>
      <contour>
        <pt x="-5" y="697" on="1"/>
        <pt x="4" y="787" on="1"/>
        <pt x="157" y="896" on="1"/>
        <pt x="291" y="787" on="1"/>
        <pt x="282" y="698" on="1"/>
        <pt x="144" y="777" on="1"/>
      </contour>
    </TTGlyph>
    <TTGlyph name="Idieresis" xMin="-26" yMin="0" xMax="332" yMax="840">
      <contour>
        <pt x="74" y="657" on="1"/>
        <pt x="206" y="657" on="1"/>
        <pt x="137" y="0" on="1"/>
        <pt x="5" y="0" on="1"/>
      </contour>
      <contour>
        <pt x="188" y="766" on="1"/>
        <pt x="190" y="793" on="0"/>
        <pt x="210" y="814" on="1"/>
        <pt x="233" y="840" on="0"/>
        <pt x="301" y="840" on="0"/>
        <pt x="318" y="814" on="1"/>
        <pt x="333" y="792" on="0"/>
        <pt x="332" y="766" on="1"/>
        <pt x="329" y="738" on="0"/>
        <pt x="308" y="717" on="1"/>
        <pt x="285" y="692" on="0"/>
        <pt x="252" y="692" on="1"/>
        <pt x="217" y="692" on="0"/>
        <pt x="200" y="717" on="1"/>
        <pt x="185" y="737" on="0"/>
      </contour>
      <contour>
        <pt x="-26" y="766" on="1"/>
        <pt x="-24" y="794" on="0"/>
        <pt x="-4" y="814" on="1"/>
        <pt x="19" y="840" on="0"/>
        <pt x="53" y="840" on="1"/>
        <pt x="86" y="840" on="0"/>
        <pt x="104" y="814" on="1"/>
        <pt x="118" y="792" on="0"/>
        <pt x="117" y="766" on="1"/>
        <pt x="114" y="738" on="0"/>
        <pt x="94" y="717" on="1"/>
        <pt x="71" y="692" on="0"/>
        <pt x="38" y="692" on="1"/>
        <pt x="2" y="692" on="0"/>
        <pt x="-14" y="717" on="1"/>
        <pt x="-29" y="737" on="0"/>
      </contour>
    </TTGlyph>
    <TTGlyph name="Igrave" xMin="4" yMin="0" xMax="287" yMax="861">
      <contour>
        <pt x="73" y="657" on="1"/>
        <pt x="205" y="657" on="1"/>
        <pt x="136" y="0" on="1"/>
        <pt x="4" y="0" on="1"/>
      </contour>
      <contour>
        <pt x="231" y="702" on="1"/>
        <pt x="27" y="795" on="1"/>
        <pt x="82" y="861" on="1"/>
        <pt x="287" y="763" on="1"/>
      </contour>
    </TTGlyph>
    <TTGlyph name="J" xMin="-189" yMin="-191" xMax="232" yMax="655">
      <contour>
        <pt x="-31" y="-191" on="1"/>
        <pt x="-87" y="-191" on="0"/>
        <pt x="-124" y="-171" on="1"/>
        <pt x="-146" y="-158" on="0"/>
        <pt x="-189" y="-114" on="1"/>
        <pt x="-120" y="-37" on="1"/>
        <pt x="-97" y="-67" on="0"/>
        <pt x="-82" y="-78" on="1"/>
        <pt x="-60" y="-93" on="0"/>
        <pt x="-29" y="-93" on="1"/>
        <pt x="31" y="-93" on="0"/>
        <pt x="48" y="61" on="1"/>
        <pt x="110" y="655" on="1"/>
        <pt x="232" y="655" on="1"/>
        <pt x="171" y="69" on="1"/>
        <pt x="144" y="-191" on="0"/>
      </contour>
    </TTGlyph>
    <TTGlyph name="K" xMin="30" yMin="-24" xMax="531" yMax="689">
      <contour>
        <pt x="214" y="261" on="1"/>
        <pt x="173" y="211" on="1"/>
        <pt x="152" y="0" on="1"/>
        <pt x="30" y="0" on="1"/>
        <pt x="98" y="656" on="1"/>
        <pt x="220" y="656" on="1"/>
        <pt x="189" y="359" on="1"/>
        <pt x="430" y="689" on="1"/>
        <pt x="531" y="635" on="1"/>
        <pt x="437" y="522" on="0"/>
        <pt x="288" y="338" on="1"/>
        <pt x="319" y="277" on="0"/>
        <pt x="395" y="173" on="1"/>
        <pt x="457" y="90" on="0"/>
        <pt x="521" y="8" on="1"/>
        <pt x="374" y="-24" on="1"/>
        <pt x="288" y="114" on="0"/>
      </contour>
    </TTGlyph>
    <TTGlyph name="L" xMin="30" yMin="0" xMax="423" yMax="656">
      <contour>
        <pt x="99" y="656" on="1"/>
        <pt x="219" y="656" on="1"/>
        <pt x="159" y="87" on="1"/>
        <pt x="423" y="87" on="1"/>
        <pt x="414" y="0" on="1"/>
        <pt x="30" y="0" on="1"/>
      </contour>
    </TTGlyph>
    <TTGlyph name="Lslash" xMin="-3" yMin="0" xMax="425" yMax="656">
      <contour>
        <pt x="65" y="376" on="1"/>
        <pt x="94" y="656" on="1"/>
        <pt x="215" y="656" on="1"/>
        <pt x="190" y="423" on="1"/>
        <pt x="256" y="447" on="1"/>
        <pt x="244" y="331" on="1"/>
        <pt x="178" y="306" on="1"/>
        <pt x="157" y="108" on="1"/>
        <pt x="425" y="108" on="1"/>
        <pt x="414" y="0" on="1"/>
        <pt x="25" y="0" on="1"/>
        <pt x="52" y="260" on="1"/>
        <pt x="-3" y="240" on="1"/>
        <pt x="9" y="355" on="1"/>
      </contour>
    </TTGlyph>
    <TTGlyph name="M" xMin="40" yMin="-1" xMax="771" yMax="657">
      <contour>
        <pt x="613" y="437" on="1"/>
        <pt x="412" y="-1" on="1"/>
        <pt x="305" y="-1" on="1"/>
        <pt x="196" y="441" on="1"/>
        <pt x="148" y="0" on="1"/>
        <pt x="40" y="0" on="1"/>
        <pt x="110" y="657" on="1"/>
        <pt x="265" y="657" on="1"/>
        <pt x="392" y="174" on="1"/>
        <pt x="626" y="657" on="1"/>
        <pt x="771" y="657" on="1"/>
        <pt x="701" y="0" on="1"/>
        <pt x="567" y="0" on="1"/>
      </contour>
    </TTGlyph>
    <TTGlyph name="N" xMin="31" yMin="-15" xMax="566" yMax="659">
      <contour>
        <pt x="180" y="411" on="1"/>
        <pt x="136" y="0" on="1"/>
        <pt x="31" y="0" on="1"/>
        <pt x="100" y="659" on="1"/>
        <pt x="199" y="659" on="1"/>
        <pt x="419" y="245" on="1"/>
        <pt x="462" y="655" on="1"/>
        <pt x="566" y="655" on="1"/>
        <pt x="500" y="15" on="1"/>
        <pt x="398" y="-15" on="1"/>
        <pt x="317" y="169" on="0"/>
      </contour>
    </TTGlyph>
    <TTGlyph name="Ntilde" xMin="28" yMin="-15" xMax="563" yMax="814">
      <contour>
        <pt x="186" y="404" on="1"/>
        <pt x="143" y="1" on="1"/>
        <pt x="28" y="-1" on="1"/>
        <pt x="97" y="659" on="1"/>
        <pt x="196" y="659" on="1"/>
        <pt x="408" y="265" on="1"/>
        <pt x="449" y="655" on="1"/>
        <pt x="563" y="655" on="1"/>
        <pt x="497" y="15" on="1"/>
        <pt x="406" y="-15" on="1"/>
        <pt x="342" y="130" on="0"/>
      </contour>
      <contour>
        <pt x="339" y="706" on="1"/>
        <pt x="305" y="730" on="0"/>
        <pt x="297" y="729" on="1"/>
        <pt x="270" y="729" on="0"/>
        <pt x="224" y="681" on="1"/>
        <pt x="193" y="761" on="1"/>
        <pt x="239" y="812" on="0"/>
        <pt x="306" y="814" on="1"/>
        <pt x="337" y="815" on="0"/>
        <pt x="411" y="760" on="0"/>
        <pt x="421" y="760" on="1"/>
        <pt x="434" y="760" on="0"/>
        <pt x="476" y="792" on="1"/>
        <pt x="506" y="714" on="1"/>
        <pt x="489" y="698" on="0"/>
        <pt x="457" y="685" on="1"/>
        <pt x="429" y="675" on="0"/>
        <pt x="414" y="675" on="1"/>
        <pt x="384" y="675" on="0"/>
      </contour>
    </TTGlyph>
    <TTGlyph name="O" xMin="31" yMin="-16" xMax="631" yMax="662">
      <contour>
        <pt x="34" y="330" on="1"/>
        <pt x="48" y="473" on="0"/>
        <pt x="238" y="662" on="0"/>
        <pt x="370" y="662" on="1"/>
        <pt x="489" y="662" on="0"/>
        <pt x="631" y="502" on="0"/>
        <pt x="631" y="375" on="1"/>
        <pt x="631" y="353" on="0"/>
        <pt x="629" y="330" on="1"/>
        <pt x="612" y="167" on="0"/>
        <pt x="513" y="73" on="1"/>
        <pt x="422" y="-16" on="0"/>
        <pt x="291" y="-16" on="1"/>
        <pt x="174" y="-16" on="0"/>
        <pt x="104" y="58" on="1"/>
        <pt x="30" y="136" on="0"/>
        <pt x="31" y="273" on="1"/>
        <pt x="31" y="301" on="0"/>
      </contour>
      <contour>
        <pt x="159" y="283" on="1"/>
        <pt x="159" y="196" on="0"/>
        <pt x="197" y="137" on="1"/>
        <pt x="237" y="76" on="0"/>
        <pt x="301" y="76" on="1"/>
        <pt x="391" y="76" on="0"/>
        <pt x="451" y="177" on="1"/>
        <pt x="502" y="263" on="0"/>
        <pt x="502" y="360" on="1"/>
        <pt x="502" y="450" on="0"/>
        <pt x="465" y="509" on="1"/>
        <pt x="425" y="571" on="0"/>
        <pt x="358" y="571" on="1"/>
        <pt x="266" y="571" on="0"/>
        <pt x="208" y="469" on="1"/>
        <pt x="159" y="382" on="0"/>
      </contour>
    </TTGlyph>
    <TTGlyph name="OE" xMin="41" yMin="-3" xMax="1021" yMax="673">
      <contour>
        <pt x="581" y="161" on="1"/>
        <pt x="465" y="-3" on="0"/>
        <pt x="308" y="-3" on="1"/>
        <pt x="189" y="-3" on="0"/>
        <pt x="117" y="75" on="1"/>
        <pt x="41" y="154" on="0"/>
        <pt x="41" y="293" on="1"/>
        <pt x="41" y="320" on="0"/>
        <pt x="44" y="348" on="1"/>
        <pt x="59" y="491" on="0"/>
        <pt x="250" y="673" on="0"/>
        <pt x="386" y="673" on="1"/>
        <pt x="539" y="673" on="0"/>
        <pt x="618" y="522" on="1"/>
        <pt x="633" y="654" on="1"/>
        <pt x="1021" y="654" on="1"/>
        <pt x="1010" y="547" on="1"/>
        <pt x="716" y="547" on="1"/>
        <pt x="700" y="399" on="1"/>
        <pt x="985" y="399" on="1"/>
        <pt x="974" y="298" on="1"/>
        <pt x="689" y="298" on="1"/>
        <pt x="670" y="110" on="1"/>
        <pt x="964" y="110" on="1"/>
        <pt x="952" y="0" on="1"/>
        <pt x="564" y="0" on="1"/>
      </contour>
      <contour>
        <pt x="164" y="306" on="1"/>
        <pt x="164" y="219" on="0"/>
        <pt x="252" y="100" on="0"/>
        <pt x="319" y="100" on="1"/>
        <pt x="411" y="100" on="0"/>
        <pt x="475" y="194" on="1"/>
        <pt x="532" y="277" on="0"/>
        <pt x="532" y="373" on="1"/>
        <pt x="532" y="460" on="0"/>
        <pt x="446" y="571" on="0"/>
        <pt x="374" y="571" on="1"/>
        <pt x="280" y="571" on="0"/>
        <pt x="218" y="483" on="1"/>
        <pt x="164" y="404" on="0"/>
      </contour>
    </TTGlyph>
    <TTGlyph name="Oacute" xMin="26" yMin="-16" xMax="626" yMax="855">
      <contour>
        <pt x="29" y="330" on="1"/>
        <pt x="44" y="473" on="0"/>
        <pt x="232" y="662" on="0"/>
        <pt x="365" y="662" on="1"/>
        <pt x="485" y="662" on="0"/>
        <pt x="626" y="502" on="0"/>
        <pt x="626" y="376" on="1"/>
        <pt x="626" y="353" on="0"/>
        <pt x="624" y="330" on="1"/>
        <pt x="607" y="167" on="0"/>
        <pt x="509" y="73" on="1"/>
        <pt x="417" y="-16" on="0"/>
        <pt x="286" y="-16" on="1"/>
        <pt x="169" y="-16" on="0"/>
        <pt x="99" y="58" on="1"/>
        <pt x="25" y="136" on="0"/>
        <pt x="26" y="273" on="1"/>
        <pt x="26" y="301" on="0"/>
      </contour>
      <contour>
        <pt x="143" y="288" on="1"/>
        <pt x="143" y="202" on="0"/>
        <pt x="230" y="86" on="0"/>
        <pt x="297" y="86" on="1"/>
        <pt x="388" y="86" on="0"/>
        <pt x="451" y="177" on="1"/>
        <pt x="508" y="259" on="0"/>
        <pt x="508" y="354" on="1"/>
        <pt x="508" y="442" on="0"/>
        <pt x="422" y="561" on="0"/>
        <pt x="352" y="561" on="1"/>
        <pt x="260" y="561" on="0"/>
        <pt x="199" y="467" on="1"/>
        <pt x="143" y="384" on="0"/>
      </contour>
      <contour>
        <pt x="229" y="764" on="1"/>
        <pt x="460" y="855" on="1"/>
        <pt x="515" y="775" on="1"/>
        <pt x="287" y="690" on="1"/>
      </contour>
    </TTGlyph>
    <TTGlyph name="Ocircumflex" xMin="24" yMin="-16" xMax="625" yMax="886">
      <contour>
        <pt x="27" y="330" on="1"/>
        <pt x="42" y="473" on="0"/>
        <pt x="231" y="662" on="0"/>
        <pt x="362" y="662" on="1"/>
        <pt x="482" y="662" on="0"/>
        <pt x="625" y="502" on="0"/>
        <pt x="625" y="376" on="1"/>
        <pt x="625" y="353" on="0"/>
        <pt x="622" y="330" on="1"/>
        <pt x="606" y="167" on="0"/>
        <pt x="507" y="73" on="1"/>
        <pt x="415" y="-16" on="0"/>
        <pt x="285" y="-16" on="1"/>
        <pt x="168" y="-16" on="0"/>
        <pt x="97" y="58" on="1"/>
        <pt x="23" y="136" on="0"/>
        <pt x="24" y="273" on="1"/>
        <pt x="24" y="301" on="0"/>
      </contour>
      <contour>
        <pt x="142" y="288" on="1"/>
        <pt x="142" y="202" on="0"/>
        <pt x="228" y="86" on="0"/>
        <pt x="295" y="86" on="1"/>
        <pt x="387" y="86" on="0"/>
        <pt x="450" y="177" on="1"/>
        <pt x="506" y="259" on="0"/>
        <pt x="506" y="354" on="1"/>
        <pt x="506" y="442" on="0"/>
        <pt x="420" y="561" on="0"/>
        <pt x="350" y="561" on="1"/>
        <pt x="258" y="561" on="0"/>
        <pt x="197" y="467" on="1"/>
        <pt x="142" y="384" on="0"/>
      </contour>
      <contour>
        <pt x="225" y="677" on="1"/>
        <pt x="236" y="777" on="1"/>
        <pt x="388" y="886" on="1"/>
        <pt x="522" y="777" on="1"/>
        <pt x="512" y="678" on="1"/>
        <pt x="376" y="767" on="1"/>
      </contour>
    </TTGlyph>
    <TTGlyph name="Odieresis" xMin="27" yMin="-16" xMax="627" yMax="840">
      <contour>
        <pt x="30" y="330" on="1"/>
        <pt x="44" y="473" on="0"/>
        <pt x="233" y="662" on="0"/>
        <pt x="366" y="662" on="1"/>
        <pt x="485" y="662" on="0"/>
        <pt x="627" y="502" on="0"/>
        <pt x="627" y="376" on="1"/>
        <pt x="627" y="353" on="0"/>
        <pt x="625" y="330" on="1"/>
        <pt x="608" y="167" on="0"/>
        <pt x="509" y="73" on="1"/>
        <pt x="417" y="-16" on="0"/>
        <pt x="287" y="-16" on="1"/>
        <pt x="170" y="-16" on="0"/>
        <pt x="27" y="136" on="0"/>
        <pt x="27" y="273" on="1"/>
        <pt x="27" y="301" on="0"/>
      </contour>
      <contour>
        <pt x="144" y="288" on="1"/>
        <pt x="144" y="202" on="0"/>
        <pt x="231" y="86" on="0"/>
        <pt x="298" y="86" on="1"/>
        <pt x="389" y="86" on="0"/>
        <pt x="452" y="177" on="1"/>
        <pt x="508" y="259" on="0"/>
        <pt x="508" y="354" on="1"/>
        <pt x="508" y="442" on="0"/>
        <pt x="422" y="561" on="0"/>
        <pt x="352" y="561" on="1"/>
        <pt x="261" y="561" on="0"/>
        <pt x="199" y="467" on="1"/>
        <pt x="144" y="384" on="0"/>
      </contour>
      <contour>
        <pt x="415" y="766" on="1"/>
        <pt x="418" y="794" on="0"/>
        <pt x="437" y="814" on="1"/>
        <pt x="460" y="840" on="0"/>
        <pt x="495" y="840" on="1"/>
        <pt x="528" y="840" on="0"/>
        <pt x="546" y="814" on="1"/>
        <pt x="561" y="792" on="0"/>
        <pt x="558" y="766" on="1"/>
        <pt x="556" y="738" on="0"/>
        <pt x="536" y="717" on="1"/>
        <pt x="512" y="692" on="0"/>
        <pt x="479" y="692" on="1"/>
        <pt x="443" y="692" on="0"/>
        <pt x="427" y="717" on="1"/>
        <pt x="412" y="737" on="0"/>
      </contour>
      <contour>
        <pt x="200" y="766" on="1"/>
        <pt x="203" y="794" on="0"/>
        <pt x="222" y="814" on="1"/>
        <pt x="245" y="840" on="0"/>
        <pt x="280" y="840" on="1"/>
        <pt x="314" y="840" on="0"/>
        <pt x="331" y="814" on="1"/>
        <pt x="346" y="792" on="0"/>
        <pt x="343" y="766" on="1"/>
        <pt x="340" y="738" on="0"/>
        <pt x="321" y="717" on="1"/>
        <pt x="298" y="692" on="0"/>
        <pt x="264" y="692" on="1"/>
        <pt x="229" y="692" on="0"/>
        <pt x="212" y="717" on="1"/>
        <pt x="197" y="737" on="0"/>
      </contour>
    </TTGlyph>
    <TTGlyph name="Ograve" xMin="26" yMin="-16" xMax="626" yMax="861">
      <contour>
        <pt x="28" y="330" on="1"/>
        <pt x="43" y="473" on="0"/>
        <pt x="232" y="662" on="0"/>
        <pt x="365" y="662" on="1"/>
        <pt x="484" y="662" on="0"/>
        <pt x="626" y="502" on="0"/>
        <pt x="626" y="376" on="1"/>
        <pt x="626" y="353" on="0"/>
        <pt x="623" y="330" on="1"/>
        <pt x="607" y="167" on="0"/>
        <pt x="508" y="73" on="1"/>
        <pt x="416" y="-16" on="0"/>
        <pt x="286" y="-16" on="1"/>
        <pt x="169" y="-16" on="0"/>
        <pt x="26" y="136" on="0"/>
        <pt x="26" y="273" on="1"/>
        <pt x="26" y="301" on="0"/>
      </contour>
      <contour>
        <pt x="143" y="288" on="1"/>
        <pt x="143" y="202" on="0"/>
        <pt x="229" y="86" on="0"/>
        <pt x="296" y="86" on="1"/>
        <pt x="388" y="86" on="0"/>
        <pt x="451" y="177" on="1"/>
        <pt x="507" y="259" on="0"/>
        <pt x="507" y="354" on="1"/>
        <pt x="507" y="442" on="0"/>
        <pt x="421" y="561" on="0"/>
        <pt x="351" y="561" on="1"/>
        <pt x="260" y="561" on="0"/>
        <pt x="198" y="467" on="1"/>
        <pt x="143" y="384" on="0"/>
      </contour>
      <contour>
        <pt x="447" y="702" on="1"/>
        <pt x="243" y="795" on="1"/>
        <pt x="298" y="861" on="1"/>
        <pt x="503" y="763" on="1"/>
      </contour>
    </TTGlyph>
    <TTGlyph name="Omega" xMin="29" yMin="0" xMax="607" yMax="652">
      <contour>
        <pt x="403" y="101" on="1"/>
        <pt x="555" y="101" on="1"/>
        <pt x="545" y="0" on="1"/>
        <pt x="309" y="0" on="1"/>
        <pt x="331" y="208" on="1"/>
        <pt x="390" y="208" on="0"/>
        <pt x="438" y="260" on="1"/>
        <pt x="479" y="306" on="0"/>
        <pt x="484" y="355" on="1"/>
        <pt x="486" y="378" on="0"/>
        <pt x="486" y="398" on="1"/>
        <pt x="486" y="559" on="0"/>
        <pt x="349" y="560" on="1"/>
        <pt x="271" y="560" on="0"/>
        <pt x="172" y="453" on="0"/>
        <pt x="162" y="355" on="1"/>
        <pt x="156" y="302" on="0"/>
        <pt x="183" y="260" on="1"/>
        <pt x="216" y="208" on="0"/>
        <pt x="285" y="208" on="1"/>
        <pt x="263" y="0" on="1"/>
        <pt x="29" y="0" on="1"/>
        <pt x="39" y="101" on="1"/>
        <pt x="186" y="101" on="1"/>
        <pt x="189" y="128" on="1"/>
        <pt x="126" y="145" on="0"/>
        <pt x="44" y="272" on="0"/>
        <pt x="44" y="344" on="1"/>
        <pt x="44" y="483" on="0"/>
        <pt x="220" y="652" on="0"/>
        <pt x="359" y="652" on="1"/>
        <pt x="607" y="652" on="0"/>
        <pt x="607" y="416" on="1"/>
        <pt x="607" y="392" on="0"/>
        <pt x="604" y="366" on="1"/>
        <pt x="596" y="290" on="0"/>
        <pt x="539" y="218" on="1"/>
        <pt x="479" y="144" on="0"/>
        <pt x="407" y="128" on="1"/>
      </contour>
    </TTGlyph>
    <TTGlyph name="Oslash" xMin="32" yMin="-76" xMax="632" yMax="703">
      <contour>
        <pt x="35" y="330" on="1"/>
        <pt x="49" y="473" on="0"/>
        <pt x="239" y="662" on="0"/>
        <pt x="371" y="662" on="1"/>
        <pt x="393" y="662" on="0"/>
        <pt x="412" y="658" on="1"/>
        <pt x="430" y="703" on="1"/>
        <pt x="538" y="669" on="1"/>
        <pt x="517" y="618" on="1"/>
        <pt x="632" y="542" on="0"/>
        <pt x="632" y="376" on="1"/>
        <pt x="632" y="353" on="0"/>
        <pt x="630" y="330" on="1"/>
        <pt x="613" y="167" on="0"/>
        <pt x="514" y="73" on="1"/>
        <pt x="422" y="-16" on="0"/>
        <pt x="292" y="-16" on="1"/>
        <pt x="281" y="-16" on="0"/>
        <pt x="260" y="-14" on="1"/>
        <pt x="236" y="-76" on="1"/>
        <pt x="128" y="-41" on="1"/>
        <pt x="153" y="19" on="1"/>
        <pt x="32" y="93" on="0"/>
        <pt x="32" y="273" on="1"/>
        <pt x="32" y="301" on="0"/>
      </contour>
      <contour>
        <pt x="302" y="86" on="1"/>
        <pt x="303" y="86" on="1"/>
        <pt x="394" y="86" on="0"/>
        <pt x="457" y="177" on="1"/>
        <pt x="513" y="259" on="0"/>
        <pt x="513" y="354" on="1"/>
        <pt x="513" y="443" on="0"/>
        <pt x="470" y="502" on="1"/>
      </contour>
      <contour>
        <pt x="150" y="288" on="1"/>
        <pt x="150" y="196" on="0"/>
        <pt x="200" y="135" on="1"/>
        <pt x="372" y="560" on="1"/>
        <pt x="367" y="561" on="0"/>
        <pt x="357" y="561" on="1"/>
        <pt x="265" y="561" on="0"/>
        <pt x="204" y="468" on="1"/>
        <pt x="150" y="385" on="0"/>
      </contour>
    </TTGlyph>
    <TTGlyph name="Otilde" xMin="27" yMin="-16" xMax="628" yMax="824">
      <contour>
        <pt x="30" y="330" on="1"/>
        <pt x="45" y="473" on="0"/>
        <pt x="234" y="662" on="0"/>
        <pt x="366" y="662" on="1"/>
        <pt x="486" y="662" on="0"/>
        <pt x="628" y="502" on="0"/>
        <pt x="628" y="376" on="1"/>
        <pt x="628" y="353" on="0"/>
        <pt x="625" y="330" on="1"/>
        <pt x="609" y="167" on="0"/>
        <pt x="510" y="73" on="1"/>
        <pt x="418" y="-16" on="0"/>
        <pt x="288" y="-16" on="1"/>
        <pt x="171" y="-16" on="0"/>
        <pt x="100" y="58" on="1"/>
        <pt x="26" y="136" on="0"/>
        <pt x="27" y="273" on="1"/>
        <pt x="27" y="301" on="0"/>
      </contour>
      <contour>
        <pt x="145" y="288" on="1"/>
        <pt x="145" y="202" on="0"/>
        <pt x="231" y="86" on="0"/>
        <pt x="298" y="86" on="1"/>
        <pt x="390" y="86" on="0"/>
        <pt x="453" y="177" on="1"/>
        <pt x="509" y="259" on="0"/>
        <pt x="509" y="354" on="1"/>
        <pt x="509" y="442" on="0"/>
        <pt x="423" y="561" on="0"/>
        <pt x="353" y="561" on="1"/>
        <pt x="261" y="561" on="0"/>
        <pt x="200" y="467" on="1"/>
        <pt x="145" y="384" on="0"/>
      </contour>
      <contour>
        <pt x="340" y="716" on="1"/>
        <pt x="306" y="740" on="0"/>
        <pt x="297" y="739" on="1"/>
        <pt x="271" y="739" on="0"/>
        <pt x="224" y="691" on="1"/>
        <pt x="194" y="771" on="1"/>
        <pt x="239" y="822" on="0"/>
        <pt x="306" y="824" on="1"/>
        <pt x="338" y="825" on="0"/>
        <pt x="411" y="770" on="0"/>
        <pt x="422" y="770" on="1"/>
        <pt x="435" y="770" on="0"/>
        <pt x="477" y="802" on="1"/>
        <pt x="507" y="724" on="1"/>
        <pt x="489" y="708" on="0"/>
        <pt x="430" y="685" on="0"/>
        <pt x="415" y="685" on="1"/>
        <pt x="385" y="685" on="0"/>
      </contour>
    </TTGlyph>
    <TTGlyph name="P" xMin="30" yMin="0" xMax="473" yMax="659">
      <contour>
        <pt x="176" y="265" on="1"/>
        <pt x="148" y="0" on="1"/>
        <pt x="30" y="0" on="1"/>
        <pt x="99" y="656" on="1"/>
        <pt x="292" y="659" on="1"/>
        <pt x="370" y="660" on="0"/>
        <pt x="473" y="561" on="0"/>
        <pt x="473" y="484" on="1"/>
        <pt x="473" y="395" on="0"/>
        <pt x="394" y="328" on="1"/>
        <pt x="319" y="263" on="0"/>
        <pt x="228" y="263" on="1"/>
        <pt x="217" y="263" on="0"/>
      </contour>
      <contour>
        <pt x="210" y="583" on="1"/>
        <pt x="184" y="335" on="1"/>
        <pt x="217" y="335" on="1"/>
        <pt x="268" y="335" on="0"/>
        <pt x="348" y="410" on="0"/>
        <pt x="353" y="459" on="1"/>
        <pt x="354" y="470" on="0"/>
        <pt x="354" y="480" on="1"/>
        <pt x="354" y="575" on="0"/>
        <pt x="255" y="585" on="1"/>
        <pt x="248" y="586" on="0"/>
        <pt x="217" y="583" on="0"/>
      </contour>
    </TTGlyph>
    <TTGlyph name="Q" xMin="33" yMin="-80" xMax="654" yMax="662">
      <contour>
        <pt x="449" y="42" on="1"/>
        <pt x="363" y="-19" on="0"/>
        <pt x="295" y="-19" on="1"/>
        <pt x="178" y="-19" on="0"/>
        <pt x="33" y="135" on="0"/>
        <pt x="33" y="273" on="1"/>
        <pt x="33" y="300" on="0"/>
        <pt x="36" y="329" on="1"/>
        <pt x="51" y="473" on="0"/>
        <pt x="242" y="662" on="0"/>
        <pt x="374" y="662" on="1"/>
        <pt x="494" y="662" on="0"/>
        <pt x="637" y="504" on="0"/>
        <pt x="637" y="378" on="1"/>
        <pt x="637" y="213" on="0"/>
        <pt x="536" y="125" on="1"/>
        <pt x="654" y="6" on="1"/>
        <pt x="568" y="-80" on="1"/>
      </contour>
      <contour>
        <pt x="162" y="283" on="1"/>
        <pt x="162" y="196" on="0"/>
        <pt x="199" y="136" on="1"/>
        <pt x="239" y="74" on="0"/>
        <pt x="302" y="74" on="1"/>
        <pt x="345" y="74" on="0"/>
        <pt x="385" y="103" on="1"/>
        <pt x="313" y="168" on="1"/>
        <pt x="402" y="253" on="1"/>
        <pt x="467" y="189" on="1"/>
        <pt x="494" y="226" on="0"/>
        <pt x="504" y="323" on="1"/>
        <pt x="506" y="343" on="0"/>
        <pt x="506" y="364" on="1"/>
        <pt x="506" y="452" on="0"/>
        <pt x="470" y="509" on="1"/>
        <pt x="430" y="570" on="0"/>
        <pt x="362" y="570" on="1"/>
        <pt x="270" y="570" on="0"/>
        <pt x="212" y="469" on="1"/>
        <pt x="162" y="382" on="0"/>
      </contour>
    </TTGlyph>
    <TTGlyph name="R" xMin="31" yMin="-11" xMax="522" yMax="659">
      <contour>
        <pt x="200" y="269" on="1"/>
        <pt x="177" y="269" on="1"/>
        <pt x="150" y="0" on="1"/>
        <pt x="31" y="0" on="1"/>
        <pt x="99" y="656" on="1"/>
        <pt x="128" y="656" on="0"/>
        <pt x="206" y="658" on="1"/>
        <pt x="261" y="659" on="0"/>
        <pt x="297" y="659" on="1"/>
        <pt x="470" y="658" on="0"/>
        <pt x="470" y="501" on="1"/>
        <pt x="470" y="486" on="0"/>
        <pt x="468" y="469" on="1"/>
        <pt x="460" y="398" on="0"/>
        <pt x="414" y="346" on="1"/>
        <pt x="373" y="300" on="0"/>
        <pt x="316" y="283" on="1"/>
        <pt x="385" y="170" on="0"/>
        <pt x="522" y="16" on="1"/>
        <pt x="370" y="-11" on="1"/>
        <pt x="321" y="45" on="0"/>
        <pt x="275" y="123" on="1"/>
        <pt x="255" y="159" on="0"/>
      </contour>
      <contour>
        <pt x="211" y="583" on="1"/>
        <pt x="185" y="341" on="1"/>
        <pt x="227" y="341" on="1"/>
        <pt x="340" y="341" on="0"/>
        <pt x="353" y="470" on="1"/>
        <pt x="357" y="513" on="0"/>
        <pt x="344" y="543" on="1"/>
        <pt x="324" y="587" on="0"/>
        <pt x="266" y="585" on="1"/>
      </contour>
    </TTGlyph>
    <TTGlyph name="S" xMin="-2" yMin="-10" xMax="454" yMax="680">
      <contour>
        <pt x="-2" y="84" on="1"/>
        <pt x="61" y="163" on="1"/>
        <pt x="115" y="91" on="0"/>
        <pt x="195" y="91" on="1"/>
        <pt x="301" y="91" on="0"/>
        <pt x="312" y="196" on="1"/>
        <pt x="317" y="248" on="0"/>
        <pt x="189" y="305" on="0"/>
        <pt x="127" y="333" on="1"/>
        <pt x="58" y="378" on="0"/>
        <pt x="58" y="466" on="1"/>
        <pt x="58" y="481" on="0"/>
        <pt x="60" y="498" on="1"/>
        <pt x="69" y="582" on="0"/>
        <pt x="141" y="635" on="1"/>
        <pt x="201" y="680" on="0"/>
        <pt x="268" y="680" on="1"/>
        <pt x="374" y="680" on="0"/>
        <pt x="454" y="607" on="1"/>
        <pt x="403" y="521" on="1"/>
        <pt x="341" y="587" on="0"/>
        <pt x="279" y="587" on="1"/>
        <pt x="237" y="587" on="0"/>
        <pt x="216" y="570" on="1"/>
        <pt x="188" y="550" on="0"/>
        <pt x="183" y="497" on="1"/>
        <pt x="178" y="451" on="0"/>
        <pt x="242" y="423" on="1"/>
        <pt x="355" y="374" on="0"/>
        <pt x="365" y="368" on="1"/>
        <pt x="433" y="321" on="0"/>
        <pt x="432" y="228" on="1"/>
        <pt x="432" y="214" on="0"/>
        <pt x="430" y="198" on="1"/>
        <pt x="419" y="93" on="0"/>
        <pt x="344" y="37" on="1"/>
        <pt x="281" y="-10" on="0"/>
        <pt x="193" y="-10" on="1"/>
        <pt x="54" y="-10" on="0"/>
      </contour>
    </TTGlyph>
    <TTGlyph name="Scaron" xMin="-2" yMin="-10" xMax="477" yMax="879">
      <component glyphName="S" x="0" y="0" flags="0x1004"/>
      <component glyphName="caron" x="151" y="154" flags="0x1004"/>
    </TTGlyph>
    <TTGlyph name="T" xMin="57" yMin="0" xMax="551" yMax="654">
      <contour>
        <pt x="305" y="0" on="1"/>
        <pt x="183" y="0" on="1"/>
        <pt x="244" y="571" on="1"/>
        <pt x="57" y="571" on="1"/>
        <pt x="67" y="654" on="1"/>
        <pt x="551" y="654" on="1"/>
        <pt x="542" y="571" on="1"/>
        <pt x="366" y="571" on="1"/>
      </contour>
    </TTGlyph>
    <TTGlyph name="Thorn" xMin="18" yMin="-111" xMax="519" yMax="717">
      <contour>
        <pt x="166" y="184" on="1"/>
        <pt x="135" y="-111" on="1"/>
        <pt x="18" y="-111" on="1"/>
        <pt x="104" y="717" on="1"/>
        <pt x="221" y="717" on="1"/>
        <pt x="213" y="634" on="1"/>
        <pt x="286" y="693" on="0"/>
        <pt x="325" y="693" on="1"/>
        <pt x="420" y="693" on="0"/>
        <pt x="473" y="618" on="1"/>
        <pt x="519" y="552" on="0"/>
        <pt x="519" y="454" on="1"/>
        <pt x="519" y="436" on="0"/>
        <pt x="518" y="417" on="1"/>
        <pt x="504" y="273" on="0"/>
        <pt x="430" y="200" on="1"/>
        <pt x="367" y="137" on="0"/>
        <pt x="268" y="136" on="1"/>
        <pt x="241" y="136" on="0"/>
        <pt x="191" y="168" on="0"/>
      </contour>
      <contour>
        <pt x="201" y="522" on="1"/>
        <pt x="176" y="287" on="1"/>
        <pt x="189" y="264" on="0"/>
        <pt x="245" y="231" on="0"/>
        <pt x="273" y="231" on="1"/>
        <pt x="336" y="231" on="0"/>
        <pt x="372" y="307" on="1"/>
        <pt x="400" y="365" on="0"/>
        <pt x="399" y="439" on="1"/>
        <pt x="399" y="504" on="0"/>
        <pt x="376" y="544" on="1"/>
        <pt x="349" y="590" on="0"/>
        <pt x="296" y="590" on="1"/>
        <pt x="242" y="590" on="0"/>
      </contour>
    </TTGlyph>
    <TTGlyph name="U" xMin="54" yMin="-17" xMax="597" yMax="655">
      <contour>
        <pt x="269" y="-17" on="1"/>
        <pt x="181" y="-17" on="0"/>
        <pt x="123" y="34" on="1"/>
        <pt x="54" y="93" on="0"/>
        <pt x="54" y="202" on="1"/>
        <pt x="54" y="221" on="0"/>
        <pt x="56" y="241" on="1"/>
        <pt x="100" y="655" on="1"/>
        <pt x="222" y="655" on="1"/>
        <pt x="178" y="241" on="1"/>
        <pt x="177" y="228" on="0"/>
        <pt x="177" y="215" on="1"/>
        <pt x="177" y="145" on="0"/>
        <pt x="216" y="105" on="1"/>
        <pt x="250" y="72" on="0"/>
        <pt x="292" y="73" on="1"/>
        <pt x="337" y="73" on="0"/>
        <pt x="376" y="113" on="1"/>
        <pt x="423" y="160" on="0"/>
        <pt x="431" y="241" on="1"/>
        <pt x="475" y="655" on="1"/>
        <pt x="597" y="655" on="1"/>
        <pt x="553" y="241" on="1"/>
        <pt x="540" y="113" on="0"/>
        <pt x="446" y="42" on="1"/>
        <pt x="368" y="-17" on="0"/>
      </contour>
    </TTGlyph>
    <TTGlyph name="Uacute" xMin="48" yMin="-17" xMax="550" yMax="855">
      <contour>
        <pt x="244" y="-17" on="1"/>
        <pt x="159" y="-17" on="0"/>
        <pt x="108" y="33" on="1"/>
        <pt x="49" y="89" on="0"/>
        <pt x="48" y="196" on="1"/>
        <pt x="48" y="218" on="0"/>
        <pt x="51" y="241" on="1"/>
        <pt x="94" y="655" on="1"/>
        <pt x="216" y="655" on="1"/>
        <pt x="173" y="241" on="1"/>
        <pt x="171" y="222" on="0"/>
        <pt x="171" y="203" on="1"/>
        <pt x="171" y="83" on="0"/>
        <pt x="257" y="83" on="1"/>
        <pt x="302" y="83" on="0"/>
        <pt x="336" y="118" on="1"/>
        <pt x="376" y="160" on="0"/>
        <pt x="385" y="241" on="1"/>
        <pt x="428" y="655" on="1"/>
        <pt x="550" y="655" on="1"/>
        <pt x="507" y="241" on="1"/>
        <pt x="493" y="112" on="0"/>
        <pt x="411" y="42" on="1"/>
        <pt x="340" y="-17" on="0"/>
      </contour>
      <contour>
        <pt x="186" y="764" on="1"/>
        <pt x="417" y="855" on="1"/>
        <pt x="472" y="775" on="1"/>
        <pt x="244" y="690" on="1"/>
      </contour>
    </TTGlyph>
    <TTGlyph name="Ucircumflex" xMin="47" yMin="-17" xMax="549" yMax="886">
      <contour>
        <pt x="243" y="-17" on="1"/>
        <pt x="158" y="-17" on="0"/>
        <pt x="105" y="33" on="1"/>
        <pt x="47" y="89" on="0"/>
        <pt x="47" y="196" on="1"/>
        <pt x="47" y="218" on="0"/>
        <pt x="49" y="241" on="1"/>
        <pt x="93" y="655" on="1"/>
        <pt x="215" y="655" on="1"/>
        <pt x="171" y="241" on="1"/>
        <pt x="169" y="222" on="0"/>
        <pt x="169" y="203" on="1"/>
        <pt x="169" y="83" on="0"/>
        <pt x="255" y="83" on="1"/>
        <pt x="300" y="83" on="0"/>
        <pt x="334" y="118" on="1"/>
        <pt x="375" y="160" on="0"/>
        <pt x="383" y="241" on="1"/>
        <pt x="427" y="655" on="1"/>
        <pt x="549" y="655" on="1"/>
        <pt x="505" y="241" on="1"/>
        <pt x="492" y="112" on="0"/>
        <pt x="409" y="42" on="1"/>
        <pt x="338" y="-17" on="0"/>
      </contour>
      <contour>
        <pt x="175" y="687" on="1"/>
        <pt x="184" y="777" on="1"/>
        <pt x="337" y="886" on="1"/>
        <pt x="471" y="777" on="1"/>
        <pt x="462" y="688" on="1"/>
        <pt x="325" y="767" on="1"/>
      </contour>
    </TTGlyph>
    <TTGlyph name="Udieresis" xMin="49" yMin="-17" xMax="551" yMax="840">
      <contour>
        <pt x="245" y="-17" on="1"/>
        <pt x="160" y="-17" on="0"/>
        <pt x="108" y="33" on="1"/>
        <pt x="50" y="89" on="0"/>
        <pt x="49" y="196" on="1"/>
        <pt x="49" y="218" on="0"/>
        <pt x="52" y="241" on="1"/>
        <pt x="95" y="655" on="1"/>
        <pt x="217" y="655" on="1"/>
        <pt x="174" y="241" on="1"/>
        <pt x="171" y="222" on="0"/>
        <pt x="171" y="203" on="1"/>
        <pt x="171" y="83" on="0"/>
        <pt x="257" y="83" on="1"/>
        <pt x="302" y="83" on="0"/>
        <pt x="337" y="118" on="1"/>
        <pt x="377" y="160" on="0"/>
        <pt x="386" y="241" on="1"/>
        <pt x="429" y="655" on="1"/>
        <pt x="551" y="655" on="1"/>
        <pt x="508" y="241" on="1"/>
        <pt x="494" y="112" on="0"/>
        <pt x="411" y="42" on="1"/>
        <pt x="340" y="-17" on="0"/>
      </contour>
      <contour>
        <pt x="360" y="766" on="1"/>
        <pt x="363" y="793" on="0"/>
        <pt x="383" y="814" on="1"/>
        <pt x="406" y="840" on="0"/>
        <pt x="474" y="840" on="0"/>
        <pt x="492" y="814" on="1"/>
        <pt x="507" y="792" on="0"/>
        <pt x="504" y="766" on="1"/>
        <pt x="502" y="738" on="0"/>
        <pt x="481" y="717" on="1"/>
        <pt x="458" y="692" on="0"/>
        <pt x="425" y="692" on="1"/>
        <pt x="390" y="692" on="0"/>
        <pt x="373" y="717" on="1"/>
        <pt x="358" y="737" on="0"/>
      </contour>
      <contour>
        <pt x="146" y="766" on="1"/>
        <pt x="149" y="794" on="0"/>
        <pt x="169" y="814" on="1"/>
        <pt x="192" y="840" on="0"/>
        <pt x="226" y="840" on="1"/>
        <pt x="259" y="840" on="0"/>
        <pt x="278" y="814" on="1"/>
        <pt x="292" y="792" on="0"/>
        <pt x="289" y="766" on="1"/>
        <pt x="287" y="738" on="0"/>
        <pt x="266" y="717" on="1"/>
        <pt x="243" y="692" on="0"/>
        <pt x="211" y="692" on="1"/>
        <pt x="175" y="692" on="0"/>
        <pt x="159" y="717" on="1"/>
        <pt x="143" y="737" on="0"/>
      </contour>
    </TTGlyph>
    <TTGlyph name="Ugrave" xMin="48" yMin="-17" xMax="550" yMax="861">
      <contour>
        <pt x="244" y="-17" on="1"/>
        <pt x="159" y="-17" on="0"/>
        <pt x="106" y="33" on="1"/>
        <pt x="48" y="89" on="0"/>
        <pt x="48" y="196" on="1"/>
        <pt x="48" y="218" on="0"/>
        <pt x="50" y="241" on="1"/>
        <pt x="94" y="655" on="1"/>
        <pt x="216" y="655" on="1"/>
        <pt x="172" y="241" on="1"/>
        <pt x="170" y="222" on="0"/>
        <pt x="170" y="203" on="1"/>
        <pt x="170" y="83" on="0"/>
        <pt x="256" y="83" on="1"/>
        <pt x="301" y="83" on="0"/>
        <pt x="335" y="118" on="1"/>
        <pt x="376" y="160" on="0"/>
        <pt x="384" y="241" on="1"/>
        <pt x="428" y="655" on="1"/>
        <pt x="550" y="655" on="1"/>
        <pt x="506" y="241" on="1"/>
        <pt x="493" y="112" on="0"/>
        <pt x="410" y="42" on="1"/>
        <pt x="339" y="-17" on="0"/>
      </contour>
      <contour>
        <pt x="404" y="702" on="1"/>
        <pt x="200" y="795" on="1"/>
        <pt x="255" y="861" on="1"/>
        <pt x="460" y="763" on="1"/>
      </contour>
    </TTGlyph>
    <TTGlyph name="V" xMin="41" yMin="-10" xMax="580" yMax="674">
      <contour>
        <pt x="197" y="-10" on="1"/>
        <pt x="41" y="641" on="1"/>
        <pt x="171" y="673" on="1"/>
        <pt x="279" y="191" on="1"/>
        <pt x="477" y="674" on="1"/>
        <pt x="580" y="640" on="1"/>
        <pt x="286" y="-10" on="1"/>
      </contour>
    </TTGlyph>
    <TTGlyph name="W" xMin="44" yMin="-6" xMax="834" yMax="665">
      <contour>
        <pt x="507" y="-6" on="1"/>
        <pt x="425" y="406" on="1"/>
        <pt x="250" y="-6" on="1"/>
        <pt x="160" y="-6" on="1"/>
        <pt x="44" y="637" on="1"/>
        <pt x="182" y="664" on="1"/>
        <pt x="250" y="213" on="1"/>
        <pt x="409" y="651" on="1"/>
        <pt x="514" y="651" on="1"/>
        <pt x="581" y="214" on="1"/>
        <pt x="734" y="665" on="1"/>
        <pt x="834" y="636" on="1"/>
        <pt x="587" y="-6" on="1"/>
      </contour>
    </TTGlyph>
    <TTGlyph name="X" xMin="-6" yMin="-31" xMax="555" yMax="680">
      <contour>
        <pt x="273" y="250" on="1"/>
        <pt x="103" y="-31" on="1"/>
        <pt x="-6" y="10" on="1"/>
        <pt x="220" y="325" on="1"/>
        <pt x="71" y="636" on="1"/>
        <pt x="194" y="678" on="1"/>
        <pt x="300" y="417" on="1"/>
        <pt x="464" y="680" on="1"/>
        <pt x="555" y="635" on="1"/>
        <pt x="343" y="337" on="1"/>
        <pt x="527" y="10" on="1"/>
        <pt x="395" y="-26" on="1"/>
      </contour>
    </TTGlyph>
    <TTGlyph name="Y" xMin="43" yMin="0" xMax="535" yMax="670">
      <contour>
        <pt x="283" y="0" on="1"/>
        <pt x="162" y="0" on="1"/>
        <pt x="190" y="278" on="1"/>
        <pt x="43" y="636" on="1"/>
        <pt x="172" y="670" on="1"/>
        <pt x="274" y="380" on="1"/>
        <pt x="443" y="670" on="1"/>
        <pt x="535" y="636" on="1"/>
        <pt x="311" y="278" on="1"/>
      </contour>
    </TTGlyph>
    <TTGlyph name="Yacute" xMin="51" yMin="0" xMax="522" yMax="804">
      <contour>
        <pt x="282" y="0" on="1"/>
        <pt x="160" y="0" on="1"/>
        <pt x="188" y="278" on="1"/>
        <pt x="51" y="636" on="1"/>
        <pt x="167" y="670" on="1"/>
        <pt x="263" y="384" on="1"/>
        <pt x="417" y="670" on="1"/>
        <pt x="522" y="636" on="1"/>
        <pt x="310" y="278" on="1"/>
      </contour>
      <contour>
        <pt x="173" y="713" on="1"/>
        <pt x="401" y="804" on="1"/>
        <pt x="457" y="724" on="1"/>
        <pt x="228" y="639" on="1"/>
      </contour>
    </TTGlyph>
    <TTGlyph name="Ydieresis" xMin="49" yMin="0" xMax="520" yMax="850">
      <contour>
        <pt x="279" y="0" on="1"/>
        <pt x="157" y="0" on="1"/>
        <pt x="186" y="278" on="1"/>
        <pt x="49" y="636" on="1"/>
        <pt x="165" y="670" on="1"/>
        <pt x="261" y="384" on="1"/>
        <pt x="415" y="670" on="1"/>
        <pt x="520" y="636" on="1"/>
        <pt x="308" y="278" on="1"/>
      </contour>
      <contour>
        <pt x="350" y="776" on="1"/>
        <pt x="353" y="804" on="0"/>
        <pt x="372" y="824" on="1"/>
        <pt x="395" y="850" on="0"/>
        <pt x="430" y="850" on="1"/>
        <pt x="463" y="850" on="0"/>
        <pt x="481" y="824" on="1"/>
        <pt x="496" y="802" on="0"/>
        <pt x="494" y="776" on="1"/>
        <pt x="491" y="748" on="0"/>
        <pt x="471" y="727" on="1"/>
        <pt x="447" y="702" on="0"/>
        <pt x="414" y="702" on="1"/>
        <pt x="379" y="702" on="0"/>
        <pt x="361" y="727" on="1"/>
        <pt x="347" y="747" on="0"/>
      </contour>
      <contour>
        <pt x="135" y="776" on="1"/>
        <pt x="138" y="804" on="0"/>
        <pt x="157" y="824" on="1"/>
        <pt x="180" y="850" on="0"/>
        <pt x="215" y="850" on="1"/>
        <pt x="249" y="850" on="0"/>
        <pt x="266" y="824" on="1"/>
        <pt x="281" y="802" on="0"/>
        <pt x="279" y="776" on="1"/>
        <pt x="276" y="748" on="0"/>
        <pt x="256" y="727" on="1"/>
        <pt x="233" y="702" on="0"/>
        <pt x="165" y="702" on="0"/>
        <pt x="147" y="727" on="1"/>
        <pt x="132" y="747" on="0"/>
      </contour>
    </TTGlyph>
    <TTGlyph name="Z" xMin="9" yMin="0" xMax="531" yMax="654">
      <contour>
        <pt x="466" y="101" on="1"/>
        <pt x="455" y="0" on="1"/>
        <pt x="28" y="0" on="1"/>
        <pt x="9" y="76" on="1"/>
        <pt x="375" y="563" on="1"/>
        <pt x="94" y="561" on="1"/>
        <pt x="104" y="654" on="1"/>
        <pt x="517" y="654" on="1"/>
        <pt x="531" y="568" on="1"/>
        <pt x="175" y="101" on="1"/>
      </contour>
    </TTGlyph>
    <TTGlyph name="Zcaron" xMin="33" yMin="0" xMax="523" yMax="886">
      <contour>
        <pt x="459" y="101" on="1"/>
        <pt x="449" y="0" on="1"/>
        <pt x="33" y="0" on="1"/>
        <pt x="33" y="88" on="1"/>
        <pt x="368" y="563" on="1"/>
        <pt x="98" y="561" on="1"/>
        <pt x="109" y="654" on="1"/>
        <pt x="510" y="654" on="1"/>
        <pt x="512" y="571" on="1"/>
        <pt x="178" y="101" on="1"/>
      </contour>
      <contour>
        <pt x="523" y="886" on="1"/>
        <pt x="513" y="785" on="1"/>
        <pt x="361" y="677" on="1"/>
        <pt x="226" y="785" on="1"/>
        <pt x="237" y="885" on="1"/>
        <pt x="373" y="796" on="1"/>
      </contour>
    </TTGlyph>
    <TTGlyph name="a" xMin="29" yMin="-16" xMax="467" yMax="524">
      <contour>
        <pt x="303" y="228" on="1"/>
        <pt x="272" y="228" on="0"/>
        <pt x="227" y="220" on="1"/>
        <pt x="178" y="212" on="0"/>
        <pt x="161" y="201" on="1"/>
        <pt x="134" y="186" on="0"/>
        <pt x="129" y="140" on="1"/>
        <pt x="126" y="111" on="0"/>
        <pt x="159" y="68" on="0"/>
        <pt x="183" y="68" on="1"/>
        <pt x="244" y="68" on="0"/>
        <pt x="291" y="117" on="1"/>
      </contour>
      <contour>
        <pt x="296" y="55" on="1"/>
        <pt x="249" y="17" on="0"/>
        <pt x="231" y="6" on="1"/>
        <pt x="194" y="-17" on="0"/>
        <pt x="161" y="-16" on="1"/>
        <pt x="105" y="-16" on="0"/>
        <pt x="29" y="55" on="0"/>
        <pt x="29" y="118" on="1"/>
        <pt x="29" y="128" on="0"/>
        <pt x="30" y="139" on="1"/>
        <pt x="39" y="224" on="0"/>
        <pt x="92" y="260" on="1"/>
        <pt x="126" y="282" on="0"/>
        <pt x="221" y="300" on="1"/>
        <pt x="269" y="309" on="0"/>
        <pt x="309" y="313" on="1"/>
        <pt x="315" y="367" on="1"/>
        <pt x="317" y="390" on="0"/>
        <pt x="285" y="429" on="0"/>
        <pt x="260" y="429" on="1"/>
        <pt x="167" y="429" on="0"/>
        <pt x="101" y="359" on="1"/>
        <pt x="63" y="422" on="1"/>
        <pt x="96" y="468" on="0"/>
        <pt x="163" y="498" on="1"/>
        <pt x="221" y="525" on="0"/>
        <pt x="270" y="524" on="1"/>
        <pt x="343" y="524" on="0"/>
        <pt x="432" y="430" on="0"/>
        <pt x="425" y="357" on="1"/>
        <pt x="397" y="100" on="1"/>
        <pt x="397" y="94" on="0"/>
        <pt x="411" y="78" on="0"/>
        <pt x="419" y="78" on="1"/>
        <pt x="452" y="78" on="0"/>
        <pt x="463" y="88" on="1"/>
        <pt x="467" y="23" on="1"/>
        <pt x="400" y="-11" on="0"/>
        <pt x="364" y="-11" on="1"/>
        <pt x="348" y="-11" on="0"/>
        <pt x="326" y="7" on="1"/>
        <pt x="300" y="28" on="0"/>
      </contour>
    </TTGlyph>
    <TTGlyph name="aacute" xMin="29" yMin="-16" xMax="467" yMax="732">
      <contour>
        <pt x="159" y="641" on="1"/>
        <pt x="388" y="732" on="1"/>
        <pt x="443" y="652" on="1"/>
        <pt x="215" y="567" on="1"/>
      </contour>
      <contour>
        <pt x="303" y="228" on="1"/>
        <pt x="272" y="228" on="0"/>
        <pt x="227" y="220" on="1"/>
        <pt x="178" y="212" on="0"/>
        <pt x="161" y="201" on="1"/>
        <pt x="134" y="186" on="0"/>
        <pt x="129" y="140" on="1"/>
        <pt x="126" y="111" on="0"/>
        <pt x="159" y="68" on="0"/>
        <pt x="183" y="68" on="1"/>
        <pt x="244" y="68" on="0"/>
        <pt x="291" y="117" on="1"/>
      </contour>
      <contour>
        <pt x="296" y="55" on="1"/>
        <pt x="249" y="17" on="0"/>
        <pt x="231" y="6" on="1"/>
        <pt x="194" y="-17" on="0"/>
        <pt x="161" y="-16" on="1"/>
        <pt x="105" y="-16" on="0"/>
        <pt x="29" y="55" on="0"/>
        <pt x="29" y="118" on="1"/>
        <pt x="29" y="128" on="0"/>
        <pt x="30" y="139" on="1"/>
        <pt x="39" y="224" on="0"/>
        <pt x="92" y="260" on="1"/>
        <pt x="126" y="282" on="0"/>
        <pt x="221" y="300" on="1"/>
        <pt x="269" y="309" on="0"/>
        <pt x="309" y="313" on="1"/>
        <pt x="315" y="367" on="1"/>
        <pt x="317" y="390" on="0"/>
        <pt x="285" y="429" on="0"/>
        <pt x="260" y="429" on="1"/>
        <pt x="167" y="429" on="0"/>
        <pt x="101" y="359" on="1"/>
        <pt x="63" y="422" on="1"/>
        <pt x="96" y="468" on="0"/>
        <pt x="163" y="498" on="1"/>
        <pt x="221" y="525" on="0"/>
        <pt x="270" y="524" on="1"/>
        <pt x="343" y="524" on="0"/>
        <pt x="432" y="430" on="0"/>
        <pt x="425" y="357" on="1"/>
        <pt x="397" y="100" on="1"/>
        <pt x="397" y="94" on="0"/>
        <pt x="411" y="78" on="0"/>
        <pt x="419" y="78" on="1"/>
        <pt x="452" y="78" on="0"/>
        <pt x="463" y="88" on="1"/>
        <pt x="467" y="23" on="1"/>
        <pt x="400" y="-11" on="0"/>
        <pt x="364" y="-11" on="1"/>
        <pt x="348" y="-11" on="0"/>
        <pt x="326" y="7" on="1"/>
        <pt x="300" y="28" on="0"/>
      </contour>
    </TTGlyph>
    <TTGlyph name="acircumflex" xMin="29" yMin="-16" xMax="467" yMax="732">
      <contour>
        <pt x="136" y="534" on="1"/>
        <pt x="145" y="624" on="1"/>
        <pt x="298" y="732" on="1"/>
        <pt x="432" y="624" on="1"/>
        <pt x="423" y="535" on="1"/>
        <pt x="286" y="613" on="1"/>
      </contour>
      <contour>
        <pt x="303" y="228" on="1"/>
        <pt x="272" y="228" on="0"/>
        <pt x="227" y="220" on="1"/>
        <pt x="178" y="212" on="0"/>
        <pt x="161" y="201" on="1"/>
        <pt x="134" y="186" on="0"/>
        <pt x="129" y="140" on="1"/>
        <pt x="126" y="111" on="0"/>
        <pt x="159" y="68" on="0"/>
        <pt x="183" y="68" on="1"/>
        <pt x="244" y="68" on="0"/>
        <pt x="291" y="117" on="1"/>
      </contour>
      <contour>
        <pt x="296" y="55" on="1"/>
        <pt x="249" y="17" on="0"/>
        <pt x="231" y="6" on="1"/>
        <pt x="194" y="-17" on="0"/>
        <pt x="161" y="-16" on="1"/>
        <pt x="105" y="-16" on="0"/>
        <pt x="29" y="55" on="0"/>
        <pt x="29" y="118" on="1"/>
        <pt x="29" y="128" on="0"/>
        <pt x="30" y="139" on="1"/>
        <pt x="39" y="224" on="0"/>
        <pt x="92" y="260" on="1"/>
        <pt x="126" y="282" on="0"/>
        <pt x="221" y="300" on="1"/>
        <pt x="269" y="309" on="0"/>
        <pt x="309" y="313" on="1"/>
        <pt x="315" y="367" on="1"/>
        <pt x="317" y="390" on="0"/>
        <pt x="285" y="429" on="0"/>
        <pt x="260" y="429" on="1"/>
        <pt x="167" y="429" on="0"/>
        <pt x="101" y="359" on="1"/>
        <pt x="63" y="422" on="1"/>
        <pt x="96" y="468" on="0"/>
        <pt x="163" y="498" on="1"/>
        <pt x="221" y="525" on="0"/>
        <pt x="270" y="524" on="1"/>
        <pt x="343" y="524" on="0"/>
        <pt x="432" y="430" on="0"/>
        <pt x="425" y="357" on="1"/>
        <pt x="397" y="100" on="1"/>
        <pt x="397" y="94" on="0"/>
        <pt x="411" y="78" on="0"/>
        <pt x="419" y="78" on="1"/>
        <pt x="452" y="78" on="0"/>
        <pt x="463" y="88" on="1"/>
        <pt x="467" y="23" on="1"/>
        <pt x="400" y="-11" on="0"/>
        <pt x="364" y="-11" on="1"/>
        <pt x="348" y="-11" on="0"/>
        <pt x="326" y="7" on="1"/>
        <pt x="300" y="28" on="0"/>
      </contour>
    </TTGlyph>
    <TTGlyph name="acute" xMin="47" yMin="567" xMax="301" yMax="732">
      <contour>
        <pt x="47" y="641" on="1"/>
        <pt x="276" y="732" on="1"/>
        <pt x="301" y="652" on="1"/>
        <pt x="74" y="567" on="1"/>
      </contour>
    </TTGlyph>
    <TTGlyph name="adieresis" xMin="29" yMin="-16" xMax="467" yMax="686">
      <contour>
        <pt x="321" y="612" on="1"/>
        <pt x="324" y="640" on="0"/>
        <pt x="343" y="660" on="1"/>
        <pt x="366" y="686" on="0"/>
        <pt x="400" y="686" on="1"/>
        <pt x="433" y="686" on="0"/>
        <pt x="452" y="660" on="1"/>
        <pt x="467" y="638" on="0"/>
        <pt x="464" y="612" on="1"/>
        <pt x="462" y="584" on="0"/>
        <pt x="441" y="563" on="1"/>
        <pt x="418" y="538" on="0"/>
        <pt x="385" y="539" on="1"/>
        <pt x="349" y="539" on="0"/>
        <pt x="333" y="563" on="1"/>
        <pt x="319" y="583" on="0"/>
      </contour>
      <contour>
        <pt x="105" y="612" on="1"/>
        <pt x="108" y="640" on="0"/>
        <pt x="128" y="660" on="1"/>
        <pt x="151" y="686" on="0"/>
        <pt x="219" y="686" on="0"/>
        <pt x="237" y="660" on="1"/>
        <pt x="252" y="638" on="0"/>
        <pt x="249" y="612" on="1"/>
        <pt x="247" y="584" on="0"/>
        <pt x="226" y="563" on="1"/>
        <pt x="203" y="538" on="0"/>
        <pt x="170" y="539" on="1"/>
        <pt x="135" y="539" on="0"/>
        <pt x="118" y="563" on="1"/>
        <pt x="103" y="583" on="0"/>
      </contour>
      <contour>
        <pt x="303" y="228" on="1"/>
        <pt x="272" y="228" on="0"/>
        <pt x="227" y="220" on="1"/>
        <pt x="178" y="212" on="0"/>
        <pt x="161" y="201" on="1"/>
        <pt x="134" y="186" on="0"/>
        <pt x="129" y="140" on="1"/>
        <pt x="126" y="111" on="0"/>
        <pt x="159" y="68" on="0"/>
        <pt x="183" y="68" on="1"/>
        <pt x="244" y="68" on="0"/>
        <pt x="291" y="117" on="1"/>
      </contour>
      <contour>
        <pt x="296" y="55" on="1"/>
        <pt x="249" y="17" on="0"/>
        <pt x="231" y="6" on="1"/>
        <pt x="194" y="-17" on="0"/>
        <pt x="161" y="-16" on="1"/>
        <pt x="105" y="-16" on="0"/>
        <pt x="29" y="55" on="0"/>
        <pt x="29" y="118" on="1"/>
        <pt x="29" y="128" on="0"/>
        <pt x="30" y="139" on="1"/>
        <pt x="39" y="224" on="0"/>
        <pt x="92" y="260" on="1"/>
        <pt x="126" y="282" on="0"/>
        <pt x="221" y="300" on="1"/>
        <pt x="269" y="309" on="0"/>
        <pt x="309" y="313" on="1"/>
        <pt x="315" y="367" on="1"/>
        <pt x="317" y="390" on="0"/>
        <pt x="285" y="429" on="0"/>
        <pt x="260" y="429" on="1"/>
        <pt x="167" y="429" on="0"/>
        <pt x="101" y="359" on="1"/>
        <pt x="63" y="422" on="1"/>
        <pt x="96" y="468" on="0"/>
        <pt x="163" y="498" on="1"/>
        <pt x="221" y="525" on="0"/>
        <pt x="270" y="524" on="1"/>
        <pt x="343" y="524" on="0"/>
        <pt x="432" y="430" on="0"/>
        <pt x="425" y="357" on="1"/>
        <pt x="397" y="100" on="1"/>
        <pt x="397" y="94" on="0"/>
        <pt x="411" y="78" on="0"/>
        <pt x="419" y="78" on="1"/>
        <pt x="452" y="78" on="0"/>
        <pt x="463" y="88" on="1"/>
        <pt x="467" y="23" on="1"/>
        <pt x="400" y="-11" on="0"/>
        <pt x="364" y="-11" on="1"/>
        <pt x="348" y="-11" on="0"/>
        <pt x="326" y="7" on="1"/>
        <pt x="300" y="28" on="0"/>
      </contour>
    </TTGlyph>
    <TTGlyph name="ae" xMin="29" yMin="-16" xMax="751" yMax="524">
      <contour>
        <pt x="573" y="439" on="1"/>
        <pt x="518" y="439" on="0"/>
        <pt x="489" y="412" on="1"/>
        <pt x="467" y="392" on="0"/>
        <pt x="445" y="333" on="1"/>
        <pt x="638" y="333" on="1"/>
        <pt x="638" y="334" on="1"/>
        <pt x="640" y="347" on="0"/>
        <pt x="640" y="359" on="1"/>
        <pt x="640" y="439" on="0"/>
      </contour>
      <contour>
        <pt x="260" y="-1" on="1"/>
        <pt x="218" y="-16" on="0"/>
        <pt x="166" y="-16" on="1"/>
        <pt x="108" y="-16" on="0"/>
        <pt x="70" y="18" on="1"/>
        <pt x="29" y="55" on="0"/>
        <pt x="29" y="119" on="1"/>
        <pt x="29" y="129" on="0"/>
        <pt x="30" y="139" on="1"/>
        <pt x="39" y="224" on="0"/>
        <pt x="95" y="263" on="1"/>
        <pt x="131" y="288" on="0"/>
        <pt x="227" y="310" on="1"/>
        <pt x="268" y="319" on="0"/>
        <pt x="318" y="327" on="1"/>
        <pt x="324" y="367" on="1"/>
        <pt x="326" y="389" on="0"/>
        <pt x="292" y="419" on="0"/>
        <pt x="266" y="419" on="1"/>
        <pt x="219" y="419" on="0"/>
        <pt x="126" y="349" on="1"/>
        <pt x="72" y="432" on="1"/>
        <pt x="118" y="470" on="0"/>
        <pt x="183" y="499" on="1"/>
        <pt x="244" y="525" on="0"/>
        <pt x="278" y="524" on="1"/>
        <pt x="370" y="524" on="0"/>
        <pt x="414" y="457" on="1"/>
        <pt x="486" y="519" on="0"/>
        <pt x="588" y="519" on="1"/>
        <pt x="661" y="519" on="0"/>
        <pt x="751" y="424" on="0"/>
        <pt x="751" y="342" on="1"/>
        <pt x="751" y="327" on="0"/>
        <pt x="750" y="311" on="1"/>
        <pt x="742" y="245" on="1"/>
        <pt x="435" y="245" on="1"/>
        <pt x="433" y="226" on="0"/>
        <pt x="433" y="207" on="1"/>
        <pt x="433" y="70" on="0"/>
        <pt x="545" y="70" on="1"/>
        <pt x="600" y="70" on="0"/>
        <pt x="669" y="150" on="1"/>
        <pt x="717" y="77" on="1"/>
        <pt x="636" y="-12" on="0"/>
        <pt x="529" y="-12" on="1"/>
        <pt x="412" y="-12" on="0"/>
        <pt x="357" y="59" on="1"/>
        <pt x="299" y="12" on="0"/>
      </contour>
      <contour>
        <pt x="252" y="210" on="1"/>
        <pt x="196" y="200" on="0"/>
        <pt x="180" y="194" on="1"/>
        <pt x="143" y="178" on="0"/>
        <pt x="138" y="137" on="1"/>
        <pt x="132" y="82" on="0"/>
        <pt x="187" y="82" on="1"/>
        <pt x="221" y="82" on="0"/>
        <pt x="254" y="95" on="1"/>
        <pt x="297" y="113" on="0"/>
        <pt x="300" y="143" on="1"/>
        <pt x="307" y="219" on="1"/>
        <pt x="301" y="218" on="0"/>
      </contour>
    </TTGlyph>
    <TTGlyph name="agrave" xMin="29" yMin="-16" xMax="467" yMax="732">
      <contour>
        <pt x="413" y="641" on="1"/>
        <pt x="202" y="732" on="1"/>
        <pt x="130" y="652" on="1"/>
        <pt x="340" y="567" on="1"/>
      </contour>
      <contour>
        <pt x="303" y="228" on="1"/>
        <pt x="272" y="228" on="0"/>
        <pt x="227" y="220" on="1"/>
        <pt x="178" y="212" on="0"/>
        <pt x="161" y="201" on="1"/>
        <pt x="134" y="186" on="0"/>
        <pt x="129" y="140" on="1"/>
        <pt x="126" y="111" on="0"/>
        <pt x="159" y="68" on="0"/>
        <pt x="183" y="68" on="1"/>
        <pt x="244" y="68" on="0"/>
        <pt x="291" y="117" on="1"/>
      </contour>
      <contour>
        <pt x="296" y="55" on="1"/>
        <pt x="249" y="17" on="0"/>
        <pt x="231" y="6" on="1"/>
        <pt x="194" y="-17" on="0"/>
        <pt x="161" y="-16" on="1"/>
        <pt x="105" y="-16" on="0"/>
        <pt x="29" y="55" on="0"/>
        <pt x="29" y="118" on="1"/>
        <pt x="29" y="128" on="0"/>
        <pt x="30" y="139" on="1"/>
        <pt x="39" y="224" on="0"/>
        <pt x="92" y="260" on="1"/>
        <pt x="126" y="282" on="0"/>
        <pt x="221" y="300" on="1"/>
        <pt x="269" y="309" on="0"/>
        <pt x="309" y="313" on="1"/>
        <pt x="315" y="367" on="1"/>
        <pt x="317" y="390" on="0"/>
        <pt x="285" y="429" on="0"/>
        <pt x="260" y="429" on="1"/>
        <pt x="167" y="429" on="0"/>
        <pt x="101" y="359" on="1"/>
        <pt x="63" y="422" on="1"/>
        <pt x="96" y="468" on="0"/>
        <pt x="163" y="498" on="1"/>
        <pt x="221" y="525" on="0"/>
        <pt x="270" y="524" on="1"/>
        <pt x="343" y="524" on="0"/>
        <pt x="432" y="430" on="0"/>
        <pt x="425" y="357" on="1"/>
        <pt x="397" y="100" on="1"/>
        <pt x="397" y="94" on="0"/>
        <pt x="411" y="78" on="0"/>
        <pt x="419" y="78" on="1"/>
        <pt x="452" y="78" on="0"/>
        <pt x="463" y="88" on="1"/>
        <pt x="467" y="23" on="1"/>
        <pt x="400" y="-11" on="0"/>
        <pt x="364" y="-11" on="1"/>
        <pt x="348" y="-11" on="0"/>
        <pt x="326" y="7" on="1"/>
        <pt x="300" y="28" on="0"/>
      </contour>
    </TTGlyph>
    <TTGlyph name="ampersand" xMin="9" yMin="-9" xMax="522" yMax="655">
      <contour>
        <pt x="119" y="190" on="1"/>
        <pt x="115" y="148" on="0"/>
        <pt x="135" y="116" on="1"/>
        <pt x="159" y="77" on="0"/>
        <pt x="206" y="77" on="1"/>
        <pt x="248" y="77" on="0"/>
        <pt x="296" y="123" on="1"/>
        <pt x="198" y="227" on="0"/>
        <pt x="170" y="299" on="1"/>
        <pt x="128" y="270" on="0"/>
      </contour>
      <contour>
        <pt x="359" y="61" on="1"/>
        <pt x="337" y="32" on="0"/>
        <pt x="246" y="-9" on="0"/>
        <pt x="201" y="-9" on="1"/>
        <pt x="108" y="-9" on="0"/>
        <pt x="56" y="41" on="1"/>
        <pt x="9" y="87" on="0"/>
        <pt x="9" y="160" on="1"/>
        <pt x="9" y="222" on="0"/>
        <pt x="45" y="281" on="1"/>
        <pt x="78" y="337" on="0"/>
        <pt x="133" y="372" on="1"/>
        <pt x="105" y="428" on="0"/>
        <pt x="112" y="486" on="1"/>
        <pt x="119" y="559" on="0"/>
        <pt x="229" y="655" on="0"/>
        <pt x="300" y="655" on="1"/>
        <pt x="343" y="655" on="0"/>
        <pt x="371" y="642" on="1"/>
        <pt x="404" y="626" on="0"/>
        <pt x="436" y="582" on="1"/>
        <pt x="372" y="518" on="1"/>
        <pt x="338" y="565" on="0"/>
        <pt x="273" y="565" on="1"/>
        <pt x="231" y="565" on="0"/>
        <pt x="224" y="501" on="1"/>
        <pt x="221" y="472" on="0"/>
        <pt x="236" y="424" on="1"/>
        <pt x="280" y="440" on="0"/>
        <pt x="349" y="442" on="1"/>
        <pt x="357" y="360" on="1"/>
        <pt x="305" y="360" on="0"/>
        <pt x="275" y="352" on="1"/>
        <pt x="324" y="270" on="0"/>
        <pt x="365" y="218" on="1"/>
        <pt x="371" y="233" on="0"/>
        <pt x="372" y="248" on="1"/>
        <pt x="376" y="282" on="0"/>
        <pt x="371" y="322" on="1"/>
        <pt x="463" y="338" on="1"/>
        <pt x="466" y="282" on="0"/>
        <pt x="463" y="259" on="1"/>
        <pt x="458" y="207" on="0"/>
        <pt x="433" y="148" on="1"/>
        <pt x="452" y="129" on="0"/>
        <pt x="522" y="89" on="1"/>
        <pt x="447" y="0" on="1"/>
        <pt x="414" y="12" on="0"/>
      </contour>
    </TTGlyph>
    <TTGlyph name="apple" xMin="161" yMin="157" xMax="413" yMax="527">
      <contour>
        <pt x="309" y="464" on="1"/>
        <pt x="309" y="493" on="1"/>
        <pt x="346" y="493" on="1"/>
        <pt x="346" y="527" on="1"/>
        <pt x="376" y="527" on="1"/>
        <pt x="376" y="493" on="1"/>
        <pt x="413" y="493" on="1"/>
        <pt x="413" y="464" on="1"/>
        <pt x="376" y="464" on="1"/>
        <pt x="376" y="430" on="1"/>
        <pt x="346" y="430" on="1"/>
        <pt x="346" y="464" on="1"/>
      </contour>
      <contour>
        <pt x="161" y="191" on="1"/>
        <pt x="161" y="220" on="1"/>
        <pt x="197" y="220" on="1"/>
        <pt x="197" y="254" on="1"/>
        <pt x="227" y="254" on="1"/>
        <pt x="227" y="220" on="1"/>
        <pt x="263" y="220" on="1"/>
        <pt x="263" y="191" on="1"/>
        <pt x="227" y="191" on="1"/>
        <pt x="227" y="157" on="1"/>
        <pt x="197" y="157" on="1"/>
        <pt x="197" y="191" on="1"/>
      </contour>
      <contour>
        <pt x="227" y="283" on="1"/>
        <pt x="246" y="283" on="1"/>
        <pt x="246" y="259" on="1"/>
        <pt x="227" y="259" on="1"/>
      </contour>
      <contour>
        <pt x="247" y="298" on="1"/>
        <pt x="261" y="298" on="1"/>
        <pt x="261" y="288" on="1"/>
        <pt x="247" y="288" on="1"/>
      </contour>
      <contour>
        <pt x="262" y="316" on="1"/>
        <pt x="308" y="316" on="1"/>
        <pt x="308" y="303" on="1"/>
        <pt x="262" y="303" on="1"/>
      </contour>
      <contour>
        <pt x="243" y="366" on="1"/>
        <pt x="258" y="366" on="1"/>
        <pt x="258" y="324" on="1"/>
        <pt x="243" y="324" on="1"/>
      </contour>
      <contour>
        <pt x="343" y="401" on="1"/>
        <pt x="326" y="401" on="1"/>
        <pt x="326" y="425" on="1"/>
        <pt x="343" y="425" on="1"/>
      </contour>
      <contour>
        <pt x="325" y="386" on="1"/>
        <pt x="310" y="386" on="1"/>
        <pt x="310" y="396" on="1"/>
        <pt x="325" y="396" on="1"/>
      </contour>
      <contour>
        <pt x="308" y="368" on="1"/>
        <pt x="262" y="368" on="1"/>
        <pt x="262" y="381" on="1"/>
        <pt x="308" y="381" on="1"/>
      </contour>
      <contour>
        <pt x="328" y="318" on="1"/>
        <pt x="313" y="318" on="1"/>
        <pt x="313" y="361" on="1"/>
        <pt x="328" y="361" on="1"/>
      </contour>
    </TTGlyph>
    <TTGlyph name="approxequal" xMin="121" yMin="62" xMax="434" yMax="412">
      <contour>
        <pt x="273" y="292" on="1"/>
        <pt x="248" y="314" on="0"/>
        <pt x="239" y="313" on="1"/>
        <pt x="227" y="313" on="0"/>
        <pt x="211" y="298" on="1"/>
        <pt x="204" y="291" on="0"/>
        <pt x="168" y="244" on="1"/>
        <pt x="140" y="344" on="1"/>
        <pt x="199" y="406" on="0"/>
        <pt x="251" y="407" on="1"/>
        <pt x="285" y="407" on="0"/>
        <pt x="345" y="362" on="0"/>
        <pt x="351" y="362" on="1"/>
        <pt x="356" y="362" on="0"/>
        <pt x="381" y="387" on="1"/>
        <pt x="381" y="387" on="0"/>
        <pt x="406" y="412" on="1"/>
        <pt x="434" y="314" on="1"/>
        <pt x="380" y="263" on="0"/>
        <pt x="334" y="263" on="1"/>
        <pt x="305" y="263" on="0"/>
      </contour>
      <contour>
        <pt x="254" y="110" on="1"/>
        <pt x="228" y="132" on="0"/>
        <pt x="219" y="131" on="1"/>
        <pt x="207" y="131" on="0"/>
        <pt x="193" y="116" on="1"/>
        <pt x="185" y="108" on="0"/>
        <pt x="148" y="62" on="1"/>
        <pt x="121" y="162" on="1"/>
        <pt x="180" y="224" on="0"/>
        <pt x="232" y="224" on="1"/>
        <pt x="265" y="224" on="0"/>
        <pt x="326" y="181" on="0"/>
        <pt x="332" y="181" on="1"/>
        <pt x="337" y="181" on="0"/>
        <pt x="361" y="205" on="1"/>
        <pt x="361" y="205" on="0"/>
        <pt x="386" y="229" on="1"/>
        <pt x="415" y="132" on="1"/>
        <pt x="361" y="81" on="0"/>
        <pt x="314" y="81" on="1"/>
        <pt x="288" y="81" on="0"/>
      </contour>
    </TTGlyph>
    <TTGlyph name="aring" xMin="29" yMin="-16" xMax="467" yMax="757">
      <contour>
        <pt x="267" y="580" on="1"/>
        <pt x="226" y="580" on="0"/>
        <pt x="181" y="630" on="0"/>
        <pt x="185" y="669" on="1"/>
        <pt x="189" y="707" on="0"/>
        <pt x="246" y="757" on="0"/>
        <pt x="287" y="757" on="1"/>
        <pt x="328" y="757" on="0"/>
        <pt x="375" y="707" on="0"/>
        <pt x="371" y="669" on="1"/>
        <pt x="367" y="630" on="0"/>
        <pt x="309" y="580" on="0"/>
      </contour>
      <contour>
        <pt x="282" y="713" on="1"/>
        <pt x="249" y="713" on="0"/>
        <pt x="245" y="669" on="1"/>
        <pt x="240" y="624" on="0"/>
        <pt x="272" y="624" on="1"/>
        <pt x="306" y="624" on="0"/>
        <pt x="311" y="669" on="1"/>
        <pt x="316" y="713" on="0"/>
      </contour>
      <contour>
        <pt x="303" y="228" on="1"/>
        <pt x="272" y="228" on="0"/>
        <pt x="227" y="220" on="1"/>
        <pt x="178" y="212" on="0"/>
        <pt x="161" y="201" on="1"/>
        <pt x="134" y="186" on="0"/>
        <pt x="129" y="140" on="1"/>
        <pt x="126" y="111" on="0"/>
        <pt x="159" y="68" on="0"/>
        <pt x="183" y="68" on="1"/>
        <pt x="244" y="68" on="0"/>
        <pt x="291" y="117" on="1"/>
      </contour>
      <contour>
        <pt x="296" y="55" on="1"/>
        <pt x="249" y="17" on="0"/>
        <pt x="231" y="6" on="1"/>
        <pt x="194" y="-17" on="0"/>
        <pt x="161" y="-16" on="1"/>
        <pt x="105" y="-16" on="0"/>
        <pt x="29" y="55" on="0"/>
        <pt x="29" y="118" on="1"/>
        <pt x="29" y="128" on="0"/>
        <pt x="30" y="139" on="1"/>
        <pt x="39" y="224" on="0"/>
        <pt x="92" y="260" on="1"/>
        <pt x="126" y="282" on="0"/>
        <pt x="221" y="300" on="1"/>
        <pt x="269" y="309" on="0"/>
        <pt x="309" y="313" on="1"/>
        <pt x="315" y="367" on="1"/>
        <pt x="317" y="390" on="0"/>
        <pt x="285" y="429" on="0"/>
        <pt x="260" y="429" on="1"/>
        <pt x="167" y="429" on="0"/>
        <pt x="101" y="359" on="1"/>
        <pt x="63" y="422" on="1"/>
        <pt x="96" y="468" on="0"/>
        <pt x="163" y="498" on="1"/>
        <pt x="221" y="525" on="0"/>
        <pt x="270" y="524" on="1"/>
        <pt x="343" y="524" on="0"/>
        <pt x="432" y="430" on="0"/>
        <pt x="425" y="357" on="1"/>
        <pt x="397" y="100" on="1"/>
        <pt x="397" y="94" on="0"/>
        <pt x="411" y="78" on="0"/>
        <pt x="419" y="78" on="1"/>
        <pt x="452" y="78" on="0"/>
        <pt x="463" y="88" on="1"/>
        <pt x="467" y="23" on="1"/>
        <pt x="400" y="-11" on="0"/>
        <pt x="364" y="-11" on="1"/>
        <pt x="348" y="-11" on="0"/>
        <pt x="326" y="7" on="1"/>
        <pt x="300" y="28" on="0"/>
      </contour>
    </TTGlyph>
    <TTGlyph name="asciicircum" xMin="102" yMin="454" xMax="437" yMax="702">
      <contour>
        <pt x="156" y="454" on="1"/>
        <pt x="102" y="527" on="1"/>
        <pt x="287" y="702" on="1"/>
        <pt x="437" y="527" on="1"/>
        <pt x="368" y="454" on="1"/>
        <pt x="273" y="575" on="1"/>
      </contour>
    </TTGlyph>
    <TTGlyph name="asciitilde" xMin="85" yMin="369" xMax="361" yMax="516">
      <contour>
        <pt x="211" y="413" on="1"/>
        <pt x="187" y="430" on="0"/>
        <pt x="177" y="430" on="1"/>
        <pt x="164" y="430" on="0"/>
        <pt x="150" y="417" on="1"/>
        <pt x="141" y="409" on="0"/>
        <pt x="104" y="369" on="1"/>
        <pt x="85" y="464" on="1"/>
        <pt x="135" y="509" on="0"/>
        <pt x="187" y="509" on="1"/>
        <pt x="221" y="509" on="0"/>
        <pt x="283" y="472" on="0"/>
        <pt x="288" y="472" on="1"/>
        <pt x="299" y="471" on="0"/>
        <pt x="322" y="493" on="1"/>
        <pt x="333" y="505" on="0"/>
        <pt x="345" y="516" on="1"/>
        <pt x="361" y="427" on="1"/>
        <pt x="311" y="388" on="0"/>
        <pt x="271" y="388" on="1"/>
        <pt x="245" y="388" on="0"/>
      </contour>
    </TTGlyph>
    <TTGlyph name="asterisk" xMin="10" yMin="457" xMax="260" yMax="711">
      <contour>
        <pt x="166" y="512" on="1"/>
        <pt x="162" y="457" on="1"/>
        <pt x="85" y="457" on="1"/>
        <pt x="93" y="512" on="1"/>
        <pt x="46" y="473" on="1"/>
        <pt x="10" y="545" on="1"/>
        <pt x="76" y="583" on="1"/>
        <pt x="19" y="622" on="1"/>
        <pt x="68" y="693" on="1"/>
        <pt x="109" y="653" on="1"/>
        <pt x="113" y="711" on="1"/>
        <pt x="189" y="709" on="1"/>
        <pt x="180" y="655" on="1"/>
        <pt x="226" y="694" on="1"/>
        <pt x="260" y="622" on="1"/>
        <pt x="198" y="584" on="1"/>
        <pt x="254" y="545" on="1"/>
        <pt x="204" y="473" on="1"/>
      </contour>
    </TTGlyph>
    <TTGlyph name="at" xMin="34" yMin="-248" xMax="973" yMax="715">
      <contour>
        <pt x="641" y="481" on="1"/>
        <pt x="649" y="522" on="1"/>
        <pt x="741" y="522" on="1"/>
        <pt x="734" y="438" on="0"/>
        <pt x="716" y="328" on="1"/>
        <pt x="699" y="231" on="0"/>
        <pt x="682" y="132" on="1"/>
        <pt x="682" y="132" on="0"/>
        <pt x="690" y="83" on="1"/>
        <pt x="696" y="66" on="0"/>
        <pt x="736" y="66" on="1"/>
        <pt x="779" y="66" on="0"/>
        <pt x="871" y="201" on="0"/>
        <pt x="871" y="275" on="1"/>
        <pt x="871" y="432" on="0"/>
        <pt x="679" y="638" on="0"/>
        <pt x="525" y="638" on="1"/>
        <pt x="371" y="638" on="0"/>
        <pt x="262" y="516" on="1"/>
        <pt x="156" y="398" on="0"/>
        <pt x="156" y="244" on="1"/>
        <pt x="156" y="80" on="0"/>
        <pt x="244" y="-36" on="1"/>
        <pt x="337" y="-161" on="0"/>
        <pt x="484" y="-161" on="1"/>
        <pt x="590" y="-161" on="0"/>
        <pt x="658" y="-131" on="1"/>
        <pt x="721" y="-102" on="0"/>
        <pt x="806" y="-22" on="1"/>
        <pt x="867" y="-92" on="1"/>
        <pt x="765" y="-185" on="0"/>
        <pt x="712" y="-210" on="1"/>
        <pt x="632" y="-248" on="0"/>
        <pt x="484" y="-248" on="1"/>
        <pt x="275" y="-248" on="0"/>
        <pt x="151" y="-102" on="1"/>
        <pt x="34" y="35" on="0"/>
        <pt x="34" y="244" on="1"/>
        <pt x="34" y="439" on="0"/>
        <pt x="322" y="715" on="0"/>
        <pt x="728" y="715" on="0"/>
        <pt x="973" y="472" on="0"/>
        <pt x="973" y="275" on="1"/>
        <pt x="973" y="163" on="0"/>
        <pt x="796" y="-22" on="0"/>
        <pt x="685" y="-22" on="1"/>
        <pt x="624" y="-22" on="0"/>
        <pt x="591" y="78" on="1"/>
        <pt x="521" y="-20" on="0"/>
        <pt x="434" y="-20" on="1"/>
        <pt x="255" y="-20" on="0"/>
        <pt x="255" y="204" on="1"/>
        <pt x="255" y="322" on="0"/>
        <pt x="331" y="421" on="1"/>
        <pt x="415" y="533" on="0"/>
        <pt x="542" y="532" on="1"/>
        <pt x="573" y="532" on="0"/>
        <pt x="598" y="516" on="1"/>
      </contour>
      <contour>
        <pt x="539" y="446" on="1"/>
        <pt x="488" y="446" on="0"/>
        <pt x="442" y="399" on="1"/>
        <pt x="381" y="337" on="0"/>
        <pt x="381" y="217" on="1"/>
        <pt x="381" y="151" on="0"/>
        <pt x="393" y="122" on="1"/>
        <pt x="412" y="72" on="0"/>
        <pt x="470" y="72" on="1"/>
        <pt x="501" y="72" on="0"/>
        <pt x="590" y="162" on="0"/>
        <pt x="597" y="204" on="1"/>
        <pt x="632" y="396" on="1"/>
        <pt x="619" y="413" on="0"/>
        <pt x="559" y="446" on="0"/>
      </contour>
    </TTGlyph>
    <TTGlyph name="atilde" xMin="29" yMin="-16" xMax="467" yMax="701">
      <contour>
        <pt x="259" y="593" on="1"/>
        <pt x="226" y="617" on="0"/>
        <pt x="216" y="616" on="1"/>
        <pt x="190" y="616" on="0"/>
        <pt x="143" y="568" on="1"/>
        <pt x="111" y="648" on="1"/>
        <pt x="157" y="699" on="0"/>
        <pt x="224" y="701" on="1"/>
        <pt x="255" y="702" on="0"/>
        <pt x="330" y="647" on="0"/>
        <pt x="340" y="647" on="1"/>
        <pt x="353" y="647" on="0"/>
        <pt x="395" y="679" on="1"/>
        <pt x="426" y="601" on="1"/>
        <pt x="408" y="585" on="0"/>
        <pt x="376" y="572" on="1"/>
        <pt x="348" y="562" on="0"/>
        <pt x="334" y="562" on="1"/>
        <pt x="302" y="562" on="0"/>
      </contour>
      <contour>
        <pt x="303" y="228" on="1"/>
        <pt x="272" y="228" on="0"/>
        <pt x="227" y="220" on="1"/>
        <pt x="178" y="212" on="0"/>
        <pt x="161" y="201" on="1"/>
        <pt x="134" y="186" on="0"/>
        <pt x="129" y="140" on="1"/>
        <pt x="126" y="111" on="0"/>
        <pt x="159" y="68" on="0"/>
        <pt x="183" y="68" on="1"/>
        <pt x="244" y="68" on="0"/>
        <pt x="291" y="117" on="1"/>
      </contour>
      <contour>
        <pt x="296" y="55" on="1"/>
        <pt x="249" y="17" on="0"/>
        <pt x="231" y="6" on="1"/>
        <pt x="194" y="-17" on="0"/>
        <pt x="161" y="-16" on="1"/>
        <pt x="105" y="-16" on="0"/>
        <pt x="29" y="55" on="0"/>
        <pt x="29" y="118" on="1"/>
        <pt x="29" y="128" on="0"/>
        <pt x="30" y="139" on="1"/>
        <pt x="39" y="224" on="0"/>
        <pt x="92" y="260" on="1"/>
        <pt x="126" y="282" on="0"/>
        <pt x="221" y="300" on="1"/>
        <pt x="269" y="309" on="0"/>
        <pt x="309" y="313" on="1"/>
        <pt x="315" y="367" on="1"/>
        <pt x="317" y="390" on="0"/>
        <pt x="285" y="429" on="0"/>
        <pt x="260" y="429" on="1"/>
        <pt x="167" y="429" on="0"/>
        <pt x="101" y="359" on="1"/>
        <pt x="63" y="422" on="1"/>
        <pt x="96" y="468" on="0"/>
        <pt x="163" y="498" on="1"/>
        <pt x="221" y="525" on="0"/>
        <pt x="270" y="524" on="1"/>
        <pt x="343" y="524" on="0"/>
        <pt x="432" y="430" on="0"/>
        <pt x="425" y="357" on="1"/>
        <pt x="397" y="100" on="1"/>
        <pt x="397" y="94" on="0"/>
        <pt x="411" y="78" on="0"/>
        <pt x="419" y="78" on="1"/>
        <pt x="452" y="78" on="0"/>
        <pt x="463" y="88" on="1"/>
        <pt x="467" y="23" on="1"/>
        <pt x="400" y="-11" on="0"/>
        <pt x="364" y="-11" on="1"/>
        <pt x="348" y="-11" on="0"/>
        <pt x="326" y="7" on="1"/>
        <pt x="300" y="28" on="0"/>
      </contour>
    </TTGlyph>
    <TTGlyph name="b" xMin="29" yMin="-10" xMax="485" yMax="717">
      <contour>
        <pt x="135" y="47" on="1"/>
        <pt x="122" y="-1" on="1"/>
        <pt x="29" y="-1" on="1"/>
        <pt x="103" y="717" on="1"/>
        <pt x="214" y="717" on="1"/>
        <pt x="185" y="444" on="1"/>
        <pt x="209" y="479" on="0"/>
        <pt x="258" y="506" on="1"/>
        <pt x="304" y="531" on="0"/>
        <pt x="336" y="530" on="1"/>
        <pt x="409" y="530" on="0"/>
        <pt x="450" y="467" on="1"/>
        <pt x="486" y="411" on="0"/>
        <pt x="485" y="328" on="1"/>
        <pt x="485" y="310" on="0"/>
        <pt x="483" y="292" on="1"/>
        <pt x="450" y="-10" on="0"/>
        <pt x="251" y="-10" on="1"/>
        <pt x="215" y="-10" on="0"/>
      </contour>
      <contour>
        <pt x="175" y="343" on="1"/>
        <pt x="153" y="131" on="1"/>
        <pt x="167" y="113" on="0"/>
        <pt x="227" y="82" on="0"/>
        <pt x="252" y="82" on="1"/>
        <pt x="310" y="82" on="0"/>
        <pt x="338" y="151" on="1"/>
        <pt x="354" y="192" on="0"/>
        <pt x="364" y="278" on="1"/>
        <pt x="367" y="302" on="0"/>
        <pt x="367" y="323" on="1"/>
        <pt x="367" y="440" on="0"/>
        <pt x="290" y="439" on="1"/>
        <pt x="232" y="439" on="0"/>
      </contour>
    </TTGlyph>
    <TTGlyph name="backslash" xMin="51" yMin="-177" xMax="358" yMax="724">
      <contour>
        <pt x="51" y="699" on="1"/>
        <pt x="165" y="724" on="1"/>
        <pt x="358" y="-153" on="1"/>
        <pt x="245" y="-177" on="1"/>
      </contour>
    </TTGlyph>
    <TTGlyph name="bar" xMin="17" yMin="-225" xMax="247" yMax="702">
      <contour>
        <pt x="116" y="702" on="1"/>
        <pt x="247" y="702" on="1"/>
        <pt x="148" y="-225" on="1"/>
        <pt x="17" y="-225" on="1"/>
      </contour>
    </TTGlyph>
    <TTGlyph name="braceleft" xMin="114" yMin="-202" xMax="480" yMax="854">
      <contour>
        <pt x="384" y="742" on="1"/>
        <pt x="351" y="742" on="0"/>
        <pt x="328" y="702" on="0"/>
        <pt x="319" y="629" on="1"/>
        <pt x="316" y="603" on="0"/>
        <pt x="312" y="513" on="0"/>
        <pt x="311" y="499" on="1"/>
        <pt x="303" y="422" on="0"/>
        <pt x="220" y="347" on="1"/>
        <pt x="219" y="340" on="1"/>
        <pt x="285" y="273" on="0"/>
        <pt x="285" y="174" on="1"/>
        <pt x="285" y="162" on="0"/>
        <pt x="284" y="150" on="1"/>
        <pt x="282" y="127" on="0"/>
        <pt x="262" y="11" on="0"/>
        <pt x="259" y="-10" on="1"/>
        <pt x="254" y="-66" on="0"/>
        <pt x="256" y="-77" on="1"/>
        <pt x="259" y="-92" on="0"/>
        <pt x="279" y="-92" on="1"/>
        <pt x="323" y="-92" on="0"/>
        <pt x="353" y="-67" on="1"/>
        <pt x="371" y="-188" on="1"/>
        <pt x="321" y="-204" on="0"/>
        <pt x="264" y="-202" on="1"/>
        <pt x="142" y="-195" on="0"/>
        <pt x="142" y="-41" on="1"/>
        <pt x="142" y="-7" on="0"/>
        <pt x="150" y="62" on="1"/>
        <pt x="151" y="76" on="0"/>
        <pt x="164" y="158" on="0"/>
        <pt x="166" y="181" on="1"/>
        <pt x="174" y="258" on="0"/>
        <pt x="114" y="317" on="1"/>
        <pt x="121" y="374" on="1"/>
        <pt x="162" y="417" on="0"/>
        <pt x="172" y="430" on="1"/>
        <pt x="196" y="463" on="0"/>
        <pt x="200" y="502" on="1"/>
        <pt x="203" y="527" on="0"/>
        <pt x="207" y="616" on="0"/>
        <pt x="209" y="636" on="1"/>
        <pt x="232" y="854" on="0"/>
        <pt x="393" y="854" on="1"/>
        <pt x="420" y="854" on="0"/>
        <pt x="480" y="839" on="1"/>
        <pt x="447" y="724" on="1"/>
        <pt x="397" y="742" on="0"/>
      </contour>
    </TTGlyph>
    <TTGlyph name="braceright" xMin="77" yMin="-202" xMax="445" yMax="854">
      <contour>
        <pt x="350" y="62" on="1"/>
        <pt x="337" y="-59" on="0"/>
        <pt x="314" y="-110" on="1"/>
        <pt x="275" y="-197" on="0"/>
        <pt x="181" y="-202" on="1"/>
        <pt x="123" y="-205" on="0"/>
        <pt x="77" y="-188" on="1"/>
        <pt x="120" y="-67" on="1"/>
        <pt x="146" y="-93" on="0"/>
        <pt x="189" y="-92" on="1"/>
        <pt x="206" y="-92" on="0"/>
        <pt x="218" y="-75" on="0"/>
        <pt x="221" y="-50" on="1"/>
        <pt x="221" y="-50" on="0"/>
        <pt x="225" y="-10" on="1"/>
        <pt x="228" y="12" on="0"/>
        <pt x="233" y="127" on="0"/>
        <pt x="236" y="150" on="1"/>
        <pt x="242" y="208" on="0"/>
        <pt x="275" y="264" on="1"/>
        <pt x="303" y="310" on="0"/>
        <pt x="339" y="340" on="1"/>
        <pt x="340" y="347" on="1"/>
        <pt x="273" y="422" on="0"/>
        <pt x="282" y="499" on="1"/>
        <pt x="283" y="513" on="0"/>
        <pt x="295" y="594" on="1"/>
        <pt x="304" y="651" on="0"/>
        <pt x="304" y="689" on="1"/>
        <pt x="304" y="722" on="0"/>
        <pt x="285" y="742" on="0"/>
        <pt x="260" y="742" on="1"/>
        <pt x="247" y="742" on="0"/>
        <pt x="193" y="724" on="1"/>
        <pt x="184" y="839" on="1"/>
        <pt x="246" y="854" on="0"/>
        <pt x="273" y="854" on="1"/>
        <pt x="414" y="854" on="0"/>
        <pt x="415" y="684" on="1"/>
        <pt x="415" y="661" on="0"/>
        <pt x="413" y="636" on="1"/>
        <pt x="411" y="617" on="0"/>
        <pt x="396" y="526" on="0"/>
        <pt x="393" y="502" on="1"/>
        <pt x="389" y="463" on="0"/>
        <pt x="406" y="430" on="1"/>
        <pt x="413" y="417" on="0"/>
        <pt x="445" y="374" on="1"/>
        <pt x="440" y="317" on="1"/>
        <pt x="367" y="258" on="0"/>
        <pt x="359" y="181" on="1"/>
        <pt x="357" y="157" on="0"/>
        <pt x="351" y="76" on="0"/>
      </contour>
    </TTGlyph>
    <TTGlyph name="bracketleft" xMin="28" yMin="-117" xMax="280" yMax="758">
      <contour>
        <pt x="120" y="758" on="1"/>
        <pt x="280" y="758" on="1"/>
        <pt x="270" y="669" on="1"/>
        <pt x="211" y="669" on="1"/>
        <pt x="139" y="-9" on="1"/>
        <pt x="206" y="-9" on="1"/>
        <pt x="195" y="-117" on="1"/>
        <pt x="28" y="-117" on="1"/>
      </contour>
    </TTGlyph>
    <TTGlyph name="bracketright" xMin="5" yMin="-117" xMax="261" yMax="758">
      <contour>
        <pt x="16" y="-9" on="1"/>
        <pt x="83" y="-9" on="1"/>
        <pt x="155" y="669" on="1"/>
        <pt x="96" y="669" on="1"/>
        <pt x="105" y="758" on="1"/>
        <pt x="261" y="758" on="1"/>
        <pt x="169" y="-117" on="1"/>
        <pt x="5" y="-117" on="1"/>
      </contour>
    </TTGlyph>
    <TTGlyph name="breve" xMin="32" yMin="551" xMax="321" yMax="668">
      <contour>
        <pt x="32" y="657" on="1"/>
        <pt x="111" y="667" on="1"/>
        <pt x="129" y="619" on="0"/>
        <pt x="175" y="618" on="1"/>
        <pt x="217" y="618" on="0"/>
        <pt x="245" y="668" on="1"/>
        <pt x="321" y="657" on="1"/>
        <pt x="273" y="551" on="0"/>
        <pt x="169" y="551" on="1"/>
        <pt x="60" y="551" on="0"/>
      </contour>
    </TTGlyph>
    <TTGlyph name="brokenbar" xMin="55" yMin="-18" xMax="134" yMax="672">
      <contour>
        <pt x="55" y="285" on="1"/>
        <pt x="134" y="285" on="1"/>
        <pt x="134" y="-18" on="1"/>
        <pt x="55" y="-18" on="1"/>
      </contour>
      <contour>
        <pt x="55" y="672" on="1"/>
        <pt x="134" y="672" on="1"/>
        <pt x="134" y="369" on="1"/>
        <pt x="55" y="369" on="1"/>
      </contour>
    </TTGlyph>
    <TTGlyph name="bullet" xMin="49" yMin="195" xMax="237" yMax="400">
      <contour>
        <pt x="132" y="195" on="1"/>
        <pt x="93" y="195" on="0"/>
        <pt x="44" y="253" on="0"/>
        <pt x="49" y="298" on="1"/>
        <pt x="54" y="342" on="0"/>
        <pt x="116" y="400" on="0"/>
        <pt x="155" y="400" on="1"/>
        <pt x="193" y="400" on="0"/>
        <pt x="242" y="342" on="0"/>
        <pt x="237" y="298" on="1"/>
        <pt x="232" y="254" on="0"/>
        <pt x="171" y="195" on="0"/>
      </contour>
    </TTGlyph>
    <TTGlyph name="c" xMin="38" yMin="-12" xMax="459" yMax="523">
      <contour>
        <pt x="39" y="248" on="1"/>
        <pt x="53" y="385" on="0"/>
        <pt x="141" y="460" on="1"/>
        <pt x="215" y="525" on="0"/>
        <pt x="309" y="523" on="1"/>
        <pt x="368" y="523" on="0"/>
        <pt x="459" y="458" on="1"/>
        <pt x="418" y="387" on="1"/>
        <pt x="357" y="441" on="0"/>
        <pt x="292" y="441" on="1"/>
        <pt x="227" y="441" on="0"/>
        <pt x="188" y="355" on="1"/>
        <pt x="156" y="285" on="0"/>
        <pt x="157" y="211" on="1"/>
        <pt x="157" y="146" on="0"/>
        <pt x="213" y="69" on="0"/>
        <pt x="260" y="69" on="1"/>
        <pt x="320" y="69" on="0"/>
        <pt x="400" y="134" on="1"/>
        <pt x="439" y="74" on="1"/>
        <pt x="356" y="-12" on="0"/>
        <pt x="252" y="-12" on="1"/>
        <pt x="131" y="-12" on="0"/>
        <pt x="77" y="74" on="1"/>
        <pt x="38" y="134" on="0"/>
        <pt x="38" y="220" on="1"/>
        <pt x="38" y="236" on="0"/>
      </contour>
    </TTGlyph>
    <TTGlyph name="caron" xMin="36" yMin="534" xMax="334" yMax="742">
      <contour>
        <pt x="334" y="742" on="1"/>
        <pt x="323" y="642" on="1"/>
        <pt x="171" y="534" on="1"/>
        <pt x="36" y="642" on="1"/>
        <pt x="47" y="741" on="1"/>
        <pt x="182" y="652" on="1"/>
      </contour>
    </TTGlyph>
    <TTGlyph name="ccedilla" xMin="49" yMin="-224" xMax="470" yMax="523">
      <contour>
        <pt x="372" y="-135" on="1"/>
        <pt x="368" y="-171" on="0"/>
        <pt x="310" y="-224" on="0"/>
        <pt x="263" y="-224" on="1"/>
        <pt x="197" y="-224" on="0"/>
        <pt x="180" y="-175" on="1"/>
        <pt x="221" y="-140" on="1"/>
        <pt x="247" y="-173" on="0"/>
        <pt x="269" y="-173" on="1"/>
        <pt x="306" y="-173" on="0"/>
        <pt x="309" y="-138" on="1"/>
        <pt x="314" y="-98" on="0"/>
        <pt x="280" y="-98" on="1"/>
        <pt x="265" y="-98" on="0"/>
        <pt x="243" y="-114" on="1"/>
        <pt x="197" y="-92" on="1"/>
        <pt x="210" y="-8" on="1"/>
        <pt x="214" y="-8" on="1"/>
        <pt x="122" y="8" on="0"/>
        <pt x="79" y="88" on="1"/>
        <pt x="49" y="144" on="0"/>
        <pt x="49" y="220" on="1"/>
        <pt x="49" y="235" on="0"/>
        <pt x="50" y="248" on="1"/>
        <pt x="64" y="385" on="0"/>
        <pt x="152" y="460" on="1"/>
        <pt x="226" y="525" on="0"/>
        <pt x="321" y="523" on="1"/>
        <pt x="380" y="523" on="0"/>
        <pt x="470" y="458" on="1"/>
        <pt x="428" y="387" on="1"/>
        <pt x="368" y="441" on="0"/>
        <pt x="303" y="441" on="1"/>
        <pt x="238" y="441" on="0"/>
        <pt x="200" y="355" on="1"/>
        <pt x="168" y="285" on="0"/>
        <pt x="168" y="211" on="1"/>
        <pt x="168" y="146" on="0"/>
        <pt x="224" y="69" on="0"/>
        <pt x="271" y="69" on="1"/>
        <pt x="330" y="69" on="0"/>
        <pt x="411" y="134" on="1"/>
        <pt x="451" y="74" on="1"/>
        <pt x="371" y="-8" on="0"/>
        <pt x="272" y="-12" on="1"/>
        <pt x="268" y="-12" on="1"/>
        <pt x="262" y="-48" on="1"/>
        <pt x="271" y="-44" on="0"/>
        <pt x="288" y="-44" on="1"/>
        <pt x="331" y="-44" on="0"/>
        <pt x="354" y="-74" on="1"/>
        <pt x="375" y="-99" on="0"/>
      </contour>
      <contour>
        <pt x="268" y="-12" on="1"/>
        <pt x="262" y="-48" on="1"/>
        <pt x="271" y="-44" on="0"/>
        <pt x="288" y="-44" on="1"/>
        <pt x="331" y="-44" on="0"/>
        <pt x="354" y="-74" on="1"/>
        <pt x="374" y="-100" on="0"/>
        <pt x="372" y="-135" on="1"/>
        <pt x="368" y="-171" on="0"/>
        <pt x="310" y="-224" on="0"/>
        <pt x="263" y="-224" on="1"/>
        <pt x="197" y="-224" on="0"/>
        <pt x="180" y="-175" on="1"/>
        <pt x="221" y="-140" on="1"/>
        <pt x="247" y="-173" on="0"/>
        <pt x="269" y="-173" on="1"/>
        <pt x="306" y="-173" on="0"/>
        <pt x="309" y="-138" on="1"/>
        <pt x="314" y="-98" on="0"/>
        <pt x="280" y="-98" on="1"/>
        <pt x="265" y="-98" on="0"/>
        <pt x="243" y="-114" on="1"/>
        <pt x="197" y="-92" on="1"/>
        <pt x="211" y="-8" on="1"/>
      </contour>
    </TTGlyph>
    <TTGlyph name="cedilla" xMin="5" yMin="-245" xMax="201" yMax="5">
      <contour>
        <pt x="5" y="-180" on="1"/>
        <pt x="50" y="-151" on="1"/>
        <pt x="77" y="-187" on="0"/>
        <pt x="106" y="-186" on="1"/>
        <pt x="114" y="-186" on="0"/>
        <pt x="134" y="-155" on="0"/>
        <pt x="135" y="-145" on="1"/>
        <pt x="137" y="-132" on="0"/>
        <pt x="124" y="-109" on="0"/>
        <pt x="118" y="-109" on="1"/>
        <pt x="88" y="-109" on="0"/>
        <pt x="79" y="-125" on="1"/>
        <pt x="23" y="-108" on="1"/>
        <pt x="41" y="4" on="1"/>
        <pt x="123" y="5" on="1"/>
        <pt x="116" y="-37" on="1"/>
        <pt x="119" y="-37" on="1"/>
        <pt x="162" y="-37" on="0"/>
        <pt x="184" y="-69" on="1"/>
        <pt x="203" y="-97" on="0"/>
        <pt x="201" y="-133" on="1"/>
        <pt x="197" y="-173" on="0"/>
        <pt x="174" y="-205" on="1"/>
        <pt x="145" y="-245" on="0"/>
        <pt x="99" y="-245" on="1"/>
        <pt x="27" y="-245" on="0"/>
      </contour>
    </TTGlyph>
    <TTGlyph name="cent" xMin="36" yMin="-91" xMax="469" yMax="604">
      <contour>
        <pt x="38" y="248" on="1"/>
        <pt x="50" y="364" on="0"/>
        <pt x="111" y="435" on="1"/>
        <pt x="162" y="497" on="0"/>
        <pt x="241" y="517" on="1"/>
        <pt x="250" y="604" on="1"/>
        <pt x="371" y="604" on="1"/>
        <pt x="361" y="518" on="1"/>
        <pt x="413" y="506" on="0"/>
        <pt x="469" y="458" on="1"/>
        <pt x="411" y="380" on="1"/>
        <pt x="363" y="422" on="0"/>
        <pt x="349" y="430" on="1"/>
        <pt x="324" y="446" on="0"/>
        <pt x="295" y="446" on="1"/>
        <pt x="233" y="446" on="0"/>
        <pt x="190" y="358" on="1"/>
        <pt x="155" y="285" on="0"/>
        <pt x="156" y="214" on="1"/>
        <pt x="156" y="149" on="0"/>
        <pt x="213" y="69" on="0"/>
        <pt x="253" y="69" on="1"/>
        <pt x="284" y="69" on="0"/>
        <pt x="316" y="88" on="1"/>
        <pt x="340" y="101" on="0"/>
        <pt x="388" y="143" on="1"/>
        <pt x="440" y="71" on="1"/>
        <pt x="373" y="9" on="0"/>
        <pt x="306" y="-10" on="1"/>
        <pt x="297" y="-91" on="1"/>
        <pt x="176" y="-91" on="1"/>
        <pt x="185" y="-11" on="1"/>
        <pt x="100" y="8" on="0"/>
        <pt x="63" y="84" on="1"/>
        <pt x="35" y="138" on="0"/>
        <pt x="36" y="213" on="1"/>
        <pt x="36" y="232" on="0"/>
      </contour>
    </TTGlyph>
    <TTGlyph name="circumflex" xMin="26" yMin="534" xMax="322" yMax="732">
      <contour>
        <pt x="26" y="534" on="1"/>
        <pt x="35" y="624" on="1"/>
        <pt x="187" y="732" on="1"/>
        <pt x="322" y="624" on="1"/>
        <pt x="312" y="535" on="1"/>
        <pt x="175" y="613" on="1"/>
      </contour>
    </TTGlyph>
    <TTGlyph name="colon" xMin="18" yMin="-9" xMax="233" yMax="518">
      <contour>
        <pt x="55" y="430" on="1"/>
        <pt x="59" y="467" on="0"/>
        <pt x="118" y="518" on="0"/>
        <pt x="154" y="518" on="1"/>
        <pt x="191" y="518" on="0"/>
        <pt x="238" y="467" on="0"/>
        <pt x="233" y="430" on="1"/>
        <pt x="229" y="393" on="0"/>
        <pt x="171" y="341" on="0"/>
        <pt x="135" y="341" on="1"/>
        <pt x="99" y="341" on="0"/>
        <pt x="51" y="393" on="0"/>
      </contour>
      <contour>
        <pt x="18" y="79" on="1"/>
        <pt x="22" y="116" on="0"/>
        <pt x="81" y="168" on="0"/>
        <pt x="117" y="168" on="1"/>
        <pt x="154" y="168" on="0"/>
        <pt x="201" y="116" on="0"/>
        <pt x="197" y="79" on="1"/>
        <pt x="193" y="42" on="0"/>
        <pt x="134" y="-9" on="0"/>
        <pt x="98" y="-9" on="1"/>
        <pt x="62" y="-9" on="0"/>
        <pt x="14" y="42" on="0"/>
      </contour>
    </TTGlyph>
    <TTGlyph name="comma" xMin="33" yMin="-110" xMax="191" yMax="87">
      <contour>
        <pt x="99" y="-110" on="1"/>
        <pt x="33" y="-96" on="1"/>
        <pt x="58" y="-54" on="0"/>
        <pt x="70" y="-1" on="1"/>
        <pt x="72" y="9" on="0"/>
        <pt x="84" y="87" on="1"/>
        <pt x="191" y="87" on="1"/>
        <pt x="187" y="50" on="0"/>
        <pt x="157" y="-14" on="1"/>
        <pt x="127" y="-75" on="0"/>
      </contour>
    </TTGlyph>
    <TTGlyph name="copyright" xMin="69" yMin="-15" xMax="746" yMax="663">
      <contour>
        <pt x="406" y="104" on="1"/>
        <pt x="317" y="104" on="0"/>
        <pt x="266" y="173" on="1"/>
        <pt x="222" y="233" on="0"/>
        <pt x="222" y="326" on="1"/>
        <pt x="222" y="413" on="0"/>
        <pt x="267" y="473" on="1"/>
        <pt x="318" y="542" on="0"/>
        <pt x="408" y="543" on="1"/>
        <pt x="469" y="543" on="0"/>
        <pt x="531" y="507" on="1"/>
        <pt x="507" y="455" on="1"/>
        <pt x="447" y="492" on="0"/>
        <pt x="411" y="492" on="1"/>
        <pt x="345" y="492" on="0"/>
        <pt x="309" y="429" on="1"/>
        <pt x="281" y="380" on="0"/>
        <pt x="282" y="317" on="1"/>
        <pt x="282" y="247" on="0"/>
        <pt x="353" y="157" on="0"/>
        <pt x="406" y="157" on="1"/>
        <pt x="460" y="157" on="0"/>
        <pt x="510" y="185" on="1"/>
        <pt x="536" y="142" on="1"/>
        <pt x="464" y="104" on="0"/>
      </contour>
      <contour>
        <pt x="135" y="324" on="1"/>
        <pt x="135" y="211" on="0"/>
        <pt x="295" y="51" on="0"/>
        <pt x="408" y="51" on="1"/>
        <pt x="521" y="51" on="0"/>
        <pt x="680" y="211" on="0"/>
        <pt x="680" y="324" on="1"/>
        <pt x="680" y="437" on="0"/>
        <pt x="520" y="596" on="0"/>
        <pt x="408" y="596" on="1"/>
        <pt x="295" y="596" on="0"/>
        <pt x="135" y="437" on="0"/>
      </contour>
      <contour>
        <pt x="69" y="324" on="1"/>
        <pt x="69" y="464" on="0"/>
        <pt x="267" y="663" on="0"/>
        <pt x="408" y="663" on="1"/>
        <pt x="548" y="663" on="0"/>
        <pt x="746" y="464" on="0"/>
        <pt x="746" y="324" on="1"/>
        <pt x="746" y="184" on="0"/>
        <pt x="548" y="-15" on="0"/>
        <pt x="408" y="-15" on="1"/>
        <pt x="268" y="-15" on="0"/>
        <pt x="69" y="184" on="0"/>
      </contour>
    </TTGlyph>
    <TTGlyph name="currency" xMin="27" yMin="0" xMax="467" yMax="655">
      <contour>
        <pt x="253" y="357" on="1"/>
        <pt x="248" y="311" on="1"/>
        <pt x="414" y="311" on="1"/>
        <pt x="406" y="231" on="1"/>
        <pt x="240" y="231" on="1"/>
        <pt x="227" y="112" on="1"/>
        <pt x="407" y="113" on="1"/>
        <pt x="394" y="0" on="1"/>
        <pt x="95" y="0" on="1"/>
        <pt x="120" y="231" on="1"/>
        <pt x="27" y="231" on="1"/>
        <pt x="35" y="311" on="1"/>
        <pt x="128" y="311" on="1"/>
        <pt x="133" y="358" on="1"/>
        <pt x="40" y="358" on="1"/>
        <pt x="49" y="447" on="1"/>
        <pt x="142" y="447" on="1"/>
        <pt x="165" y="655" on="1"/>
        <pt x="467" y="655" on="1"/>
        <pt x="456" y="548" on="1"/>
        <pt x="273" y="548" on="1"/>
        <pt x="262" y="447" on="1"/>
        <pt x="428" y="447" on="1"/>
        <pt x="419" y="357" on="1"/>
      </contour>
    </TTGlyph>
    <TTGlyph name="d" xMin="26" yMin="-13" xMax="497" yMax="714">
      <contour>
        <pt x="328" y="-1" on="1"/>
        <pt x="325" y="50" on="1"/>
        <pt x="292" y="31" on="0"/>
        <pt x="258" y="11" on="1"/>
        <pt x="213" y="-14" on="0"/>
        <pt x="189" y="-13" on="1"/>
        <pt x="106" y="-13" on="0"/>
        <pt x="62" y="56" on="1"/>
        <pt x="25" y="116" on="0"/>
        <pt x="26" y="210" on="1"/>
        <pt x="26" y="311" on="0"/>
        <pt x="75" y="411" on="1"/>
        <pt x="134" y="531" on="0"/>
        <pt x="223" y="530" on="1"/>
        <pt x="275" y="530" on="0"/>
        <pt x="302" y="518" on="1"/>
        <pt x="316" y="511" on="0"/>
        <pt x="361" y="473" on="1"/>
        <pt x="386" y="714" on="1"/>
        <pt x="497" y="714" on="1"/>
        <pt x="422" y="-1" on="1"/>
      </contour>
      <contour>
        <pt x="252" y="439" on="1"/>
        <pt x="168" y="439" on="0"/>
        <pt x="150" y="265" on="1"/>
        <pt x="148" y="239" on="0"/>
        <pt x="147" y="215" on="1"/>
        <pt x="147" y="77" on="0"/>
        <pt x="223" y="77" on="1"/>
        <pt x="254" y="77" on="0"/>
        <pt x="325" y="130" on="1"/>
        <pt x="348" y="350" on="1"/>
        <pt x="319" y="398" on="0"/>
        <pt x="310" y="409" on="1"/>
        <pt x="285" y="439" on="0"/>
      </contour>
    </TTGlyph>
    <TTGlyph name="dagger" xMin="24" yMin="341" xMax="197" yMax="671">
      <contour>
        <pt x="138" y="547" on="1"/>
        <pt x="138" y="341" on="1"/>
        <pt x="73" y="341" on="1"/>
        <pt x="73" y="547" on="1"/>
        <pt x="24" y="547" on="1"/>
        <pt x="24" y="614" on="1"/>
        <pt x="73" y="614" on="1"/>
        <pt x="73" y="671" on="1"/>
        <pt x="138" y="671" on="1"/>
        <pt x="138" y="614" on="1"/>
        <pt x="197" y="614" on="1"/>
        <pt x="197" y="547" on="1"/>
      </contour>
    </TTGlyph>
    <TTGlyph name="daggerdbl" xMin="4" yMin="251" xMax="208" yMax="671">
      <contour>
        <pt x="144" y="392" on="1"/>
        <pt x="144" y="251" on="1"/>
        <pt x="66" y="251" on="1"/>
        <pt x="66" y="392" on="1"/>
        <pt x="4" y="392" on="1"/>
        <pt x="4" y="453" on="1"/>
        <pt x="66" y="453" on="1"/>
        <pt x="66" y="535" on="1"/>
        <pt x="4" y="535" on="1"/>
        <pt x="4" y="594" on="1"/>
        <pt x="66" y="594" on="1"/>
        <pt x="66" y="671" on="1"/>
        <pt x="144" y="671" on="1"/>
        <pt x="144" y="594" on="1"/>
        <pt x="208" y="594" on="1"/>
        <pt x="208" y="535" on="1"/>
        <pt x="144" y="535" on="1"/>
        <pt x="144" y="453" on="1"/>
        <pt x="208" y="453" on="1"/>
        <pt x="208" y="392" on="1"/>
      </contour>
    </TTGlyph>
    <TTGlyph name="degree" xMin="-5" yMin="453" xMax="285" yMax="739">
      <contour>
        <pt x="285" y="596" on="1"/>
        <pt x="279" y="537" on="0"/>
        <pt x="187" y="453" on="0"/>
        <pt x="126" y="453" on="1"/>
        <pt x="65" y="453" on="0"/>
        <pt x="-11" y="537" on="0"/>
        <pt x="-5" y="596" on="1"/>
        <pt x="1" y="655" on="0"/>
        <pt x="94" y="739" on="0"/>
        <pt x="157" y="739" on="1"/>
        <pt x="218" y="739" on="0"/>
        <pt x="291" y="655" on="0"/>
      </contour>
      <contour>
        <pt x="70" y="596" on="1"/>
        <pt x="67" y="565" on="0"/>
        <pt x="102" y="524" on="0"/>
        <pt x="134" y="524" on="1"/>
        <pt x="164" y="524" on="0"/>
        <pt x="207" y="565" on="0"/>
        <pt x="210" y="596" on="1"/>
        <pt x="213" y="627" on="0"/>
        <pt x="179" y="668" on="0"/>
        <pt x="148" y="668" on="1"/>
        <pt x="117" y="668" on="0"/>
        <pt x="73" y="627" on="0"/>
      </contour>
    </TTGlyph>
    <TTGlyph name="dieresis" xMin="-26" yMin="569" xMax="333" yMax="717">
      <contour>
        <pt x="189" y="643" on="1"/>
        <pt x="192" y="671" on="0"/>
        <pt x="211" y="691" on="1"/>
        <pt x="234" y="717" on="0"/>
        <pt x="269" y="717" on="1"/>
        <pt x="303" y="717" on="0"/>
        <pt x="321" y="691" on="1"/>
        <pt x="336" y="669" on="0"/>
        <pt x="333" y="643" on="1"/>
        <pt x="330" y="615" on="0"/>
        <pt x="310" y="594" on="1"/>
        <pt x="286" y="569" on="0"/>
        <pt x="253" y="569" on="1"/>
        <pt x="219" y="569" on="0"/>
        <pt x="202" y="594" on="1"/>
        <pt x="186" y="614" on="0"/>
      </contour>
      <contour>
        <pt x="-26" y="643" on="1"/>
        <pt x="-23" y="670" on="0"/>
        <pt x="-3" y="691" on="1"/>
        <pt x="20" y="717" on="0"/>
        <pt x="88" y="717" on="0"/>
        <pt x="105" y="691" on="1"/>
        <pt x="120" y="669" on="0"/>
        <pt x="118" y="643" on="1"/>
        <pt x="115" y="615" on="0"/>
        <pt x="95" y="594" on="1"/>
        <pt x="72" y="569" on="0"/>
        <pt x="4" y="569" on="0"/>
        <pt x="-13" y="594" on="1"/>
        <pt x="-29" y="614" on="0"/>
      </contour>
    </TTGlyph>
    <TTGlyph name="divide" xMin="53" yMin="65" xMax="467" yMax="572">
      <contour>
        <pt x="195" y="492" on="1"/>
        <pt x="195" y="526" on="0"/>
        <pt x="238" y="572" on="0"/>
        <pt x="268" y="572" on="1"/>
        <pt x="300" y="572" on="0"/>
        <pt x="343" y="525" on="0"/>
        <pt x="343" y="459" on="0"/>
        <pt x="300" y="412" on="0"/>
        <pt x="268" y="412" on="1"/>
        <pt x="237" y="412" on="0"/>
        <pt x="195" y="459" on="0"/>
      </contour>
      <contour>
        <pt x="53" y="369" on="1"/>
        <pt x="467" y="369" on="1"/>
        <pt x="467" y="266" on="1"/>
        <pt x="53" y="266" on="1"/>
      </contour>
      <contour>
        <pt x="195" y="145" on="1"/>
        <pt x="195" y="178" on="0"/>
        <pt x="238" y="225" on="0"/>
        <pt x="268" y="225" on="1"/>
        <pt x="300" y="225" on="0"/>
        <pt x="343" y="178" on="0"/>
        <pt x="343" y="145" on="1"/>
        <pt x="343" y="111" on="0"/>
        <pt x="300" y="65" on="0"/>
        <pt x="268" y="65" on="1"/>
        <pt x="237" y="65" on="0"/>
        <pt x="195" y="111" on="0"/>
      </contour>
    </TTGlyph>
    <TTGlyph name="dollar" xMin="50" yMin="-102" xMax="479" yMax="707">
      <contour>
        <pt x="293" y="-102" on="1"/>
        <pt x="173" y="-102" on="1"/>
        <pt x="183" y="-10" on="1"/>
        <pt x="94" y="7" on="0"/>
        <pt x="50" y="82" on="1"/>
        <pt x="126" y="163" on="1"/>
        <pt x="180" y="86" on="0"/>
        <pt x="248" y="86" on="1"/>
        <pt x="282" y="86" on="0"/>
        <pt x="335" y="138" on="0"/>
        <pt x="339" y="178" on="1"/>
        <pt x="343" y="221" on="0"/>
        <pt x="285" y="247" on="1"/>
        <pt x="179" y="294" on="0"/>
        <pt x="172" y="298" on="1"/>
        <pt x="111" y="341" on="0"/>
        <pt x="111" y="422" on="1"/>
        <pt x="111" y="436" on="0"/>
        <pt x="112" y="452" on="1"/>
        <pt x="119" y="510" on="0"/>
        <pt x="158" y="555" on="1"/>
        <pt x="195" y="597" on="0"/>
        <pt x="249" y="615" on="1"/>
        <pt x="259" y="707" on="1"/>
        <pt x="379" y="707" on="1"/>
        <pt x="369" y="618" on="1"/>
        <pt x="420" y="604" on="0"/>
        <pt x="479" y="550" on="1"/>
        <pt x="408" y="471" on="1"/>
        <pt x="352" y="526" on="0"/>
        <pt x="304" y="526" on="1"/>
        <pt x="275" y="526" on="0"/>
        <pt x="236" y="484" on="0"/>
        <pt x="231" y="446" on="1"/>
        <pt x="227" y="409" on="0"/>
        <pt x="286" y="388" on="1"/>
        <pt x="377" y="354" on="0"/>
        <pt x="396" y="341" on="1"/>
        <pt x="456" y="298" on="0"/>
        <pt x="457" y="210" on="1"/>
        <pt x="457" y="196" on="0"/>
        <pt x="455" y="179" on="1"/>
        <pt x="441" y="33" on="0"/>
        <pt x="303" y="-7" on="1"/>
      </contour>
    </TTGlyph>
    <TTGlyph name="dotaccent" xMin="56" yMin="520" xMax="206" yMax="659">
      <contour>
        <pt x="56" y="590" on="1"/>
        <pt x="59" y="620" on="0"/>
        <pt x="106" y="659" on="0"/>
        <pt x="138" y="659" on="1"/>
        <pt x="169" y="659" on="0"/>
        <pt x="209" y="618" on="0"/>
        <pt x="206" y="590" on="1"/>
        <pt x="203" y="561" on="0"/>
        <pt x="155" y="520" on="0"/>
        <pt x="124" y="520" on="1"/>
        <pt x="92" y="520" on="0"/>
        <pt x="53" y="561" on="0"/>
      </contour>
    </TTGlyph>
    <TTGlyph name="dotlessi" xMin="38" yMin="0" xMax="201" yMax="507">
      <contour>
        <pt x="91" y="507" on="1"/>
        <pt x="201" y="507" on="1"/>
        <pt x="147" y="0" on="1"/>
        <pt x="38" y="0" on="1"/>
      </contour>
    </TTGlyph>
    <TTGlyph name="e" xMin="38" yMin="-12" xMax="473" yMax="522">
      <contour>
        <pt x="262" y="70" on="1"/>
        <pt x="329" y="69" on="0"/>
        <pt x="402" y="134" on="1"/>
        <pt x="441" y="72" on="1"/>
        <pt x="383" y="21" on="0"/>
        <pt x="304" y="-12" on="0"/>
        <pt x="247" y="-12" on="1"/>
        <pt x="127" y="-12" on="0"/>
        <pt x="75" y="76" on="1"/>
        <pt x="38" y="136" on="0"/>
        <pt x="38" y="223" on="1"/>
        <pt x="38" y="239" on="0"/>
        <pt x="40" y="253" on="1"/>
        <pt x="52" y="369" on="0"/>
        <pt x="121" y="443" on="1"/>
        <pt x="195" y="522" on="0"/>
        <pt x="306" y="522" on="1"/>
        <pt x="377" y="522" on="0"/>
        <pt x="423" y="478" on="1"/>
        <pt x="473" y="430" on="0"/>
        <pt x="473" y="349" on="1"/>
        <pt x="473" y="335" on="0"/>
        <pt x="472" y="321" on="1"/>
        <pt x="464" y="244" on="1"/>
        <pt x="161" y="244" on="1"/>
        <pt x="159" y="219" on="0"/>
        <pt x="159" y="200" on="1"/>
        <pt x="159" y="71" on="0"/>
      </contour>
      <contour>
        <pt x="361" y="331" on="1"/>
        <pt x="363" y="346" on="0"/>
        <pt x="364" y="359" on="1"/>
        <pt x="364" y="442" on="0"/>
        <pt x="291" y="442" on="1"/>
        <pt x="257" y="442" on="0"/>
        <pt x="226" y="416" on="1"/>
        <pt x="192" y="385" on="0"/>
        <pt x="177" y="331" on="1"/>
      </contour>
    </TTGlyph>
    <TTGlyph name="eacute" xMin="38" yMin="-12" xMax="473" yMax="732">
      <contour>
        <pt x="159" y="641" on="1"/>
        <pt x="388" y="732" on="1"/>
        <pt x="413" y="652" on="1"/>
        <pt x="184" y="567" on="1"/>
      </contour>
      <contour>
        <pt x="262" y="70" on="1"/>
        <pt x="329" y="69" on="0"/>
        <pt x="402" y="134" on="1"/>
        <pt x="441" y="72" on="1"/>
        <pt x="383" y="21" on="0"/>
        <pt x="304" y="-12" on="0"/>
        <pt x="247" y="-12" on="1"/>
        <pt x="127" y="-12" on="0"/>
        <pt x="75" y="76" on="1"/>
        <pt x="38" y="136" on="0"/>
        <pt x="38" y="223" on="1"/>
        <pt x="38" y="239" on="0"/>
        <pt x="40" y="253" on="1"/>
        <pt x="52" y="369" on="0"/>
        <pt x="121" y="443" on="1"/>
        <pt x="195" y="522" on="0"/>
        <pt x="306" y="522" on="1"/>
        <pt x="377" y="522" on="0"/>
        <pt x="423" y="478" on="1"/>
        <pt x="473" y="430" on="0"/>
        <pt x="473" y="349" on="1"/>
        <pt x="473" y="335" on="0"/>
        <pt x="472" y="321" on="1"/>
        <pt x="464" y="244" on="1"/>
        <pt x="161" y="244" on="1"/>
        <pt x="159" y="219" on="0"/>
        <pt x="159" y="200" on="1"/>
        <pt x="159" y="71" on="0"/>
      </contour>
      <contour>
        <pt x="361" y="331" on="1"/>
        <pt x="363" y="346" on="0"/>
        <pt x="364" y="359" on="1"/>
        <pt x="364" y="442" on="0"/>
        <pt x="291" y="442" on="1"/>
        <pt x="257" y="442" on="0"/>
        <pt x="226" y="416" on="1"/>
        <pt x="192" y="385" on="0"/>
        <pt x="177" y="331" on="1"/>
      </contour>
    </TTGlyph>
    <TTGlyph name="ecircumflex" xMin="38" yMin="-12" xMax="473" yMax="773">
      <contour>
        <pt x="159" y="574" on="1"/>
        <pt x="168" y="665" on="1"/>
        <pt x="321" y="773" on="1"/>
        <pt x="455" y="665" on="1"/>
        <pt x="445" y="575" on="1"/>
        <pt x="308" y="654" on="1"/>
      </contour>
      <contour>
        <pt x="262" y="70" on="1"/>
        <pt x="329" y="69" on="0"/>
        <pt x="402" y="134" on="1"/>
        <pt x="441" y="72" on="1"/>
        <pt x="383" y="21" on="0"/>
        <pt x="304" y="-12" on="0"/>
        <pt x="247" y="-12" on="1"/>
        <pt x="127" y="-12" on="0"/>
        <pt x="75" y="76" on="1"/>
        <pt x="38" y="136" on="0"/>
        <pt x="38" y="223" on="1"/>
        <pt x="38" y="239" on="0"/>
        <pt x="40" y="253" on="1"/>
        <pt x="52" y="369" on="0"/>
        <pt x="121" y="443" on="1"/>
        <pt x="195" y="522" on="0"/>
        <pt x="306" y="522" on="1"/>
        <pt x="377" y="522" on="0"/>
        <pt x="423" y="478" on="1"/>
        <pt x="473" y="430" on="0"/>
        <pt x="473" y="349" on="1"/>
        <pt x="473" y="335" on="0"/>
        <pt x="472" y="321" on="1"/>
        <pt x="464" y="244" on="1"/>
        <pt x="161" y="244" on="1"/>
        <pt x="159" y="219" on="0"/>
        <pt x="159" y="200" on="1"/>
        <pt x="159" y="71" on="0"/>
      </contour>
      <contour>
        <pt x="361" y="331" on="1"/>
        <pt x="363" y="346" on="0"/>
        <pt x="364" y="359" on="1"/>
        <pt x="364" y="442" on="0"/>
        <pt x="291" y="442" on="1"/>
        <pt x="257" y="442" on="0"/>
        <pt x="226" y="416" on="1"/>
        <pt x="192" y="385" on="0"/>
        <pt x="177" y="331" on="1"/>
      </contour>
    </TTGlyph>
    <TTGlyph name="edieresis" xMin="37" yMin="-12" xMax="462" yMax="700">
      <component glyphName="dieresis" x="102" y="0" flags="0x1004"/>
      <component glyphName="e" x="0" y="0" flags="0x1004"/>
    </TTGlyph>
    <TTGlyph name="egrave" xMin="38" yMin="-12" xMax="473" yMax="732">
      <contour>
        <pt x="443" y="641" on="1"/>
        <pt x="232" y="732" on="1"/>
        <pt x="181" y="652" on="1"/>
        <pt x="391" y="567" on="1"/>
      </contour>
      <contour>
        <pt x="262" y="70" on="1"/>
        <pt x="329" y="69" on="0"/>
        <pt x="402" y="134" on="1"/>
        <pt x="441" y="72" on="1"/>
        <pt x="383" y="21" on="0"/>
        <pt x="304" y="-12" on="0"/>
        <pt x="247" y="-12" on="1"/>
        <pt x="127" y="-12" on="0"/>
        <pt x="75" y="76" on="1"/>
        <pt x="38" y="136" on="0"/>
        <pt x="38" y="223" on="1"/>
        <pt x="38" y="239" on="0"/>
        <pt x="40" y="253" on="1"/>
        <pt x="52" y="369" on="0"/>
        <pt x="121" y="443" on="1"/>
        <pt x="195" y="522" on="0"/>
        <pt x="306" y="522" on="1"/>
        <pt x="377" y="522" on="0"/>
        <pt x="423" y="478" on="1"/>
        <pt x="473" y="430" on="0"/>
        <pt x="473" y="349" on="1"/>
        <pt x="473" y="335" on="0"/>
        <pt x="472" y="321" on="1"/>
        <pt x="464" y="244" on="1"/>
        <pt x="161" y="244" on="1"/>
        <pt x="159" y="219" on="0"/>
        <pt x="159" y="200" on="1"/>
        <pt x="159" y="71" on="0"/>
      </contour>
      <contour>
        <pt x="361" y="331" on="1"/>
        <pt x="363" y="346" on="0"/>
        <pt x="364" y="359" on="1"/>
        <pt x="364" y="442" on="0"/>
        <pt x="291" y="442" on="1"/>
        <pt x="257" y="442" on="0"/>
        <pt x="226" y="416" on="1"/>
        <pt x="192" y="385" on="0"/>
        <pt x="177" y="331" on="1"/>
      </contour>
    </TTGlyph>
    <TTGlyph name="eight" xMin="20" yMin="-29" xMax="470" yMax="674">
      <contour>
        <pt x="128" y="183" on="1"/>
        <pt x="121" y="121" on="0"/>
        <pt x="157" y="87" on="1"/>
        <pt x="186" y="59" on="0"/>
        <pt x="226" y="59" on="1"/>
        <pt x="274" y="59" on="0"/>
        <pt x="347" y="130" on="0"/>
        <pt x="353" y="183" on="1"/>
        <pt x="362" y="274" on="0"/>
        <pt x="257" y="318" on="1"/>
        <pt x="136" y="260" on="0"/>
      </contour>
      <contour>
        <pt x="197" y="509" on="1"/>
        <pt x="202" y="439" on="0"/>
        <pt x="266" y="411" on="1"/>
        <pt x="362" y="447" on="0"/>
        <pt x="369" y="507" on="1"/>
        <pt x="373" y="544" on="0"/>
        <pt x="328" y="597" on="0"/>
        <pt x="293" y="597" on="1"/>
        <pt x="261" y="597" on="0"/>
        <pt x="234" y="575" on="1"/>
        <pt x="205" y="551" on="0"/>
      </contour>
      <contour>
        <pt x="22" y="181" on="1"/>
        <pt x="34" y="290" on="0"/>
        <pt x="180" y="360" on="1"/>
        <pt x="80" y="431" on="0"/>
        <pt x="88" y="506" on="1"/>
        <pt x="97" y="591" on="0"/>
        <pt x="165" y="636" on="1"/>
        <pt x="222" y="674" on="0"/>
        <pt x="301" y="674" on="1"/>
        <pt x="369" y="674" on="0"/>
        <pt x="414" y="640" on="1"/>
        <pt x="465" y="603" on="0"/>
        <pt x="465" y="535" on="1"/>
        <pt x="465" y="441" on="0"/>
        <pt x="349" y="367" on="1"/>
        <pt x="470" y="298" on="0"/>
        <pt x="470" y="203" on="1"/>
        <pt x="470" y="98" on="0"/>
        <pt x="397" y="33" on="1"/>
        <pt x="328" y="-28" on="0"/>
        <pt x="221" y="-29" on="1"/>
        <pt x="133" y="-29" on="0"/>
        <pt x="80" y="15" on="1"/>
        <pt x="21" y="63" on="0"/>
        <pt x="20" y="153" on="1"/>
        <pt x="21" y="166" on="0"/>
      </contour>
    </TTGlyph>
    <TTGlyph name="ellipsis" xMin="128" yMin="-37" xMax="795" yMax="145">
      <contour>
        <pt x="617" y="54" on="1"/>
        <pt x="621" y="97" on="0"/>
        <pt x="652" y="123" on="1"/>
        <pt x="680" y="146" on="0"/>
        <pt x="716" y="145" on="1"/>
        <pt x="753" y="145" on="0"/>
        <pt x="799" y="97" on="0"/>
        <pt x="795" y="54" on="1"/>
        <pt x="791" y="12" on="0"/>
        <pt x="733" y="-37" on="0"/>
        <pt x="697" y="-37" on="1"/>
        <pt x="660" y="-37" on="0"/>
        <pt x="613" y="12" on="0"/>
      </contour>
      <contour>
        <pt x="373" y="54" on="1"/>
        <pt x="377" y="97" on="0"/>
        <pt x="408" y="123" on="1"/>
        <pt x="436" y="146" on="0"/>
        <pt x="471" y="145" on="1"/>
        <pt x="508" y="145" on="0"/>
        <pt x="554" y="97" on="0"/>
        <pt x="550" y="54" on="1"/>
        <pt x="546" y="12" on="0"/>
        <pt x="488" y="-37" on="0"/>
        <pt x="453" y="-37" on="1"/>
        <pt x="416" y="-37" on="0"/>
        <pt x="369" y="12" on="0"/>
      </contour>
      <contour>
        <pt x="128" y="54" on="1"/>
        <pt x="132" y="97" on="0"/>
        <pt x="163" y="123" on="1"/>
        <pt x="191" y="146" on="0"/>
        <pt x="226" y="145" on="1"/>
        <pt x="263" y="145" on="0"/>
        <pt x="309" y="97" on="0"/>
        <pt x="305" y="54" on="1"/>
        <pt x="301" y="12" on="0"/>
        <pt x="244" y="-37" on="0"/>
        <pt x="208" y="-37" on="1"/>
        <pt x="171" y="-37" on="0"/>
        <pt x="124" y="12" on="0"/>
      </contour>
    </TTGlyph>
    <TTGlyph name="emdash" xMin="28" yMin="299" xMax="996" yMax="372">
      <contour>
        <pt x="28" y="372" on="1"/>
        <pt x="996" y="372" on="1"/>
        <pt x="996" y="299" on="1"/>
        <pt x="28" y="299" on="1"/>
      </contour>
    </TTGlyph>
    <TTGlyph name="endash" xMin="35" yMin="299" xMax="477" yMax="372">
      <contour>
        <pt x="35" y="372" on="1"/>
        <pt x="477" y="372" on="1"/>
        <pt x="477" y="299" on="1"/>
        <pt x="35" y="299" on="1"/>
      </contour>
    </TTGlyph>
    <TTGlyph name="equal" xMin="91" yMin="128" xMax="420" yMax="360">
      <contour>
        <pt x="91" y="360" on="1"/>
        <pt x="420" y="360" on="1"/>
        <pt x="420" y="260" on="1"/>
        <pt x="91" y="260" on="1"/>
      </contour>
      <contour>
        <pt x="91" y="228" on="1"/>
        <pt x="420" y="228" on="1"/>
        <pt x="420" y="128" on="1"/>
        <pt x="91" y="128" on="1"/>
      </contour>
    </TTGlyph>
    <TTGlyph name="eth" xMin="24" yMin="-17" xMax="584" yMax="754">
      <contour>
        <pt x="297" y="459" on="1"/>
        <pt x="225" y="459" on="0"/>
        <pt x="182" y="377" on="1"/>
        <pt x="145" y="309" on="0"/>
        <pt x="145" y="231" on="1"/>
        <pt x="145" y="163" on="0"/>
        <pt x="176" y="113" on="1"/>
        <pt x="209" y="58" on="0"/>
        <pt x="257" y="57" on="1"/>
        <pt x="323" y="57" on="0"/>
        <pt x="364" y="119" on="1"/>
        <pt x="400" y="172" on="0"/>
        <pt x="409" y="254" on="1"/>
        <pt x="420" y="354" on="0"/>
        <pt x="420" y="353" on="1"/>
        <pt x="354" y="459" on="0"/>
      </contour>
      <contour>
        <pt x="326" y="634" on="1"/>
        <pt x="315" y="654" on="0"/>
        <pt x="275" y="699" on="1"/>
        <pt x="358" y="754" on="1"/>
        <pt x="411" y="695" on="0"/>
        <pt x="446" y="634" on="1"/>
        <pt x="584" y="634" on="1"/>
        <pt x="577" y="559" on="1"/>
        <pt x="500" y="559" on="1"/>
        <pt x="532" y="467" on="0"/>
        <pt x="531" y="335" on="1"/>
        <pt x="531" y="306" on="0"/>
        <pt x="529" y="286" on="1"/>
        <pt x="493" y="-17" on="0"/>
        <pt x="228" y="-17" on="1"/>
        <pt x="130" y="-17" on="0"/>
        <pt x="74" y="58" on="1"/>
        <pt x="24" y="125" on="0"/>
        <pt x="24" y="222" on="1"/>
        <pt x="24" y="355" on="0"/>
        <pt x="98" y="442" on="1"/>
        <pt x="176" y="533" on="0"/>
        <pt x="307" y="534" on="1"/>
        <pt x="334" y="534" on="0"/>
        <pt x="414" y="475" on="1"/>
        <pt x="416" y="498" on="0"/>
        <pt x="396" y="527" on="1"/>
        <pt x="384" y="542" on="0"/>
        <pt x="372" y="559" on="1"/>
        <pt x="228" y="559" on="1"/>
        <pt x="236" y="634" on="1"/>
      </contour>
    </TTGlyph>
    <TTGlyph name="exclam" xMin="7" yMin="-34" xMax="224" yMax="702">
      <contour>
        <pt x="41" y="176" on="1"/>
        <pt x="96" y="702" on="1"/>
        <pt x="224" y="702" on="1"/>
        <pt x="169" y="176" on="1"/>
      </contour>
      <contour>
        <pt x="7" y="45" on="1"/>
        <pt x="11" y="78" on="0"/>
        <pt x="60" y="125" on="0"/>
        <pt x="94" y="125" on="1"/>
        <pt x="127" y="125" on="0"/>
        <pt x="170" y="78" on="0"/>
        <pt x="166" y="45" on="1"/>
        <pt x="163" y="11" on="0"/>
        <pt x="111" y="-34" on="0"/>
        <pt x="77" y="-34" on="1"/>
        <pt x="45" y="-34" on="0"/>
        <pt x="4" y="12" on="0"/>
      </contour>
    </TTGlyph>
    <TTGlyph name="exclamdown" xMin="4" yMin="-105" xMax="232" yMax="743">
      <contour>
        <pt x="197" y="513" on="1"/>
        <pt x="131" y="-105" on="1"/>
        <pt x="4" y="-105" on="1"/>
        <pt x="70" y="513" on="1"/>
      </contour>
      <contour>
        <pt x="232" y="665" on="1"/>
        <pt x="229" y="632" on="0"/>
        <pt x="178" y="585" on="0"/>
        <pt x="144" y="585" on="1"/>
        <pt x="112" y="585" on="0"/>
        <pt x="71" y="632" on="0"/>
        <pt x="74" y="665" on="1"/>
        <pt x="78" y="698" on="0"/>
        <pt x="129" y="743" on="0"/>
        <pt x="162" y="743" on="1"/>
        <pt x="195" y="743" on="0"/>
        <pt x="236" y="698" on="0"/>
      </contour>
    </TTGlyph>
    <TTGlyph name="f" xMin="23" yMin="0" xMax="394" yMax="764">
      <contour>
        <pt x="270" y="673" on="1"/>
        <pt x="234" y="674" on="0"/>
        <pt x="221" y="608" on="1"/>
        <pt x="221" y="608" on="0"/>
        <pt x="211" y="510" on="1"/>
        <pt x="338" y="510" on="1"/>
        <pt x="329" y="418" on="1"/>
        <pt x="202" y="418" on="1"/>
        <pt x="158" y="0" on="1"/>
        <pt x="50" y="0" on="1"/>
        <pt x="94" y="418" on="1"/>
        <pt x="23" y="418" on="1"/>
        <pt x="32" y="510" on="1"/>
        <pt x="103" y="510" on="1"/>
        <pt x="110" y="564" on="1"/>
        <pt x="130" y="764" on="0"/>
        <pt x="279" y="764" on="1"/>
        <pt x="326" y="764" on="0"/>
        <pt x="349" y="750" on="1"/>
        <pt x="353" y="747" on="0"/>
        <pt x="394" y="707" on="1"/>
        <pt x="338" y="638" on="1"/>
        <pt x="302" y="672" on="0"/>
      </contour>
    </TTGlyph>
    <TTGlyph name="fi" xMin="23" yMin="0" xMax="456" yMax="766">
      <contour>
        <pt x="284" y="673" on="1"/>
        <pt x="225" y="674" on="0"/>
        <pt x="212" y="510" on="1"/>
        <pt x="456" y="510" on="1"/>
        <pt x="402" y="0" on="1"/>
        <pt x="289" y="0" on="1"/>
        <pt x="333" y="418" on="1"/>
        <pt x="202" y="418" on="1"/>
        <pt x="158" y="0" on="1"/>
        <pt x="50" y="0" on="1"/>
        <pt x="94" y="418" on="1"/>
        <pt x="23" y="418" on="1"/>
        <pt x="32" y="510" on="1"/>
        <pt x="103" y="510" on="1"/>
        <pt x="110" y="565" on="1"/>
        <pt x="117" y="636" on="0"/>
        <pt x="153" y="690" on="1"/>
        <pt x="203" y="766" on="0"/>
        <pt x="293" y="766" on="1"/>
        <pt x="341" y="766" on="0"/>
        <pt x="370" y="753" on="1"/>
        <pt x="374" y="750" on="0"/>
        <pt x="431" y="711" on="1"/>
        <pt x="366" y="636" on="1"/>
        <pt x="316" y="672" on="0"/>
      </contour>
    </TTGlyph>
    <TTGlyph name="five" xMin="-1" yMin="-25" xMax="469" yMax="659">
      <contour>
        <pt x="-1" y="66" on="1"/>
        <pt x="56" y="141" on="1"/>
        <pt x="111" y="62" on="0"/>
        <pt x="203" y="62" on="1"/>
        <pt x="260" y="62" on="0"/>
        <pt x="307" y="116" on="1"/>
        <pt x="348" y="163" on="0"/>
        <pt x="353" y="212" on="1"/>
        <pt x="354" y="223" on="0"/>
        <pt x="354" y="232" on="1"/>
        <pt x="354" y="330" on="0"/>
        <pt x="249" y="331" on="1"/>
        <pt x="229" y="331" on="0"/>
        <pt x="194" y="310" on="1"/>
        <pt x="155" y="288" on="0"/>
        <pt x="132" y="260" on="1"/>
        <pt x="50" y="281" on="1"/>
        <pt x="90" y="659" on="1"/>
        <pt x="469" y="659" on="1"/>
        <pt x="457" y="546" on="1"/>
        <pt x="160" y="546" on="1"/>
        <pt x="140" y="355" on="1"/>
        <pt x="163" y="384" on="0"/>
        <pt x="199" y="406" on="1"/>
        <pt x="243" y="433" on="0"/>
        <pt x="286" y="432" on="1"/>
        <pt x="365" y="432" on="0"/>
        <pt x="416" y="381" on="1"/>
        <pt x="469" y="327" on="0"/>
        <pt x="469" y="239" on="1"/>
        <pt x="469" y="124" on="0"/>
        <pt x="303" y="-25" on="0"/>
        <pt x="186" y="-25" on="1"/>
        <pt x="45" y="-24" on="0"/>
      </contour>
    </TTGlyph>
    <TTGlyph name="fl" xMin="24" yMin="0" xMax="513" yMax="735">
      <contour>
        <pt x="394" y="655" on="1"/>
        <pt x="400" y="716" on="1"/>
        <pt x="513" y="716" on="1"/>
        <pt x="437" y="1" on="1"/>
        <pt x="325" y="1" on="1"/>
        <pt x="387" y="596" on="1"/>
        <pt x="348" y="643" on="0"/>
        <pt x="283" y="643" on="1"/>
        <pt x="227" y="643" on="0"/>
        <pt x="219" y="572" on="1"/>
        <pt x="213" y="510" on="1"/>
        <pt x="304" y="510" on="1"/>
        <pt x="294" y="418" on="1"/>
        <pt x="203" y="418" on="1"/>
        <pt x="159" y="0" on="1"/>
        <pt x="51" y="0" on="1"/>
        <pt x="95" y="418" on="1"/>
        <pt x="24" y="418" on="1"/>
        <pt x="34" y="510" on="1"/>
        <pt x="105" y="510" on="1"/>
        <pt x="108" y="535" on="1"/>
        <pt x="130" y="736" on="0"/>
        <pt x="271" y="735" on="1"/>
        <pt x="332" y="735" on="0"/>
      </contour>
    </TTGlyph>
    <TTGlyph name="florin" xMin="24" yMin="-126" xMax="420" yMax="728">
      <contour>
        <pt x="273" y="621" on="1"/>
        <pt x="222" y="621" on="0"/>
        <pt x="213" y="511" on="1"/>
        <pt x="342" y="511" on="1"/>
        <pt x="333" y="409" on="1"/>
        <pt x="207" y="409" on="1"/>
        <pt x="160" y="-125" on="1"/>
        <pt x="49" y="-126" on="1"/>
        <pt x="97" y="407" on="1"/>
        <pt x="24" y="406" on="1"/>
        <pt x="34" y="509" on="1"/>
        <pt x="105" y="510" on="1"/>
        <pt x="127" y="726" on="0"/>
        <pt x="280" y="728" on="1"/>
        <pt x="327" y="728" on="0"/>
        <pt x="356" y="714" on="1"/>
        <pt x="361" y="711" on="0"/>
        <pt x="420" y="670" on="1"/>
        <pt x="359" y="584" on="1"/>
        <pt x="303" y="621" on="0"/>
      </contour>
    </TTGlyph>
    <TTGlyph name="four" xMin="-3" yMin="0" xMax="482" yMax="667">
      <contour>
        <pt x="130" y="236" on="1"/>
        <pt x="282" y="236" on="1"/>
        <pt x="307" y="475" on="1"/>
      </contour>
      <contour>
        <pt x="369" y="0" on="1"/>
        <pt x="257" y="0" on="1"/>
        <pt x="272" y="144" on="1"/>
        <pt x="-3" y="144" on="1"/>
        <pt x="5" y="222" on="1"/>
        <pt x="342" y="667" on="1"/>
        <pt x="438" y="667" on="1"/>
        <pt x="393" y="236" on="1"/>
        <pt x="482" y="236" on="1"/>
        <pt x="473" y="144" on="1"/>
        <pt x="384" y="144" on="1"/>
      </contour>
    </TTGlyph>
    <TTGlyph name="fraction" xMin="33" yMin="61" xMax="554" yMax="608">
      <contour>
        <pt x="33" y="129" on="1"/>
        <pt x="455" y="608" on="1"/>
        <pt x="554" y="541" on="1"/>
        <pt x="132" y="61" on="1"/>
      </contour>
    </TTGlyph>
    <TTGlyph name="g" xMin="15" yMin="-245" xMax="563" yMax="517">
      <contour>
        <pt x="458" y="331" on="1"/>
        <pt x="450" y="249" on="0"/>
        <pt x="330" y="140" on="0"/>
        <pt x="248" y="140" on="1"/>
        <pt x="221" y="140" on="0"/>
        <pt x="191" y="150" on="1"/>
        <pt x="173" y="134" on="0"/>
        <pt x="154" y="106" on="1"/>
        <pt x="151" y="74" on="0"/>
        <pt x="197" y="69" on="1"/>
        <pt x="204" y="68" on="0"/>
        <pt x="270" y="68" on="1"/>
        <pt x="372" y="68" on="0"/>
        <pt x="400" y="58" on="1"/>
        <pt x="460" y="39" on="0"/>
        <pt x="461" y="-36" on="1"/>
        <pt x="461" y="-48" on="0"/>
        <pt x="460" y="-61" on="1"/>
        <pt x="450" y="-152" on="0"/>
        <pt x="340" y="-205" on="1"/>
        <pt x="256" y="-245" on="0"/>
        <pt x="173" y="-245" on="1"/>
        <pt x="96" y="-245" on="0"/>
        <pt x="9" y="-179" on="0"/>
        <pt x="15" y="-120" on="1"/>
        <pt x="20" y="-65" on="0"/>
        <pt x="118" y="-6" on="1"/>
        <pt x="78" y="-6" on="0"/>
        <pt x="55" y="18" on="1"/>
        <pt x="35" y="40" on="0"/>
        <pt x="38" y="70" on="1"/>
        <pt x="40" y="90" on="0"/>
        <pt x="80" y="124" on="1"/>
        <pt x="131" y="169" on="0"/>
        <pt x="135" y="174" on="1"/>
        <pt x="60" y="237" on="0"/>
        <pt x="71" y="328" on="1"/>
        <pt x="78" y="404" on="0"/>
        <pt x="203" y="516" on="0"/>
        <pt x="286" y="516" on="1"/>
        <pt x="382" y="516" on="0"/>
        <pt x="423" y="457" on="1"/>
        <pt x="563" y="517" on="1"/>
        <pt x="551" y="401" on="1"/>
        <pt x="450" y="401" on="1"/>
        <pt x="460" y="351" on="0"/>
      </contour>
      <contour>
        <pt x="182" y="328" on="1"/>
        <pt x="178" y="289" on="0"/>
        <pt x="196" y="256" on="1"/>
        <pt x="218" y="218" on="0"/>
        <pt x="256" y="218" on="1"/>
        <pt x="293" y="218" on="0"/>
        <pt x="348" y="287" on="0"/>
        <pt x="353" y="333" on="1"/>
        <pt x="357" y="368" on="0"/>
        <pt x="312" y="438" on="0"/>
        <pt x="275" y="438" on="1"/>
        <pt x="237" y="438" on="0"/>
        <pt x="210" y="400" on="1"/>
        <pt x="186" y="368" on="0"/>
      </contour>
      <contour>
        <pt x="178" y="-16" on="1"/>
        <pt x="168" y="-19" on="0"/>
        <pt x="130" y="-71" on="0"/>
        <pt x="127" y="-95" on="1"/>
        <pt x="126" y="-105" on="0"/>
        <pt x="126" y="-114" on="1"/>
        <pt x="126" y="-171" on="0"/>
        <pt x="206" y="-171" on="1"/>
        <pt x="256" y="-171" on="0"/>
        <pt x="350" y="-101" on="0"/>
        <pt x="353" y="-65" on="1"/>
        <pt x="357" y="-34" on="0"/>
        <pt x="336" y="-24" on="1"/>
        <pt x="321" y="-17" on="0"/>
        <pt x="274" y="-16" on="1"/>
      </contour>
    </TTGlyph>
    <TTGlyph name="germandbls" xMin="15" yMin="-15" xMax="495" yMax="732">
      <contour>
        <pt x="152" y="62" on="1"/>
        <pt x="211" y="143" on="1"/>
        <pt x="237" y="101" on="0"/>
        <pt x="265" y="90" on="1"/>
        <pt x="278" y="85" on="0"/>
        <pt x="313" y="85" on="1"/>
        <pt x="341" y="85" on="0"/>
        <pt x="360" y="109" on="1"/>
        <pt x="375" y="127" on="0"/>
        <pt x="379" y="153" on="1"/>
        <pt x="382" y="186" on="0"/>
        <pt x="349" y="205" on="1"/>
        <pt x="338" y="211" on="0"/>
        <pt x="291" y="227" on="1"/>
        <pt x="192" y="261" on="0"/>
        <pt x="191" y="366" on="1"/>
        <pt x="191" y="377" on="0"/>
        <pt x="193" y="388" on="1"/>
        <pt x="197" y="429" on="0"/>
        <pt x="238" y="475" on="1"/>
        <pt x="286" y="529" on="0"/>
        <pt x="343" y="529" on="1"/>
        <pt x="366" y="529" on="0"/>
        <pt x="388" y="520" on="1"/>
        <pt x="392" y="527" on="0"/>
        <pt x="393" y="548" on="1"/>
        <pt x="394" y="562" on="0"/>
        <pt x="394" y="577" on="1"/>
        <pt x="397" y="601" on="0"/>
        <pt x="336" y="630" on="0"/>
        <pt x="296" y="630" on="1"/>
        <pt x="255" y="630" on="0"/>
        <pt x="187" y="562" on="0"/>
        <pt x="182" y="512" on="1"/>
        <pt x="128" y="-1" on="1"/>
        <pt x="15" y="-1" on="1"/>
        <pt x="70" y="512" on="1"/>
        <pt x="80" y="607" on="0"/>
        <pt x="139" y="667" on="1"/>
        <pt x="205" y="733" on="0"/>
        <pt x="311" y="732" on="1"/>
        <pt x="395" y="732" on="0"/>
        <pt x="486" y="644" on="0"/>
        <pt x="486" y="567" on="1"/>
        <pt x="486" y="554" on="0"/>
        <pt x="485" y="540" on="1"/>
        <pt x="478" y="471" on="0"/>
        <pt x="436" y="411" on="1"/>
        <pt x="379" y="434" on="0"/>
        <pt x="353" y="433" on="1"/>
        <pt x="307" y="433" on="0"/>
        <pt x="302" y="383" on="1"/>
        <pt x="300" y="365" on="0"/>
        <pt x="322" y="353" on="1"/>
        <pt x="328" y="350" on="0"/>
        <pt x="375" y="335" on="1"/>
        <pt x="453" y="309" on="0"/>
        <pt x="480" y="255" on="1"/>
        <pt x="499" y="217" on="0"/>
        <pt x="495" y="159" on="1"/>
        <pt x="487" y="86" on="0"/>
        <pt x="369" y="-15" on="0"/>
        <pt x="298" y="-15" on="1"/>
        <pt x="240" y="-15" on="0"/>
        <pt x="217" y="-4" on="1"/>
        <pt x="191" y="9" on="0"/>
      </contour>
    </TTGlyph>
    <TTGlyph name="grave" xMin="48" yMin="567" xMax="331" yMax="732">
      <contour>
        <pt x="331" y="641" on="1"/>
        <pt x="120" y="732" on="1"/>
        <pt x="48" y="652" on="1"/>
        <pt x="259" y="567" on="1"/>
      </contour>
    </TTGlyph>
    <TTGlyph name="greater" xMin="-16" yMin="43" xMax="351" yMax="542">
      <contour>
        <pt x="-14" y="47" on="1"/>
        <pt x="191" y="292" on="1"/>
        <pt x="-16" y="538" on="1"/>
        <pt x="110" y="542" on="1"/>
        <pt x="351" y="296" on="1"/>
        <pt x="110" y="43" on="1"/>
      </contour>
    </TTGlyph>
    <TTGlyph name="greaterequal" xMin="3" yMin="4" xMax="256" yMax="459">
      <contour>
        <pt x="3" y="119" on="1"/>
        <pt x="129" y="286" on="1"/>
        <pt x="3" y="455" on="1"/>
        <pt x="106" y="459" on="1"/>
        <pt x="256" y="289" on="1"/>
        <pt x="106" y="114" on="1"/>
      </contour>
      <contour>
        <pt x="22" y="79" on="1"/>
        <pt x="248" y="79" on="1"/>
        <pt x="248" y="4" on="1"/>
        <pt x="22" y="4" on="1"/>
      </contour>
    </TTGlyph>
    <TTGlyph name="guillemotleft" xMin="-1" yMin="125" xMax="429" yMax="462">
      <contour>
        <pt x="429" y="129" on="1"/>
        <pt x="319" y="125" on="1"/>
        <pt x="160" y="296" on="1"/>
        <pt x="319" y="462" on="1"/>
        <pt x="429" y="458" on="1"/>
        <pt x="295" y="293" on="1"/>
      </contour>
      <contour>
        <pt x="267" y="129" on="1"/>
        <pt x="158" y="125" on="1"/>
        <pt x="-1" y="296" on="1"/>
        <pt x="158" y="462" on="1"/>
        <pt x="267" y="458" on="1"/>
        <pt x="134" y="293" on="1"/>
      </contour>
    </TTGlyph>
    <TTGlyph name="guillemotright" xMin="-17" yMin="125" xMax="414" yMax="462">
      <contour>
        <pt x="144" y="129" on="1"/>
        <pt x="280" y="293" on="1"/>
        <pt x="144" y="458" on="1"/>
        <pt x="256" y="462" on="1"/>
        <pt x="414" y="296" on="1"/>
        <pt x="256" y="125" on="1"/>
      </contour>
      <contour>
        <pt x="-17" y="129" on="1"/>
        <pt x="118" y="293" on="1"/>
        <pt x="-16" y="458" on="1"/>
        <pt x="94" y="462" on="1"/>
        <pt x="252" y="296" on="1"/>
        <pt x="94" y="125" on="1"/>
      </contour>
    </TTGlyph>
    <TTGlyph name="guilsinglleft" xMin="50" yMin="125" xMax="304" yMax="462">
      <contour>
        <pt x="304" y="129" on="1"/>
        <pt x="200" y="125" on="1"/>
        <pt x="50" y="296" on="1"/>
        <pt x="200" y="462" on="1"/>
        <pt x="304" y="458" on="1"/>
        <pt x="177" y="293" on="1"/>
      </contour>
    </TTGlyph>
    <TTGlyph name="guilsinglright" xMin="31" yMin="125" xMax="284" yMax="462">
      <contour>
        <pt x="31" y="129" on="1"/>
        <pt x="157" y="293" on="1"/>
        <pt x="31" y="458" on="1"/>
        <pt x="134" y="462" on="1"/>
        <pt x="284" y="296" on="1"/>
        <pt x="134" y="125" on="1"/>
      </contour>
    </TTGlyph>
    <TTGlyph name="h" xMin="27" yMin="0" xMax="460" yMax="713">
      <contour>
        <pt x="348" y="334" on="1"/>
        <pt x="349" y="347" on="0"/>
        <pt x="349" y="359" on="1"/>
        <pt x="349" y="430" on="0"/>
        <pt x="301" y="430" on="1"/>
        <pt x="255" y="430" on="0"/>
        <pt x="210" y="382" on="1"/>
        <pt x="173" y="343" on="0"/>
        <pt x="171" y="327" on="1"/>
        <pt x="136" y="0" on="1"/>
        <pt x="27" y="0" on="1"/>
        <pt x="102" y="713" on="1"/>
        <pt x="212" y="713" on="1"/>
        <pt x="180" y="416" on="1"/>
        <pt x="249" y="524" on="0"/>
        <pt x="316" y="523" on="1"/>
        <pt x="371" y="523" on="0"/>
        <pt x="414" y="481" on="1"/>
        <pt x="460" y="436" on="0"/>
        <pt x="460" y="368" on="1"/>
        <pt x="460" y="358" on="0"/>
        <pt x="459" y="347" on="1"/>
        <pt x="422" y="0" on="1"/>
        <pt x="312" y="0" on="1"/>
      </contour>
    </TTGlyph>
    <TTGlyph name="hungarumlaut" xMin="12" yMin="574" xMax="402" yMax="691">
      <contour>
        <pt x="174" y="574" on="1"/>
        <pt x="299" y="691" on="1"/>
        <pt x="402" y="691" on="1"/>
        <pt x="276" y="574" on="1"/>
      </contour>
      <contour>
        <pt x="12" y="574" on="1"/>
        <pt x="138" y="691" on="1"/>
        <pt x="241" y="691" on="1"/>
        <pt x="116" y="574" on="1"/>
      </contour>
    </TTGlyph>
    <TTGlyph name="hyphen" xMin="46" yMin="273" xMax="343" yMax="369">
      <contour>
        <pt x="56" y="369" on="1"/>
        <pt x="343" y="369" on="1"/>
        <pt x="333" y="273" on="1"/>
        <pt x="46" y="273" on="1"/>
      </contour>
    </TTGlyph>
    <TTGlyph name="i" xMin="26" yMin="0" xMax="226" yMax="749">
      <contour>
        <pt x="76" y="673" on="1"/>
        <pt x="79" y="706" on="0"/>
        <pt x="128" y="749" on="0"/>
        <pt x="159" y="749" on="1"/>
        <pt x="190" y="749" on="0"/>
        <pt x="229" y="706" on="0"/>
        <pt x="226" y="673" on="1"/>
        <pt x="222" y="640" on="0"/>
        <pt x="174" y="596" on="0"/>
        <pt x="143" y="596" on="1"/>
        <pt x="112" y="596" on="0"/>
        <pt x="72" y="640" on="0"/>
      </contour>
      <contour>
        <pt x="79" y="507" on="1"/>
        <pt x="188" y="507" on="1"/>
        <pt x="135" y="0" on="1"/>
        <pt x="26" y="0" on="1"/>
      </contour>
    </TTGlyph>
    <TTGlyph name="iacute" xMin="18" yMin="0" xMax="282" yMax="732">
      <contour>
        <pt x="18" y="641" on="1"/>
        <pt x="248" y="732" on="1"/>
        <pt x="282" y="652" on="1"/>
        <pt x="54" y="567" on="1"/>
      </contour>
      <contour>
        <pt x="79" y="507" on="1"/>
        <pt x="188" y="507" on="1"/>
        <pt x="135" y="0" on="1"/>
        <pt x="26" y="0" on="1"/>
      </contour>
    </TTGlyph>
    <TTGlyph name="icircumflex" xMin="-37" yMin="0" xMax="253" yMax="715">
      <component glyphName="dotlessi" x="0" y="0" flags="0x1004"/>
      <component glyphName="circumflex" x="-61" y="0" flags="0x1004"/>
    </TTGlyph>
    <TTGlyph name="idieresis" xMin="-56" yMin="0" xMax="302" yMax="717">
      <contour>
        <pt x="80" y="507" on="1"/>
        <pt x="189" y="507" on="1"/>
        <pt x="136" y="0" on="1"/>
        <pt x="27" y="0" on="1"/>
      </contour>
      <contour>
        <pt x="159" y="643" on="1"/>
        <pt x="162" y="671" on="0"/>
        <pt x="180" y="691" on="1"/>
        <pt x="203" y="717" on="0"/>
        <pt x="239" y="717" on="1"/>
        <pt x="273" y="717" on="0"/>
        <pt x="290" y="691" on="1"/>
        <pt x="305" y="669" on="0"/>
        <pt x="302" y="643" on="1"/>
        <pt x="299" y="615" on="0"/>
        <pt x="280" y="594" on="1"/>
        <pt x="256" y="569" on="0"/>
        <pt x="222" y="569" on="1"/>
        <pt x="188" y="569" on="0"/>
        <pt x="171" y="594" on="1"/>
        <pt x="156" y="614" on="0"/>
      </contour>
      <contour>
        <pt x="-56" y="643" on="1"/>
        <pt x="-53" y="670" on="0"/>
        <pt x="-34" y="691" on="1"/>
        <pt x="-11" y="717" on="0"/>
        <pt x="24" y="717" on="1"/>
        <pt x="58" y="717" on="0"/>
        <pt x="75" y="691" on="1"/>
        <pt x="90" y="669" on="0"/>
        <pt x="87" y="643" on="1"/>
        <pt x="84" y="615" on="0"/>
        <pt x="65" y="594" on="1"/>
        <pt x="42" y="569" on="0"/>
        <pt x="7" y="569" on="1"/>
        <pt x="-27" y="569" on="0"/>
        <pt x="-44" y="594" on="1"/>
        <pt x="-59" y="614" on="0"/>
      </contour>
    </TTGlyph>
    <TTGlyph name="igrave" xMin="-15" yMin="0" xMax="262" yMax="715">
      <component glyphName="dotlessi" x="0" y="0" flags="0x1004"/>
      <component glyphName="grave" x="-61" y="0" flags="0x1004"/>
    </TTGlyph>
    <TTGlyph name="infinity" xMin="9" yMin="270" xMax="539" yMax="544">
      <contour>
        <pt x="264" y="311" on="1"/>
        <pt x="214" y="270" on="0"/>
        <pt x="151" y="270" on="1"/>
        <pt x="86" y="270" on="0"/>
        <pt x="3" y="350" on="0"/>
        <pt x="9" y="408" on="1"/>
        <pt x="15" y="464" on="0"/>
        <pt x="115" y="544" on="0"/>
        <pt x="179" y="544" on="1"/>
        <pt x="242" y="544" on="0"/>
        <pt x="285" y="504" on="1"/>
        <pt x="334" y="544" on="0"/>
        <pt x="398" y="544" on="1"/>
        <pt x="461" y="544" on="0"/>
        <pt x="545" y="464" on="0"/>
        <pt x="539" y="408" on="1"/>
        <pt x="533" y="352" on="0"/>
        <pt x="433" y="270" on="0"/>
        <pt x="370" y="270" on="1"/>
        <pt x="304" y="270" on="0"/>
      </contour>
      <contour>
        <pt x="319" y="409" on="1"/>
        <pt x="317" y="385" on="0"/>
        <pt x="350" y="351" on="0"/>
        <pt x="378" y="351" on="1"/>
        <pt x="406" y="351" on="0"/>
        <pt x="446" y="385" on="0"/>
        <pt x="449" y="409" on="1"/>
        <pt x="451" y="432" on="0"/>
        <pt x="417" y="465" on="0"/>
        <pt x="390" y="465" on="1"/>
        <pt x="362" y="465" on="0"/>
        <pt x="321" y="432" on="0"/>
      </contour>
      <contour>
        <pt x="99" y="409" on="1"/>
        <pt x="96" y="382" on="0"/>
        <pt x="116" y="366" on="1"/>
        <pt x="132" y="353" on="0"/>
        <pt x="159" y="352" on="1"/>
        <pt x="186" y="352" on="0"/>
        <pt x="226" y="382" on="0"/>
        <pt x="229" y="409" on="1"/>
        <pt x="231" y="432" on="0"/>
        <pt x="198" y="465" on="0"/>
        <pt x="171" y="465" on="1"/>
        <pt x="143" y="465" on="0"/>
        <pt x="101" y="432" on="0"/>
      </contour>
    </TTGlyph>
    <TTGlyph name="integral" xMin="-25" yMin="-143" xMax="375" yMax="730">
      <contour>
        <pt x="263" y="609" on="1"/>
        <pt x="209" y="609" on="0"/>
        <pt x="209" y="512" on="1"/>
        <pt x="209" y="470" on="0"/>
        <pt x="233" y="326" on="1"/>
        <pt x="257" y="192" on="0"/>
        <pt x="257" y="118" on="1"/>
        <pt x="257" y="89" on="0"/>
        <pt x="255" y="65" on="1"/>
        <pt x="246" y="-21" on="0"/>
        <pt x="207" y="-75" on="1"/>
        <pt x="158" y="-144" on="0"/>
        <pt x="68" y="-143" on="1"/>
        <pt x="46" y="-143" on="0"/>
        <pt x="-25" y="-119" on="1"/>
        <pt x="13" y="4" on="1"/>
        <pt x="59" y="-25" on="0"/>
        <pt x="84" y="-25" on="1"/>
        <pt x="125" y="-25" on="0"/>
        <pt x="136" y="81" on="1"/>
        <pt x="140" y="119" on="0"/>
        <pt x="111" y="280" on="1"/>
        <pt x="86" y="412" on="0"/>
        <pt x="86" y="486" on="1"/>
        <pt x="86" y="513" on="0"/>
        <pt x="88" y="537" on="1"/>
        <pt x="96" y="619" on="0"/>
        <pt x="138" y="670" on="1"/>
        <pt x="189" y="730" on="0"/>
        <pt x="279" y="730" on="1"/>
        <pt x="318" y="730" on="0"/>
        <pt x="375" y="693" on="1"/>
        <pt x="310" y="581" on="1"/>
        <pt x="279" y="609" on="0"/>
      </contour>
    </TTGlyph>
    <TTGlyph name="j" xMin="-73" yMin="-228" xMax="242" yMax="750">
      <contour>
        <pt x="242" y="674" on="1"/>
        <pt x="239" y="641" on="0"/>
        <pt x="189" y="598" on="0"/>
        <pt x="159" y="598" on="1"/>
        <pt x="127" y="598" on="0"/>
        <pt x="87" y="641" on="0"/>
        <pt x="90" y="674" on="1"/>
        <pt x="94" y="707" on="0"/>
        <pt x="143" y="750" on="0"/>
        <pt x="174" y="750" on="1"/>
        <pt x="205" y="750" on="0"/>
        <pt x="246" y="707" on="0"/>
      </contour>
      <contour>
        <pt x="76" y="-175" on="1"/>
        <pt x="37" y="-201" on="0"/>
        <pt x="-43" y="-228" on="1"/>
        <pt x="-73" y="-135" on="1"/>
        <pt x="16" y="-109" on="0"/>
        <pt x="30" y="-66" on="1"/>
        <pt x="31" y="-61" on="0"/>
        <pt x="36" y="-13" on="1"/>
        <pt x="90" y="507" on="1"/>
        <pt x="201" y="507" on="1"/>
        <pt x="141" y="-56" on="1"/>
        <pt x="133" y="-137" on="0"/>
      </contour>
    </TTGlyph>
    <TTGlyph name="k" xMin="29" yMin="-32" xMax="468" yMax="714">
      <contour>
        <pt x="193" y="227" on="1"/>
        <pt x="158" y="182" on="1"/>
        <pt x="138" y="-1" on="1"/>
        <pt x="29" y="-1" on="1"/>
        <pt x="103" y="714" on="1"/>
        <pt x="213" y="714" on="1"/>
        <pt x="169" y="296" on="1"/>
        <pt x="378" y="549" on="1"/>
        <pt x="468" y="482" on="1"/>
        <pt x="258" y="282" on="1"/>
        <pt x="454" y="32" on="1"/>
        <pt x="349" y="-32" on="1"/>
      </contour>
    </TTGlyph>
    <TTGlyph name="l" xMin="28" yMin="0" xMax="212" yMax="715">
      <contour>
        <pt x="103" y="715" on="1"/>
        <pt x="212" y="715" on="1"/>
        <pt x="136" y="0" on="1"/>
        <pt x="28" y="0" on="1"/>
      </contour>
    </TTGlyph>
    <TTGlyph name="less" xMin="0" yMin="43" xMax="368" yMax="542">
      <contour>
        <pt x="368" y="47" on="1"/>
        <pt x="243" y="43" on="1"/>
        <pt x="0" y="296" on="1"/>
        <pt x="242" y="542" on="1"/>
        <pt x="368" y="538" on="1"/>
        <pt x="162" y="292" on="1"/>
      </contour>
    </TTGlyph>
    <TTGlyph name="lessequal" xMin="13" yMin="4" xMax="267" yMax="459">
      <contour>
        <pt x="267" y="119" on="1"/>
        <pt x="163" y="114" on="1"/>
        <pt x="13" y="289" on="1"/>
        <pt x="163" y="459" on="1"/>
        <pt x="267" y="455" on="1"/>
        <pt x="140" y="286" on="1"/>
      </contour>
      <contour>
        <pt x="22" y="79" on="1"/>
        <pt x="248" y="79" on="1"/>
        <pt x="248" y="4" on="1"/>
        <pt x="22" y="4" on="1"/>
      </contour>
    </TTGlyph>
    <TTGlyph name="logicalnot" xMin="90" yMin="29" xMax="571" yMax="351">
      <contour>
        <pt x="454" y="230" on="1"/>
        <pt x="90" y="230" on="1"/>
        <pt x="90" y="351" on="1"/>
        <pt x="571" y="351" on="1"/>
        <pt x="571" y="29" on="1"/>
        <pt x="454" y="29" on="1"/>
      </contour>
    </TTGlyph>
    <TTGlyph name="lozenge" xMin="12" yMin="80" xMax="550" yMax="603">
      <contour>
        <pt x="12" y="341" on="1"/>
        <pt x="282" y="603" on="1"/>
        <pt x="550" y="341" on="1"/>
        <pt x="282" y="80" on="1"/>
      </contour>
      <contour>
        <pt x="163" y="340" on="1"/>
        <pt x="285" y="222" on="1"/>
        <pt x="406" y="340" on="1"/>
        <pt x="285" y="459" on="1"/>
      </contour>
    </TTGlyph>
    <TTGlyph name="lslash" xMin="8" yMin="0" xMax="268" yMax="657">
      <contour>
        <pt x="148" y="0" on="1"/>
        <pt x="36" y="0" on="1"/>
        <pt x="67" y="294" on="1"/>
        <pt x="8" y="262" on="1"/>
        <pt x="22" y="381" on="1"/>
        <pt x="80" y="412" on="1"/>
        <pt x="105" y="657" on="1"/>
        <pt x="217" y="657" on="1"/>
        <pt x="198" y="475" on="1"/>
        <pt x="268" y="512" on="1"/>
        <pt x="257" y="394" on="1"/>
        <pt x="185" y="356" on="1"/>
      </contour>
    </TTGlyph>
    <TTGlyph name="m" xMin="37" yMin="0" xMax="739" yMax="524">
      <contour>
        <pt x="625" y="347" on="1"/>
        <pt x="626" y="358" on="0"/>
        <pt x="626" y="369" on="1"/>
        <pt x="626" y="430" on="0"/>
        <pt x="578" y="430" on="1"/>
        <pt x="553" y="430" on="0"/>
        <pt x="512" y="395" on="1"/>
        <pt x="463" y="353" on="0"/>
        <pt x="458" y="304" on="1"/>
        <pt x="426" y="0" on="1"/>
        <pt x="311" y="0" on="1"/>
        <pt x="346" y="332" on="1"/>
        <pt x="350" y="370" on="0"/>
        <pt x="318" y="426" on="0"/>
        <pt x="296" y="426" on="1"/>
        <pt x="265" y="426" on="0"/>
        <pt x="182" y="340" on="0"/>
        <pt x="179" y="313" on="1"/>
        <pt x="146" y="0" on="1"/>
        <pt x="37" y="0" on="1"/>
        <pt x="90" y="508" on="1"/>
        <pt x="200" y="508" on="1"/>
        <pt x="190" y="417" on="1"/>
        <pt x="266" y="519" on="0"/>
        <pt x="333" y="519" on="1"/>
        <pt x="370" y="519" on="0"/>
        <pt x="437" y="460" on="0"/>
        <pt x="449" y="422" on="1"/>
        <pt x="537" y="524" on="0"/>
        <pt x="604" y="524" on="1"/>
        <pt x="674" y="524" on="0"/>
        <pt x="713" y="468" on="1"/>
        <pt x="747" y="418" on="0"/>
        <pt x="739" y="352" on="1"/>
        <pt x="702" y="0" on="1"/>
        <pt x="588" y="0" on="1"/>
      </contour>
    </TTGlyph>
    <TTGlyph name="macron" xMin="104" yMin="608" xMax="350" yMax="675">
      <contour>
        <pt x="111" y="675" on="1"/>
        <pt x="350" y="675" on="1"/>
        <pt x="344" y="608" on="1"/>
        <pt x="104" y="608" on="1"/>
      </contour>
    </TTGlyph>
    <TTGlyph name="minus" xMin="53" yMin="292" xMax="457" yMax="356">
      <contour>
        <pt x="53" y="356" on="1"/>
        <pt x="457" y="356" on="1"/>
        <pt x="457" y="292" on="1"/>
        <pt x="53" y="292" on="1"/>
      </contour>
    </TTGlyph>
    <TTGlyph name="mu" xMin="33" yMin="-201" xMax="513" yMax="499">
      <contour>
        <pt x="343" y="30" on="1"/>
        <pt x="333" y="19" on="1"/>
        <pt x="280" y="-33" on="0"/>
        <pt x="231" y="-33" on="1"/>
        <pt x="191" y="-33" on="0"/>
        <pt x="159" y="-10" on="1"/>
        <pt x="138" y="-201" on="1"/>
        <pt x="33" y="-201" on="1"/>
        <pt x="106" y="498" on="1"/>
        <pt x="212" y="498" on="1"/>
        <pt x="175" y="147" on="1"/>
        <pt x="167" y="72" on="0"/>
        <pt x="258" y="73" on="1"/>
        <pt x="287" y="73" on="0"/>
        <pt x="344" y="129" on="0"/>
        <pt x="346" y="153" on="1"/>
        <pt x="383" y="499" on="1"/>
        <pt x="496" y="499" on="1"/>
        <pt x="456" y="120" on="1"/>
        <pt x="448" y="50" on="0"/>
        <pt x="474" y="32" on="1"/>
        <pt x="492" y="19" on="0"/>
        <pt x="513" y="-7" on="1"/>
        <pt x="420" y="-74" on="1"/>
        <pt x="357" y="-35" on="0"/>
      </contour>
    </TTGlyph>
    <TTGlyph name="n" xMin="37" yMin="0" xMax="469" yMax="523">
      <contour>
        <pt x="357" y="328" on="1"/>
        <pt x="358" y="341" on="0"/>
        <pt x="358" y="352" on="1"/>
        <pt x="358" y="431" on="0"/>
        <pt x="309" y="431" on="1"/>
        <pt x="272" y="431" on="0"/>
        <pt x="182" y="344" on="0"/>
        <pt x="179" y="310" on="1"/>
        <pt x="146" y="0" on="1"/>
        <pt x="37" y="0" on="1"/>
        <pt x="90" y="508" on="1"/>
        <pt x="200" y="508" on="1"/>
        <pt x="190" y="417" on="1"/>
        <pt x="263" y="523" on="0"/>
        <pt x="328" y="523" on="1"/>
        <pt x="387" y="523" on="0"/>
        <pt x="469" y="435" on="0"/>
        <pt x="469" y="364" on="1"/>
        <pt x="469" y="353" on="0"/>
        <pt x="468" y="340" on="1"/>
        <pt x="432" y="0" on="1"/>
        <pt x="323" y="0" on="1"/>
      </contour>
    </TTGlyph>
    <TTGlyph name="nine" xMin="-2" yMin="-27" xMax="507" yMax="672">
      <contour>
        <pt x="-2" y="57" on="1"/>
        <pt x="68" y="136" on="1"/>
        <pt x="107" y="97" on="0"/>
        <pt x="169" y="68" on="0"/>
        <pt x="217" y="68" on="1"/>
        <pt x="289" y="68" on="0"/>
        <pt x="335" y="151" on="1"/>
        <pt x="371" y="216" on="0"/>
        <pt x="381" y="309" on="1"/>
        <pt x="299" y="223" on="0"/>
        <pt x="224" y="223" on="1"/>
        <pt x="146" y="223" on="0"/>
        <pt x="36" y="329" on="0"/>
        <pt x="36" y="414" on="1"/>
        <pt x="36" y="522" on="0"/>
        <pt x="185" y="672" on="0"/>
        <pt x="294" y="672" on="1"/>
        <pt x="381" y="672" on="0"/>
        <pt x="439" y="613" on="1"/>
        <pt x="507" y="546" on="0"/>
        <pt x="507" y="423" on="1"/>
        <pt x="507" y="398" on="0"/>
        <pt x="504" y="372" on="1"/>
        <pt x="488" y="219" on="0"/>
        <pt x="430" y="118" on="1"/>
        <pt x="347" y="-26" on="0"/>
        <pt x="199" y="-27" on="1"/>
        <pt x="77" y="-27" on="0"/>
      </contour>
      <contour>
        <pt x="147" y="442" on="1"/>
        <pt x="142" y="390" on="0"/>
        <pt x="171" y="348" on="1"/>
        <pt x="201" y="303" on="0"/>
        <pt x="249" y="303" on="1"/>
        <pt x="312" y="303" on="0"/>
        <pt x="390" y="393" on="0"/>
        <pt x="390" y="458" on="1"/>
        <pt x="390" y="511" on="0"/>
        <pt x="367" y="546" on="1"/>
        <pt x="338" y="586" on="0"/>
        <pt x="285" y="586" on="1"/>
        <pt x="231" y="586" on="0"/>
        <pt x="154" y="504" on="0"/>
      </contour>
    </TTGlyph>
    <TTGlyph name="notequal" xMin="52" yMin="-20" xMax="398" yMax="552">
      <contour>
        <pt x="94" y="12" on="1"/>
        <pt x="132" y="128" on="1"/>
        <pt x="52" y="128" on="1"/>
        <pt x="52" y="228" on="1"/>
        <pt x="165" y="228" on="1"/>
        <pt x="180" y="272" on="1"/>
        <pt x="52" y="272" on="1"/>
        <pt x="52" y="373" on="1"/>
        <pt x="213" y="373" on="1"/>
        <pt x="272" y="552" on="1"/>
        <pt x="364" y="519" on="1"/>
        <pt x="314" y="373" on="1"/>
        <pt x="398" y="373" on="1"/>
        <pt x="398" y="272" on="1"/>
        <pt x="282" y="272" on="1"/>
        <pt x="266" y="228" on="1"/>
        <pt x="398" y="228" on="1"/>
        <pt x="398" y="128" on="1"/>
        <pt x="233" y="128" on="1"/>
        <pt x="184" y="-20" on="1"/>
      </contour>
    </TTGlyph>
    <TTGlyph name="ntilde" xMin="37" yMin="0" xMax="469" yMax="701">
      <contour>
        <pt x="280" y="593" on="1"/>
        <pt x="247" y="617" on="0"/>
        <pt x="237" y="616" on="1"/>
        <pt x="211" y="616" on="0"/>
        <pt x="164" y="568" on="1"/>
        <pt x="132" y="648" on="1"/>
        <pt x="177" y="699" on="0"/>
        <pt x="245" y="701" on="1"/>
        <pt x="277" y="702" on="0"/>
        <pt x="350" y="647" on="0"/>
        <pt x="360" y="647" on="1"/>
        <pt x="373" y="647" on="0"/>
        <pt x="416" y="679" on="1"/>
        <pt x="446" y="601" on="1"/>
        <pt x="428" y="585" on="0"/>
        <pt x="370" y="562" on="0"/>
        <pt x="354" y="562" on="1"/>
        <pt x="323" y="562" on="0"/>
      </contour>
      <contour>
        <pt x="357" y="328" on="1"/>
        <pt x="358" y="341" on="0"/>
        <pt x="358" y="352" on="1"/>
        <pt x="358" y="431" on="0"/>
        <pt x="309" y="431" on="1"/>
        <pt x="272" y="431" on="0"/>
        <pt x="182" y="344" on="0"/>
        <pt x="179" y="310" on="1"/>
        <pt x="146" y="0" on="1"/>
        <pt x="37" y="0" on="1"/>
        <pt x="90" y="508" on="1"/>
        <pt x="200" y="508" on="1"/>
        <pt x="190" y="417" on="1"/>
        <pt x="263" y="523" on="0"/>
        <pt x="328" y="523" on="1"/>
        <pt x="387" y="523" on="0"/>
        <pt x="469" y="435" on="0"/>
        <pt x="469" y="364" on="1"/>
        <pt x="469" y="353" on="0"/>
        <pt x="468" y="340" on="1"/>
        <pt x="432" y="0" on="1"/>
        <pt x="323" y="0" on="1"/>
      </contour>
    </TTGlyph>
    <TTGlyph name="numbersign" xMin="58" yMin="308" xMax="470" yMax="698">
      <contour>
        <pt x="386" y="542" on="1"/>
        <pt x="382" y="507" on="1"/>
        <pt x="456" y="514" on="1"/>
        <pt x="446" y="429" on="1"/>
        <pt x="373" y="421" on="1"/>
        <pt x="362" y="332" on="1"/>
        <pt x="271" y="322" on="1"/>
        <pt x="283" y="412" on="1"/>
        <pt x="245" y="408" on="1"/>
        <pt x="234" y="318" on="1"/>
        <pt x="143" y="308" on="1"/>
        <pt x="154" y="398" on="1"/>
        <pt x="58" y="388" on="1"/>
        <pt x="68" y="473" on="1"/>
        <pt x="163" y="483" on="1"/>
        <pt x="167" y="519" on="1"/>
        <pt x="73" y="509" on="1"/>
        <pt x="81" y="594" on="1"/>
        <pt x="176" y="604" on="1"/>
        <pt x="183" y="674" on="1"/>
        <pt x="274" y="683" on="1"/>
        <pt x="266" y="614" on="1"/>
        <pt x="305" y="617" on="1"/>
        <pt x="312" y="687" on="1"/>
        <pt x="403" y="698" on="1"/>
        <pt x="395" y="628" on="1"/>
        <pt x="470" y="635" on="1"/>
        <pt x="461" y="550" on="1"/>
      </contour>
      <contour>
        <pt x="254" y="494" on="1"/>
        <pt x="291" y="497" on="1"/>
        <pt x="295" y="532" on="1"/>
        <pt x="258" y="528" on="1"/>
      </contour>
    </TTGlyph>
    <TTGlyph name="o" xMin="38" yMin="-11" xMax="521" yMax="524">
      <contour>
        <pt x="40" y="258" on="1"/>
        <pt x="54" y="389" on="0"/>
        <pt x="144" y="463" on="1"/>
        <pt x="219" y="524" on="0"/>
        <pt x="310" y="524" on="1"/>
        <pt x="393" y="524" on="0"/>
        <pt x="453" y="472" on="1"/>
        <pt x="522" y="410" on="0"/>
        <pt x="521" y="298" on="1"/>
        <pt x="521" y="279" on="0"/>
        <pt x="519" y="258" on="1"/>
        <pt x="510" y="168" on="0"/>
        <pt x="456" y="93" on="1"/>
        <pt x="381" y="-11" on="0"/>
        <pt x="254" y="-11" on="1"/>
        <pt x="131" y="-11" on="0"/>
        <pt x="77" y="71" on="1"/>
        <pt x="38" y="130" on="0"/>
        <pt x="38" y="220" on="1"/>
        <pt x="38" y="240" on="0"/>
      </contour>
      <contour>
        <pt x="157" y="220" on="1"/>
        <pt x="157" y="155" on="0"/>
        <pt x="181" y="115" on="1"/>
        <pt x="208" y="69" on="0"/>
        <pt x="258" y="69" on="1"/>
        <pt x="328" y="69" on="0"/>
        <pt x="369" y="148" on="1"/>
        <pt x="403" y="214" on="0"/>
        <pt x="402" y="292" on="1"/>
        <pt x="402" y="357" on="0"/>
        <pt x="380" y="397" on="1"/>
        <pt x="353" y="443" on="0"/>
        <pt x="306" y="443" on="1"/>
        <pt x="233" y="443" on="0"/>
        <pt x="191" y="365" on="1"/>
        <pt x="157" y="299" on="0"/>
      </contour>
    </TTGlyph>
    <TTGlyph name="oacute" xMin="38" yMin="-11" xMax="521" yMax="732">
      <contour>
        <pt x="202" y="641" on="1"/>
        <pt x="431" y="732" on="1"/>
        <pt x="486" y="652" on="1"/>
        <pt x="258" y="567" on="1"/>
      </contour>
      <contour>
        <pt x="40" y="258" on="1"/>
        <pt x="54" y="389" on="0"/>
        <pt x="144" y="463" on="1"/>
        <pt x="219" y="524" on="0"/>
        <pt x="310" y="524" on="1"/>
        <pt x="393" y="524" on="0"/>
        <pt x="453" y="472" on="1"/>
        <pt x="522" y="410" on="0"/>
        <pt x="521" y="298" on="1"/>
        <pt x="521" y="279" on="0"/>
        <pt x="519" y="258" on="1"/>
        <pt x="510" y="168" on="0"/>
        <pt x="456" y="93" on="1"/>
        <pt x="381" y="-11" on="0"/>
        <pt x="254" y="-11" on="1"/>
        <pt x="131" y="-11" on="0"/>
        <pt x="77" y="71" on="1"/>
        <pt x="38" y="130" on="0"/>
        <pt x="38" y="220" on="1"/>
        <pt x="38" y="240" on="0"/>
      </contour>
      <contour>
        <pt x="157" y="220" on="1"/>
        <pt x="157" y="155" on="0"/>
        <pt x="181" y="115" on="1"/>
        <pt x="208" y="69" on="0"/>
        <pt x="258" y="69" on="1"/>
        <pt x="328" y="69" on="0"/>
        <pt x="369" y="148" on="1"/>
        <pt x="403" y="214" on="0"/>
        <pt x="402" y="292" on="1"/>
        <pt x="402" y="357" on="0"/>
        <pt x="380" y="397" on="1"/>
        <pt x="353" y="443" on="0"/>
        <pt x="306" y="443" on="1"/>
        <pt x="233" y="443" on="0"/>
        <pt x="191" y="365" on="1"/>
        <pt x="157" y="299" on="0"/>
      </contour>
    </TTGlyph>
    <TTGlyph name="ocircumflex" xMin="38" yMin="-11" xMax="521" yMax="732">
      <contour>
        <pt x="167" y="534" on="1"/>
        <pt x="176" y="624" on="1"/>
        <pt x="329" y="732" on="1"/>
        <pt x="463" y="624" on="1"/>
        <pt x="454" y="535" on="1"/>
        <pt x="316" y="613" on="1"/>
      </contour>
      <contour>
        <pt x="40" y="258" on="1"/>
        <pt x="54" y="389" on="0"/>
        <pt x="144" y="463" on="1"/>
        <pt x="219" y="524" on="0"/>
        <pt x="310" y="524" on="1"/>
        <pt x="393" y="524" on="0"/>
        <pt x="453" y="472" on="1"/>
        <pt x="522" y="410" on="0"/>
        <pt x="521" y="298" on="1"/>
        <pt x="521" y="279" on="0"/>
        <pt x="519" y="258" on="1"/>
        <pt x="510" y="168" on="0"/>
        <pt x="456" y="93" on="1"/>
        <pt x="381" y="-11" on="0"/>
        <pt x="254" y="-11" on="1"/>
        <pt x="131" y="-11" on="0"/>
        <pt x="77" y="71" on="1"/>
        <pt x="38" y="130" on="0"/>
        <pt x="38" y="220" on="1"/>
        <pt x="38" y="240" on="0"/>
      </contour>
      <contour>
        <pt x="157" y="220" on="1"/>
        <pt x="157" y="155" on="0"/>
        <pt x="181" y="115" on="1"/>
        <pt x="208" y="69" on="0"/>
        <pt x="258" y="69" on="1"/>
        <pt x="328" y="69" on="0"/>
        <pt x="369" y="148" on="1"/>
        <pt x="403" y="214" on="0"/>
        <pt x="402" y="292" on="1"/>
        <pt x="402" y="357" on="0"/>
        <pt x="380" y="397" on="1"/>
        <pt x="353" y="443" on="0"/>
        <pt x="306" y="443" on="1"/>
        <pt x="233" y="443" on="0"/>
        <pt x="191" y="365" on="1"/>
        <pt x="157" y="299" on="0"/>
      </contour>
    </TTGlyph>
    <TTGlyph name="odieresis" xMin="37" yMin="-11" xMax="509" yMax="700">
      <component glyphName="dieresis" x="133" y="0" flags="0x1004"/>
      <component glyphName="o" x="0" y="0" flags="0x1004"/>
    </TTGlyph>
    <TTGlyph name="oe" xMin="89" yMin="-12" xMax="954" yMax="524">
      <contour>
        <pt x="212" y="222" on="1"/>
        <pt x="212" y="160" on="0"/>
        <pt x="238" y="121" on="1"/>
        <pt x="267" y="78" on="0"/>
        <pt x="319" y="78" on="1"/>
        <pt x="391" y="78" on="0"/>
        <pt x="432" y="151" on="1"/>
        <pt x="467" y="211" on="0"/>
        <pt x="467" y="289" on="1"/>
        <pt x="467" y="352" on="0"/>
        <pt x="442" y="390" on="1"/>
        <pt x="415" y="433" on="0"/>
        <pt x="366" y="433" on="1"/>
        <pt x="291" y="433" on="0"/>
        <pt x="248" y="361" on="1"/>
        <pt x="212" y="302" on="0"/>
      </contour>
      <contour>
        <pt x="734" y="70" on="1"/>
        <pt x="806" y="70" on="0"/>
        <pt x="871" y="152" on="1"/>
        <pt x="927" y="70" on="1"/>
        <pt x="830" y="-12" on="0"/>
        <pt x="718" y="-12" on="1"/>
        <pt x="636" y="-12" on="0"/>
        <pt x="590" y="26" on="1"/>
        <pt x="557" y="54" on="0"/>
        <pt x="536" y="112" on="1"/>
        <pt x="457" y="-11" on="0"/>
        <pt x="314" y="-11" on="1"/>
        <pt x="186" y="-11" on="0"/>
        <pt x="130" y="72" on="1"/>
        <pt x="89" y="131" on="0"/>
        <pt x="89" y="222" on="1"/>
        <pt x="89" y="240" on="0"/>
        <pt x="91" y="258" on="1"/>
        <pt x="105" y="389" on="0"/>
        <pt x="199" y="463" on="1"/>
        <pt x="277" y="524" on="0"/>
        <pt x="372" y="524" on="1"/>
        <pt x="432" y="524" on="0"/>
        <pt x="484" y="495" on="1"/>
        <pt x="543" y="462" on="0"/>
        <pt x="571" y="399" on="1"/>
        <pt x="649" y="519" on="0"/>
        <pt x="788" y="519" on="1"/>
        <pt x="861" y="519" on="0"/>
        <pt x="906" y="477" on="1"/>
        <pt x="954" y="431" on="0"/>
        <pt x="954" y="350" on="1"/>
        <pt x="954" y="336" on="0"/>
        <pt x="953" y="321" on="1"/>
        <pt x="945" y="244" on="1"/>
        <pt x="643" y="244" on="1"/>
        <pt x="640" y="210" on="0"/>
        <pt x="640" y="199" on="1"/>
        <pt x="640" y="70" on="0"/>
      </contour>
      <contour>
        <pt x="848" y="331" on="1"/>
        <pt x="850" y="372" on="0"/>
        <pt x="834" y="402" on="1"/>
        <pt x="815" y="439" on="0"/>
        <pt x="773" y="439" on="1"/>
        <pt x="684" y="439" on="0"/>
        <pt x="666" y="331" on="1"/>
      </contour>
    </TTGlyph>
    <TTGlyph name="ograve" xMin="38" yMin="-11" xMax="521" yMax="728">
      <contour>
        <pt x="419" y="569" on="1"/>
        <pt x="214" y="662" on="1"/>
        <pt x="269" y="728" on="1"/>
        <pt x="474" y="630" on="1"/>
      </contour>
      <contour>
        <pt x="40" y="258" on="1"/>
        <pt x="54" y="389" on="0"/>
        <pt x="144" y="463" on="1"/>
        <pt x="219" y="524" on="0"/>
        <pt x="310" y="524" on="1"/>
        <pt x="393" y="524" on="0"/>
        <pt x="453" y="472" on="1"/>
        <pt x="522" y="410" on="0"/>
        <pt x="521" y="298" on="1"/>
        <pt x="521" y="279" on="0"/>
        <pt x="519" y="258" on="1"/>
        <pt x="510" y="168" on="0"/>
        <pt x="456" y="93" on="1"/>
        <pt x="381" y="-11" on="0"/>
        <pt x="254" y="-11" on="1"/>
        <pt x="131" y="-11" on="0"/>
        <pt x="77" y="71" on="1"/>
        <pt x="38" y="130" on="0"/>
        <pt x="38" y="220" on="1"/>
        <pt x="38" y="240" on="0"/>
      </contour>
      <contour>
        <pt x="157" y="220" on="1"/>
        <pt x="157" y="155" on="0"/>
        <pt x="181" y="115" on="1"/>
        <pt x="208" y="69" on="0"/>
        <pt x="258" y="69" on="1"/>
        <pt x="328" y="69" on="0"/>
        <pt x="369" y="148" on="1"/>
        <pt x="403" y="214" on="0"/>
        <pt x="402" y="292" on="1"/>
        <pt x="402" y="357" on="0"/>
        <pt x="380" y="397" on="1"/>
        <pt x="353" y="443" on="0"/>
        <pt x="306" y="443" on="1"/>
        <pt x="233" y="443" on="0"/>
        <pt x="191" y="365" on="1"/>
        <pt x="157" y="299" on="0"/>
      </contour>
    </TTGlyph>
    <TTGlyph name="one" xMin="70" yMin="0" xMax="451" yMax="652">
      <contour>
        <pt x="451" y="102" on="1"/>
        <pt x="440" y="0" on="1"/>
        <pt x="70" y="0" on="1"/>
        <pt x="80" y="102" on="1"/>
        <pt x="216" y="102" on="1"/>
        <pt x="263" y="547" on="1"/>
        <pt x="136" y="547" on="1"/>
        <pt x="146" y="652" on="1"/>
        <pt x="384" y="652" on="1"/>
        <pt x="327" y="102" on="1"/>
      </contour>
    </TTGlyph>
    <TTGlyph name="oslash" xMin="38" yMin="-76" xMax="521" yMax="597">
      <contour>
        <pt x="458" y="562" on="1"/>
        <pt x="428" y="489" on="1"/>
        <pt x="521" y="429" on="0"/>
        <pt x="521" y="298" on="1"/>
        <pt x="521" y="279" on="0"/>
        <pt x="519" y="258" on="1"/>
        <pt x="510" y="168" on="0"/>
        <pt x="456" y="93" on="1"/>
        <pt x="380" y="-11" on="0"/>
        <pt x="253" y="-11" on="1"/>
        <pt x="235" y="-11" on="0"/>
        <pt x="226" y="-10" on="1"/>
        <pt x="200" y="-76" on="1"/>
        <pt x="94" y="-41" on="1"/>
        <pt x="121" y="26" on="1"/>
        <pt x="38" y="83" on="0"/>
        <pt x="38" y="220" on="1"/>
        <pt x="38" y="239" on="0"/>
        <pt x="40" y="258" on="1"/>
        <pt x="53" y="389" on="0"/>
        <pt x="143" y="463" on="1"/>
        <pt x="219" y="524" on="0"/>
        <pt x="310" y="524" on="1"/>
        <pt x="322" y="524" on="1"/>
        <pt x="351" y="597" on="1"/>
      </contour>
      <contour>
        <pt x="289" y="442" on="1"/>
        <pt x="234" y="434" on="0"/>
        <pt x="198" y="375" on="1"/>
        <pt x="165" y="324" on="0"/>
        <pt x="158" y="252" on="1"/>
        <pt x="152" y="191" on="0"/>
        <pt x="168" y="142" on="1"/>
      </contour>
      <contour>
        <pt x="400" y="257" on="1"/>
        <pt x="407" y="331" on="0"/>
        <pt x="386" y="384" on="1"/>
        <pt x="258" y="69" on="1"/>
        <pt x="316" y="70" on="0"/>
        <pt x="356" y="128" on="1"/>
        <pt x="392" y="181" on="0"/>
      </contour>
    </TTGlyph>
    <TTGlyph name="otilde" xMin="38" yMin="-11" xMax="521" yMax="701">
      <contour>
        <pt x="311" y="593" on="1"/>
        <pt x="277" y="617" on="0"/>
        <pt x="269" y="616" on="1"/>
        <pt x="242" y="616" on="0"/>
        <pt x="197" y="568" on="1"/>
        <pt x="165" y="648" on="1"/>
        <pt x="211" y="699" on="0"/>
        <pt x="279" y="701" on="1"/>
        <pt x="310" y="702" on="0"/>
        <pt x="383" y="647" on="0"/>
        <pt x="393" y="647" on="1"/>
        <pt x="406" y="647" on="0"/>
        <pt x="449" y="679" on="1"/>
        <pt x="478" y="601" on="1"/>
        <pt x="461" y="585" on="0"/>
        <pt x="429" y="572" on="1"/>
        <pt x="401" y="562" on="0"/>
        <pt x="386" y="562" on="1"/>
        <pt x="356" y="562" on="0"/>
      </contour>
      <contour>
        <pt x="40" y="258" on="1"/>
        <pt x="54" y="389" on="0"/>
        <pt x="144" y="463" on="1"/>
        <pt x="219" y="524" on="0"/>
        <pt x="310" y="524" on="1"/>
        <pt x="393" y="524" on="0"/>
        <pt x="453" y="472" on="1"/>
        <pt x="522" y="410" on="0"/>
        <pt x="521" y="298" on="1"/>
        <pt x="521" y="279" on="0"/>
        <pt x="519" y="258" on="1"/>
        <pt x="510" y="168" on="0"/>
        <pt x="456" y="93" on="1"/>
        <pt x="381" y="-11" on="0"/>
        <pt x="254" y="-11" on="1"/>
        <pt x="131" y="-11" on="0"/>
        <pt x="77" y="71" on="1"/>
        <pt x="38" y="130" on="0"/>
        <pt x="38" y="220" on="1"/>
        <pt x="38" y="240" on="0"/>
      </contour>
      <contour>
        <pt x="157" y="220" on="1"/>
        <pt x="157" y="155" on="0"/>
        <pt x="181" y="115" on="1"/>
        <pt x="208" y="69" on="0"/>
        <pt x="258" y="69" on="1"/>
        <pt x="328" y="69" on="0"/>
        <pt x="369" y="148" on="1"/>
        <pt x="403" y="214" on="0"/>
        <pt x="402" y="292" on="1"/>
        <pt x="402" y="357" on="0"/>
        <pt x="380" y="397" on="1"/>
        <pt x="353" y="443" on="0"/>
        <pt x="306" y="443" on="1"/>
        <pt x="233" y="443" on="0"/>
        <pt x="191" y="365" on="1"/>
        <pt x="157" y="299" on="0"/>
      </contour>
    </TTGlyph>
    <TTGlyph name="p" xMin="27" yMin="-202" xMax="506" yMax="525">
      <contour>
        <pt x="160" y="29" on="1"/>
        <pt x="136" y="-202" on="1"/>
        <pt x="27" y="-202" on="1"/>
        <pt x="101" y="508" on="1"/>
        <pt x="211" y="508" on="1"/>
        <pt x="202" y="424" on="1"/>
        <pt x="219" y="464" on="0"/>
        <pt x="309" y="525" on="0"/>
        <pt x="351" y="525" on="1"/>
        <pt x="506" y="524" on="0"/>
        <pt x="506" y="324" on="1"/>
        <pt x="506" y="297" on="0"/>
        <pt x="503" y="267" on="1"/>
        <pt x="472" y="-24" on="0"/>
        <pt x="259" y="-24" on="1"/>
        <pt x="229" y="-23" on="0"/>
      </contour>
      <contour>
        <pt x="190" y="317" on="1"/>
        <pt x="169" y="117" on="1"/>
        <pt x="227" y="70" on="0"/>
        <pt x="270" y="70" on="1"/>
        <pt x="317" y="70" on="0"/>
        <pt x="349" y="133" on="1"/>
        <pt x="376" y="184" on="0"/>
        <pt x="382" y="254" on="1"/>
        <pt x="386" y="290" on="0"/>
        <pt x="386" y="314" on="1"/>
        <pt x="386" y="431" on="0"/>
        <pt x="306" y="431" on="1"/>
        <pt x="281" y="431" on="0"/>
        <pt x="241" y="387" on="1"/>
        <pt x="203" y="348" on="0"/>
      </contour>
    </TTGlyph>
    <TTGlyph name="paragraph" xMin="51" yMin="0" xMax="447" yMax="657">
      <contour>
        <pt x="346" y="0" on="1"/>
        <pt x="346" y="657" on="1"/>
        <pt x="447" y="657" on="1"/>
        <pt x="447" y="0" on="1"/>
      </contour>
      <contour>
        <pt x="216" y="0" on="1"/>
        <pt x="216" y="325" on="1"/>
        <pt x="50" y="325" on="0"/>
        <pt x="51" y="495" on="1"/>
        <pt x="51" y="583" on="0"/>
        <pt x="93" y="622" on="1"/>
        <pt x="132" y="658" on="0"/>
        <pt x="214" y="657" on="1"/>
        <pt x="317" y="657" on="1"/>
        <pt x="317" y="0" on="1"/>
      </contour>
    </TTGlyph>
    <TTGlyph name="parenleft" xMin="42" yMin="-146" xMax="294" yMax="808">
      <contour>
        <pt x="216" y="808" on="1"/>
        <pt x="294" y="762" on="1"/>
        <pt x="174" y="512" on="0"/>
        <pt x="155" y="331" on="1"/>
        <pt x="150" y="285" on="0"/>
        <pt x="150" y="241" on="1"/>
        <pt x="150" y="161" on="0"/>
        <pt x="167" y="70" on="1"/>
        <pt x="173" y="37" on="0"/>
        <pt x="206" y="-102" on="1"/>
        <pt x="116" y="-146" on="1"/>
        <pt x="42" y="39" on="0"/>
        <pt x="42" y="231" on="1"/>
        <pt x="42" y="534" on="0"/>
      </contour>
    </TTGlyph>
    <TTGlyph name="parenright" xMin="30" yMin="-146" xMax="282" yMax="807">
      <contour>
        <pt x="30" y="-102" on="1"/>
        <pt x="104" y="65" on="0"/>
        <pt x="119" y="106" on="1"/>
        <pt x="159" y="217" on="0"/>
        <pt x="171" y="327" on="1"/>
        <pt x="176" y="375" on="0"/>
        <pt x="176" y="423" on="1"/>
        <pt x="176" y="570" on="0"/>
        <pt x="123" y="763" on="1"/>
        <pt x="211" y="807" on="1"/>
        <pt x="282" y="639" on="0"/>
        <pt x="282" y="443" on="1"/>
        <pt x="282" y="136" on="0"/>
        <pt x="111" y="-146" on="1"/>
      </contour>
    </TTGlyph>
    <TTGlyph name="partialdiff" xMin="32" yMin="-17" xMax="524" yMax="706">
      <contour>
        <pt x="302" y="520" on="1"/>
        <pt x="372" y="520" on="0"/>
        <pt x="420" y="463" on="1"/>
        <pt x="415" y="490" on="0"/>
        <pt x="385" y="564" on="0"/>
        <pt x="372" y="574" on="1"/>
        <pt x="340" y="600" on="0"/>
        <pt x="278" y="600" on="1"/>
        <pt x="207" y="600" on="0"/>
        <pt x="127" y="565" on="1"/>
        <pt x="108" y="681" on="1"/>
        <pt x="192" y="706" on="0"/>
        <pt x="270" y="706" on="1"/>
        <pt x="380" y="706" on="0"/>
        <pt x="436" y="660" on="1"/>
        <pt x="524" y="590" on="0"/>
        <pt x="524" y="411" on="1"/>
        <pt x="524" y="363" on="0"/>
        <pt x="518" y="305" on="1"/>
        <pt x="484" y="-18" on="0"/>
        <pt x="239" y="-17" on="1"/>
        <pt x="140" y="-17" on="0"/>
        <pt x="83" y="54" on="1"/>
        <pt x="32" y="119" on="0"/>
        <pt x="32" y="213" on="1"/>
        <pt x="32" y="345" on="0"/>
        <pt x="100" y="429" on="1"/>
        <pt x="174" y="520" on="0"/>
      </contour>
      <contour>
        <pt x="291" y="426" on="1"/>
        <pt x="237" y="426" on="0"/>
        <pt x="164" y="339" on="0"/>
        <pt x="156" y="257" on="1"/>
        <pt x="155" y="243" on="0"/>
        <pt x="155" y="229" on="1"/>
        <pt x="155" y="167" on="0"/>
        <pt x="211" y="88" on="0"/>
        <pt x="260" y="88" on="1"/>
        <pt x="389" y="88" on="0"/>
        <pt x="409" y="272" on="1"/>
        <pt x="413" y="312" on="0"/>
        <pt x="412" y="350" on="1"/>
        <pt x="364" y="426" on="0"/>
      </contour>
    </TTGlyph>
</ttFont>
